<svg xmlns="http://www.w3.org/2000/svg" width="150" height="197" viewBox="0 0 150 197">
  <path fill="#1F1F1F" fill-rule="evenodd" d="M1244.87248,876.642866 L1244.87248,885.937694 C1244.87248,886.043082 1244.83821,886.129073 1244.77097,886.195022 C1244.70308,886.262263 1244.62097,886.295884 1244.52463,886.295884 L1243.38024,886.295884 C1243.18756,886.295884 1243.04209,886.215065 1242.9464,886.05278 L1238.81752,879.84653 L1238.81752,885.951918 C1238.81752,886.048254 1238.78584,886.129073 1238.72313,886.195022 C1238.66041,886.262263 1238.57636,886.295884 1238.46968,886.295884 L1237.22442,886.295884 C1237.12744,886.295884 1237.04532,886.262263 1236.97808,886.195022 C1236.91084,886.129073 1236.87657,886.048254 1236.87657,885.951918 L1236.87657,876.642866 C1236.87657,876.538125 1236.90825,876.452134 1236.97032,876.386185 C1237.03369,876.318944 1237.11774,876.285323 1237.22442,876.285323 L1238.35394,876.285323 C1238.53692,876.285323 1238.67722,876.366142 1238.77356,876.528427 L1242.91666,882.878211 L1242.91666,876.642866 C1242.91666,876.538125 1242.94769,876.452134 1243.01106,876.386185 C1243.07377,876.318944 1243.15847,876.285323 1243.2645,876.285323 L1244.50976,876.285323 C1244.61644,876.285323 1244.70308,876.318944 1244.77097,876.386185 C1244.83821,876.452134 1244.87248,876.538125 1244.87248,876.642866 Z M1226.91127,882.635108 L1230.18476,882.635108 L1228.54769,878.230151 L1226.91127,882.635108 Z M1229.86537,876.642866 L1233.34252,885.866573 L1233.37097,885.995884 C1233.37097,886.081228 1233.33929,886.152996 1233.27722,886.209892 C1233.2145,886.266789 1233.14403,886.295884 1233.06644,886.295884 L1231.77787,886.295884 C1231.5755,886.295884 1231.43519,886.205366 1231.35825,886.023685 L1230.69101,884.293513 L1226.40373,884.293513 L1225.73713,886.023685 C1225.65955,886.205366 1225.51989,886.295884 1225.31752,886.295884 L1224.0283,886.295884 C1223.94166,886.295884 1223.8686,886.266789 1223.81106,886.209892 C1223.75287,886.152996 1223.72377,886.081228 1223.72377,885.995884 L1223.75287,885.866573 L1227.22938,876.642866 C1227.32571,876.404289 1227.49963,876.285323 1227.75114,876.285323 L1229.34425,876.285323 C1229.59575,876.285323 1229.76903,876.404289 1229.86537,876.642866 Z M1218.07485,880.511185 C1218.3645,880.25903 1218.50998,879.889203 1218.50998,879.402996 C1218.50998,878.916789 1218.3645,878.542435 1218.07485,878.279935 C1217.78455,878.018082 1217.35071,877.886832 1216.7714,877.886832 L1214.75804,877.886832 L1214.75804,880.890065 L1216.7714,880.890065 C1217.35071,880.890065 1217.78455,880.763987 1218.07485,880.511185 Z M1218.68325,882.191573 L1220.7839,885.838125 C1220.81235,885.895668 1220.82722,885.948039 1220.82722,885.995884 C1220.82722,886.081228 1220.79554,886.152996 1220.73282,886.209892 C1220.67011,886.266789 1220.60028,886.295884 1220.52269,886.295884 L1219.19015,886.295884 C1219.03563,886.295884 1218.91537,886.259677 1218.82808,886.188556 C1218.74144,886.116789 1218.66386,886.023685 1218.59597,885.909892 L1216.74231,882.520668 L1214.75804,882.520668 L1214.75804,885.951918 C1214.75804,886.048254 1214.72377,886.129073 1214.65653,886.195022 C1214.58864,886.262263 1214.50136,886.295884 1214.39532,886.295884 L1213.06343,886.295884 C1212.96644,886.295884 1212.88369,886.262263 1212.81709,886.195022 C1212.74856,886.129073 1212.71558,886.048254 1212.71558,885.951918 L1212.71558,876.642866 C1212.71558,876.538125 1212.74662,876.452134 1212.80933,876.386185 C1212.87205,876.318944 1212.95675,876.285323 1213.06343,876.285323 L1216.81472,876.285323 C1218.00244,876.285323 1218.93218,876.556875 1219.60265,877.100625 C1220.27442,877.643728 1220.60998,878.416358 1220.60998,879.41722 C1220.60998,880.112909 1220.44123,880.697392 1220.10244,881.168728 C1219.76429,881.640711 1219.29166,881.982091 1218.68325,882.191573 Z M1208.18907,876.386185 C1208.25114,876.452134 1208.28282,876.538125 1208.28282,876.642866 L1208.28282,885.951918 C1208.28282,886.048254 1208.25114,886.129073 1208.18907,886.195022 C1208.12571,886.262263 1208.04101,886.295884 1207.93498,886.295884 L1206.58821,886.295884 C1206.49188,886.295884 1206.40912,886.262263 1206.34188,886.195022 C1206.27463,886.129073 1206.24101,886.048254 1206.24101,885.951918 L1206.24101,882.134677 L1202.01063,882.134677 L1202.01063,885.951918 C1202.01063,886.048254 1201.977,886.129073 1201.90912,886.195022 C1201.84188,886.262263 1201.75459,886.295884 1201.64856,886.295884 L1200.31601,886.295884 C1200.21968,886.295884 1200.13756,886.262263 1200.06968,886.195022 C1200.00244,886.129073 1199.96817,886.048254 1199.96817,885.951918 L1199.96817,876.642866 C1199.96817,876.538125 1199.99985,876.452134 1200.06256,876.386185 C1200.12528,876.318944 1200.20998,876.285323 1200.31601,876.285323 L1201.64856,876.285323 C1201.75459,876.285323 1201.84188,876.318944 1201.90912,876.386185 C1201.977,876.452134 1202.01063,876.538125 1202.01063,876.642866 L1202.01063,880.318513 L1206.24101,880.318513 L1206.24101,876.642866 C1206.24101,876.538125 1206.27463,876.452134 1206.34188,876.386185 C1206.40912,876.318944 1206.49188,876.285323 1206.58821,876.285323 L1207.93498,876.285323 C1208.04101,876.285323 1208.12571,876.318944 1208.18907,876.386185 Z M1195.88325,884.729935 C1195.95114,884.792004 1195.98541,884.874763 1195.98541,884.980151 L1195.98541,885.951918 C1195.98541,886.057953 1195.95114,886.140065 1195.88325,886.20278 C1195.81601,886.264849 1195.72938,886.295884 1195.62269,886.295884 L1189.11968,886.295884 C1189.02269,886.295884 1188.94058,886.262263 1188.87334,886.195022 C1188.80545,886.129073 1188.77119,886.048254 1188.77119,885.951918 L1188.77119,876.642866 C1188.77119,876.538125 1188.80287,876.452134 1188.86558,876.386185 C1188.92894,876.318944 1189.013,876.285323 1189.11968,876.285323 L1195.50696,876.285323 C1195.613,876.285323 1195.70028,876.318944 1195.76817,876.386185 C1195.83541,876.452134 1195.86903,876.538125 1195.86903,876.642866 L1195.86903,877.601056 C1195.86903,877.706444 1195.83541,877.789203 1195.76817,877.851272 C1195.70028,877.913341 1195.613,877.944375 1195.50696,877.944375 L1190.7561,877.944375 L1190.7561,880.44653 L1195.18821,880.44653 C1195.29489,880.44653 1195.38153,880.480797 1195.44942,880.546746 C1195.51666,880.613987 1195.55093,880.699332 1195.55093,880.80472 L1195.55093,881.705366 C1195.55093,881.810108 1195.51666,881.893513 1195.44942,881.955582 C1195.38153,882.017651 1195.29489,882.048685 1195.18821,882.048685 L1190.7561,882.048685 L1190.7561,884.636832 L1195.62269,884.636832 C1195.72938,884.636832 1195.81601,884.667866 1195.88325,884.729935 Z M1185.03412,876.386185 C1185.102,876.452134 1185.13563,876.538125 1185.13563,876.642866 L1185.13563,877.715496 C1185.13563,877.820237 1185.102,877.906228 1185.03412,877.972823 C1184.96688,878.039418 1184.87959,878.073039 1184.7742,878.073039 L1182.10847,878.073039 L1182.10847,885.951918 C1182.10847,886.048254 1182.07679,886.129073 1182.01407,886.195022 C1181.95136,886.262263 1181.86666,886.295884 1181.76063,886.295884 L1180.39899,886.295884 C1180.30265,886.295884 1180.22054,886.262263 1180.15265,886.195022 C1180.08541,886.129073 1180.05179,886.048254 1180.05179,885.951918 L1180.05179,878.073039 L1177.37183,878.073039 C1177.27485,878.073039 1177.19274,878.039418 1177.1255,877.972823 C1177.05761,877.906228 1177.02463,877.820237 1177.02463,877.715496 L1177.02463,876.642866 C1177.02463,876.538125 1177.05502,876.452134 1177.11838,876.386185 C1177.1811,876.318944 1177.2658,876.285323 1177.37183,876.285323 L1184.7742,876.285323 C1184.87959,876.285323 1184.96688,876.318944 1185.03412,876.386185 Z M1162.04338,880.611401 C1162.33756,880.348901 1162.48498,879.965496 1162.48498,879.459892 C1162.48498,878.964634 1162.34209,878.578642 1162.05761,878.301272 C1161.77248,878.025841 1161.34058,877.886832 1160.76127,877.886832 L1158.6755,877.886832 L1158.6755,881.004504 L1160.76127,881.004504 C1161.32119,881.004504 1161.74856,880.873254 1162.04338,880.611401 Z M1160.83369,876.285323 C1162.002,876.285323 1162.91946,876.556875 1163.58541,877.100625 C1164.252,877.643728 1164.58498,878.435108 1164.58498,879.474116 C1164.58498,880.504073 1164.252,881.283815 1163.58541,881.812694 C1162.91946,882.341573 1162.002,882.606659 1160.83369,882.606659 L1158.70459,882.606659 L1158.70459,885.951918 C1158.70459,886.057953 1158.67032,886.140065 1158.60244,886.20278 C1158.53519,886.264849 1158.44856,886.295884 1158.34252,886.295884 L1156.95179,886.295884 C1156.85481,886.295884 1156.77269,886.262263 1156.70545,886.195022 C1156.63756,886.129073 1156.60394,886.048254 1156.60394,885.951918 L1156.60394,876.642866 C1156.60394,876.538125 1156.63498,876.452134 1156.69834,876.386185 C1156.76106,876.318944 1156.84511,876.285323 1156.95179,876.285323 L1160.83369,876.285323 Z M1152.16407,876.386185 C1152.22679,876.452134 1152.25847,876.538125 1152.25847,876.642866 L1152.25847,882.463125 C1152.25847,883.797608 1151.89834,884.793944 1151.17938,885.451487 C1150.45976,886.109677 1149.44856,886.438125 1148.14511,886.438125 C1146.83131,886.438125 1145.81235,886.109677 1145.08821,885.451487 C1144.36407,884.793944 1144.002,883.797608 1144.002,882.463125 L1144.002,876.642866 C1144.002,876.538125 1144.03304,876.452134 1144.0964,876.386185 C1144.15847,876.318944 1144.24317,876.285323 1144.3492,876.285323 L1145.68239,876.285323 C1145.78843,876.285323 1145.87506,876.318944 1145.94295,876.386185 C1146.01019,876.452134 1146.04446,876.538125 1146.04446,876.642866 L1146.04446,882.463125 C1146.04446,883.216358 1146.2255,883.78403 1146.58756,884.164849 C1146.94963,884.546315 1147.46364,884.737047 1148.13024,884.737047 C1148.79619,884.737047 1149.31084,884.546315 1149.67291,884.164849 C1150.03498,883.78403 1150.21601,883.216358 1150.21601,882.463125 L1150.21601,876.642866 C1150.21601,876.538125 1150.24963,876.452134 1150.31752,876.386185 C1150.38476,876.318944 1150.47205,876.285323 1150.57808,876.285323 L1151.91127,876.285323 C1152.01731,876.285323 1152.10136,876.318944 1152.16407,876.386185 Z M1140.35222,876.386185 C1140.41946,876.452134 1140.45308,876.538125 1140.45308,876.642866 L1140.45308,877.715496 C1140.45308,877.820237 1140.41946,877.906228 1140.35222,877.972823 C1140.28433,878.039418 1140.19769,878.073039 1140.09101,878.073039 L1137.42593,878.073039 L1137.42593,885.951918 C1137.42593,886.048254 1137.39425,886.129073 1137.33153,886.195022 C1137.26881,886.262263 1137.18412,886.295884 1137.07808,886.295884 L1135.71644,886.295884 C1135.62011,886.295884 1135.538,886.262263 1135.47075,886.195022 C1135.40287,886.129073 1135.36925,886.048254 1135.36925,885.951918 L1135.36925,878.073039 L1132.68929,878.073039 C1132.59231,878.073039 1132.51019,878.039418 1132.44295,877.972823 C1132.37506,877.906228 1132.34144,877.820237 1132.34144,877.715496 L1132.34144,876.642866 C1132.34144,876.538125 1132.37248,876.452134 1132.43584,876.386185 C1132.49856,876.318944 1132.58325,876.285323 1132.68929,876.285323 L1140.09101,876.285323 C1140.19769,876.285323 1140.28433,876.318944 1140.35222,876.386185 Z M1129.05373,884.729935 C1129.12097,884.792004 1129.15459,884.874763 1129.15459,884.980151 L1129.15459,885.951918 C1129.15459,886.057953 1129.12097,886.140065 1129.05373,886.20278 C1128.98584,886.264849 1128.8992,886.295884 1128.79252,886.295884 L1122.28886,886.295884 C1122.19252,886.295884 1122.10976,886.262263 1122.04252,886.195022 C1121.97528,886.129073 1121.94166,886.048254 1121.94166,885.951918 L1121.94166,876.642866 C1121.94166,876.538125 1121.97269,876.452134 1122.03541,876.386185 C1122.09813,876.318944 1122.18218,876.285323 1122.28886,876.285323 L1128.67679,876.285323 C1128.78282,876.285323 1128.87011,876.318944 1128.938,876.386185 C1129.00524,876.452134 1129.03886,876.538125 1129.03886,876.642866 L1129.03886,877.601056 C1129.03886,877.706444 1129.00524,877.789203 1128.938,877.851272 C1128.87011,877.913341 1128.78282,877.944375 1128.67679,877.944375 L1123.92593,877.944375 L1123.92593,880.44653 L1128.35804,880.44653 C1128.46472,880.44653 1128.55136,880.480797 1128.61925,880.546746 C1128.68649,880.613987 1128.72075,880.699332 1128.72075,880.80472 L1128.72075,881.705366 C1128.72075,881.810108 1128.68649,881.893513 1128.61925,881.955582 C1128.55136,882.017651 1128.46472,882.048685 1128.35804,882.048685 L1123.92593,882.048685 L1123.92593,884.636832 L1128.79252,884.636832 C1128.8992,884.636832 1128.98584,884.667866 1129.05373,884.729935 Z M1117.85675,884.729935 C1117.92399,884.792004 1117.95825,884.874763 1117.95825,884.980151 L1117.95825,885.951918 C1117.95825,886.057953 1117.92399,886.140065 1117.85675,886.20278 C1117.78886,886.264849 1117.70222,886.295884 1117.59619,886.295884 L1111.09188,886.295884 C1110.99554,886.295884 1110.91343,886.262263 1110.84619,886.195022 C1110.7783,886.129073 1110.74468,886.048254 1110.74468,885.951918 L1110.74468,876.642866 C1110.74468,876.538125 1110.77571,876.452134 1110.83843,876.386185 C1110.90179,876.318944 1110.98584,876.285323 1111.09188,876.285323 L1117.48045,876.285323 C1117.58649,876.285323 1117.67313,876.318944 1117.74101,876.386185 C1117.80825,876.452134 1117.84188,876.538125 1117.84188,876.642866 L1117.84188,877.601056 C1117.84188,877.706444 1117.80825,877.789203 1117.74101,877.851272 C1117.67313,877.913341 1117.58649,877.944375 1117.48045,877.944375 L1112.72894,877.944375 L1112.72894,880.44653 L1117.1617,880.44653 C1117.26774,880.44653 1117.35438,880.480797 1117.42226,880.546746 C1117.4895,880.613987 1117.52377,880.699332 1117.52377,880.80472 L1117.52377,881.705366 C1117.52377,881.810108 1117.4895,881.893513 1117.42226,881.955582 C1117.35438,882.017651 1117.26774,882.048685 1117.1617,882.048685 L1112.72894,882.048685 L1112.72894,884.636832 L1117.59619,884.636832 C1117.70222,884.636832 1117.78886,884.667866 1117.85675,884.729935 Z M1106.21041,876.386185 C1106.2783,876.452134 1106.31192,876.538125 1106.31192,876.642866 L1106.31192,885.951918 C1106.31192,886.057953 1106.2783,886.140065 1106.21041,886.20278 C1106.14317,886.264849 1106.05588,886.295884 1105.94985,886.295884 L1104.70394,886.295884 C1104.60761,886.295884 1104.5255,886.262263 1104.45761,886.195022 C1104.39037,886.129073 1104.3561,886.048254 1104.3561,885.951918 L1104.3561,879.803211 L1102.34338,883.579073 C1102.2367,883.788556 1102.07765,883.893297 1101.86494,883.893297 L1101.25653,883.893297 C1101.05416,883.893297 1100.88994,883.788556 1100.76386,883.579073 L1098.7505,879.803211 L1098.7505,885.951918 C1098.7505,886.048254 1098.71881,886.129073 1098.65675,886.195022 C1098.59338,886.262263 1098.50933,886.295884 1098.40265,886.295884 L1097.15739,886.295884 C1097.06041,886.295884 1096.9783,886.262263 1096.91106,886.195022 C1096.84317,886.129073 1096.80955,886.048254 1096.80955,885.951918 L1096.80955,876.642866 C1096.80955,876.538125 1096.84058,876.452134 1096.90394,876.386185 C1096.96666,876.318944 1097.05071,876.285323 1097.15739,876.285323 L1098.33088,876.285323 C1098.51386,876.285323 1098.65869,876.376487 1098.76537,876.556875 L1101.56106,881.676272 L1104.3561,876.556875 C1104.46278,876.376487 1104.60761,876.285323 1104.79123,876.285323 L1105.94985,876.285323 C1106.05588,876.285323 1106.14317,876.318944 1106.21041,876.386185 Z M1230.95287,869.363341 C1230.83649,869.239203 1230.77894,869.082091 1230.77894,868.890711 L1230.77894,850.192435 C1230.77894,849.983599 1230.83649,849.816142 1230.95287,849.691358 C1231.0686,849.567866 1231.22313,849.505151 1231.41644,849.505151 L1243.33756,849.505151 C1243.54963,849.505151 1243.71903,849.567866 1243.84446,849.691358 C1243.97054,849.816142 1244.03325,849.983599 1244.03325,850.192435 L1244.03325,851.223685 C1244.03325,851.414418 1243.97054,851.567651 1243.84446,851.682091 C1243.71903,851.795884 1243.54963,851.853427 1243.33756,851.853427 L1233.44726,851.853427 L1233.44726,858.238772 L1242.69942,858.238772 C1242.91213,858.238772 1243.08088,858.301487 1243.20696,858.424978 C1243.33239,858.549763 1243.39575,858.715927 1243.39575,858.926056 L1243.39575,859.899763 C1243.39575,860.090496 1243.33239,860.248254 1243.20696,860.372392 C1243.08088,860.49653 1242.91213,860.557953 1242.69942,860.557953 L1233.44726,860.557953 L1233.44726,867.172823 L1243.56903,867.172823 C1243.78175,867.172823 1243.9505,867.234892 1244.07722,867.35903 C1244.20265,867.483168 1244.26537,867.650625 1244.26537,867.860108 L1244.26537,868.890711 C1244.26537,869.082091 1244.19748,869.239203 1244.063,869.363341 C1243.92722,869.488125 1243.76235,869.548901 1243.56903,869.548901 L1231.41644,869.548901 C1231.22313,869.548901 1231.0686,869.488125 1230.95287,869.363341 Z M1212.94123,869.363341 C1212.8255,869.239203 1212.76795,869.082091 1212.76795,868.890711 L1212.76795,850.164634 C1212.76795,849.973901 1212.8255,849.816142 1212.94123,849.691358 C1213.05761,849.567866 1213.21149,849.505151 1213.40545,849.505151 L1214.85567,849.505151 C1215.04899,849.505151 1215.20351,849.567866 1215.31989,849.691358 C1215.43627,849.816142 1215.49381,849.973901 1215.49381,850.164634 L1215.49381,867.144375 L1225.18175,867.144375 C1225.39381,867.144375 1225.56321,867.205797 1225.68864,867.330582 C1225.81407,867.45472 1225.87744,867.611832 1225.87744,867.802565 L1225.87744,868.890711 C1225.87744,869.082091 1225.81019,869.239203 1225.67442,869.363341 C1225.53864,869.488125 1225.37442,869.548901 1225.18175,869.548901 L1213.40545,869.548901 C1213.21149,869.548901 1213.05761,869.488125 1212.94123,869.363341 Z M1194.40782,860.243728 L1194.40782,867.287263 L1200.09295,867.287263 C1201.32981,867.287263 1202.30157,866.958168 1203.00761,866.299332 C1203.71364,865.640496 1204.06666,864.796746 1204.06666,863.765496 C1204.06666,862.715496 1203.71364,861.866573 1203.00761,861.217435 C1202.30157,860.568297 1201.32981,860.243728 1200.09295,860.243728 L1194.40782,860.243728 Z M1194.40782,851.767435 L1194.40782,858.009892 L1199.80265,858.009892 C1201.05955,858.009892 1202.01709,857.728642 1202.67399,857.164849 C1203.33088,856.602349 1203.66063,855.814849 1203.66063,854.802996 C1203.66063,853.810539 1203.3367,853.056013 1202.68886,852.540711 C1202.04037,852.026056 1201.07894,851.767435 1199.80265,851.767435 L1194.40782,851.767435 Z M1192.32011,869.548901 C1192.12614,869.548901 1191.97162,869.488125 1191.85588,869.363341 C1191.7395,869.239203 1191.68131,869.082091 1191.68131,868.890711 L1191.68131,850.192435 C1191.68131,849.983599 1191.7395,849.816142 1191.85588,849.691358 C1191.97162,849.567866 1192.12614,849.505151 1192.32011,849.505151 L1200.23778,849.505151 C1202.28735,849.505151 1203.8339,849.992004 1204.87873,850.965711 C1205.92291,851.939418 1206.44468,853.209246 1206.44468,854.774547 C1206.44468,855.843297 1206.19317,856.735539 1205.69015,857.451272 C1205.18713,858.167004 1204.59813,858.687478 1203.92119,859.011401 C1204.752,859.412909 1205.44834,860.033599 1206.01019,860.872823 C1206.57011,861.713341 1206.85006,862.676703 1206.85006,863.765496 C1206.85006,864.834246 1206.60438,865.807953 1206.1117,866.68597 C1205.61774,867.563987 1204.88778,868.26097 1203.92119,868.776272 C1202.95394,869.29222 1201.80438,869.548901 1200.46989,869.548901 L1192.32011,869.548901 Z M1181.92226,866.299332 C1182.6283,865.640496 1182.98067,864.796746 1182.98067,863.765496 C1182.98067,862.715496 1182.6283,861.866573 1181.92226,861.217435 C1181.21623,860.568297 1180.24446,860.243728 1179.00696,860.243728 L1173.32248,860.243728 L1173.32248,867.287263 L1179.00696,867.287263 C1180.24446,867.287263 1181.21623,866.958168 1181.92226,866.299332 Z M1173.32248,851.767435 L1173.32248,858.009892 L1178.71731,858.009892 C1179.97356,858.009892 1180.9311,857.728642 1181.58864,857.164849 C1182.24554,856.602349 1182.57463,855.814849 1182.57463,854.802996 C1182.57463,853.810539 1182.25071,853.056013 1181.60287,852.540711 C1180.95502,852.026056 1179.99295,851.767435 1178.71731,851.767435 L1173.32248,851.767435 Z M1182.83584,859.011401 C1183.66666,859.412909 1184.363,860.033599 1184.92356,860.872823 C1185.48412,861.713341 1185.76472,862.676703 1185.76472,863.765496 C1185.76472,864.834246 1185.51838,865.807953 1185.02571,866.68597 C1184.53239,867.563987 1183.80244,868.26097 1182.83584,868.776272 C1181.8686,869.29222 1180.71838,869.548901 1179.3839,869.548901 L1171.23412,869.548901 C1171.0408,869.548901 1170.88563,869.488125 1170.76989,869.363341 C1170.65351,869.239203 1170.59597,869.082091 1170.59597,868.890711 L1170.59597,850.192435 C1170.59597,849.983599 1170.65351,849.816142 1170.76989,849.691358 C1170.88563,849.567866 1171.0408,849.505151 1171.23412,849.505151 L1179.15244,849.505151 C1181.20136,849.505151 1182.74856,849.992004 1183.79274,850.965711 C1184.83756,851.939418 1185.35869,853.209246 1185.35869,854.774547 C1185.35869,855.843297 1185.10718,856.735539 1184.60481,857.451272 C1184.10179,858.167004 1183.51278,858.687478 1182.83584,859.011401 Z M1160.83563,866.299332 C1161.54166,865.640496 1161.89468,864.796746 1161.89468,863.765496 C1161.89468,862.715496 1161.54166,861.866573 1160.83563,861.217435 C1160.13024,860.568297 1159.15847,860.243728 1157.92097,860.243728 L1152.23649,860.243728 L1152.23649,867.287263 L1157.92097,867.287263 C1159.15847,867.287263 1160.13024,866.958168 1160.83563,866.299332 Z M1152.23649,851.767435 L1152.23649,858.009892 L1157.63131,858.009892 C1158.88756,858.009892 1159.84511,857.728642 1160.50265,857.164849 C1161.15955,856.602349 1161.48864,855.814849 1161.48864,854.802996 C1161.48864,853.810539 1161.16472,853.056013 1160.51688,852.540711 C1159.86903,852.026056 1158.90761,851.767435 1157.63131,851.767435 L1152.23649,851.767435 Z M1161.74985,859.011401 C1162.58131,859.412909 1163.277,860.033599 1163.83821,860.872823 C1164.39877,861.713341 1164.67938,862.676703 1164.67938,863.765496 C1164.67938,864.834246 1164.43239,865.807953 1163.93972,866.68597 C1163.4464,867.563987 1162.71644,868.26097 1161.74985,868.776272 C1160.78261,869.29222 1159.63239,869.548901 1158.29856,869.548901 L1150.14813,869.548901 C1149.95416,869.548901 1149.80028,869.488125 1149.6839,869.363341 C1149.56817,869.239203 1149.50998,869.082091 1149.50998,868.890711 L1149.50998,850.192435 C1149.50998,849.983599 1149.56817,849.816142 1149.6839,849.691358 C1149.80028,849.567866 1149.95416,849.505151 1150.14813,849.505151 L1158.0658,849.505151 C1160.11537,849.505151 1161.66256,849.992004 1162.70675,850.965711 C1163.75093,851.939418 1164.27334,853.209246 1164.27334,854.774547 C1164.27334,855.843297 1164.02183,856.735539 1163.51881,857.451272 C1163.01644,858.167004 1162.42614,858.687478 1161.74985,859.011401 Z M1142.49101,849.67778 C1142.60739,849.79222 1142.66494,849.954504 1142.66494,850.164634 L1142.66494,868.890711 C1142.66494,869.082091 1142.60222,869.239203 1142.47679,869.363341 C1142.35071,869.488125 1142.19101,869.548901 1141.99834,869.548901 L1140.54813,869.548901 C1140.35416,869.548901 1140.19963,869.488125 1140.0839,869.363341 C1139.96817,869.239203 1139.90998,869.082091 1139.90998,868.890711 L1139.90998,850.164634 C1139.90998,849.973901 1139.96817,849.816142 1140.0839,849.691358 C1140.19963,849.567866 1140.35416,849.505151 1140.54813,849.505151 L1141.99834,849.505151 C1142.21041,849.505151 1142.37528,849.562694 1142.49101,849.67778 Z M1126.8005,859.097392 C1129.71968,859.097392 1131.17959,857.885754 1131.17959,855.461185 C1131.17959,853.037263 1129.71968,851.824332 1126.8005,851.824332 L1121.92744,851.824332 L1121.92744,859.097392 L1126.8005,859.097392 Z M1133.76063,869.548901 L1132.48498,869.548901 C1132.19532,869.548901 1131.96774,869.482953 1131.80351,869.349116 C1131.63864,869.215927 1131.48864,869.024547 1131.35351,868.776272 L1127.09015,861.445668 L1121.92744,861.445668 L1121.92744,868.890711 C1121.92744,869.082091 1121.85955,869.239203 1121.72442,869.363341 C1121.58864,869.488125 1121.42442,869.548901 1121.23175,869.548901 L1119.83907,869.548901 C1119.64575,869.548901 1119.49123,869.488125 1119.37485,869.363341 C1119.25912,869.239203 1119.20093,869.082091 1119.20093,868.890711 L1119.20093,850.192435 C1119.20093,849.983599 1119.25912,849.816142 1119.37485,849.691358 C1119.49123,849.567866 1119.64575,849.505151 1119.83907,849.505151 L1126.91623,849.505151 C1129.12097,849.505151 1130.84662,850.015927 1132.09317,851.036832 C1133.34101,852.05903 1133.96429,853.542866 1133.96429,855.49028 C1133.96429,856.940496 1133.59705,858.13403 1132.86192,859.069591 C1132.12679,860.005151 1131.10265,860.654289 1129.78756,861.016358 L1134.25459,868.661832 C1134.31213,868.776272 1134.34123,868.881659 1134.34123,868.977349 C1134.34123,869.129935 1134.28304,869.263125 1134.16731,869.378211 C1134.05093,869.492004 1133.9158,869.548901 1133.76063,869.548901 Z M1110.26817,861.646099 C1110.30631,860.501056 1110.32571,859.785323 1110.32571,859.498254 C1110.32571,859.193728 1110.30631,858.487047 1110.26817,857.380151 C1110.22938,855.47153 1109.77032,854.072392 1108.89037,853.185323 C1108.01041,852.297608 1106.56472,851.853427 1104.55459,851.853427 L1100.23304,851.853427 L1100.23304,867.172823 L1104.69942,867.172823 C1106.05265,867.172823 1107.13045,866.98597 1107.93347,866.614203 C1108.73519,866.241789 1109.31515,865.660539 1109.67399,864.867866 C1110.03088,864.075841 1110.22938,863.001918 1110.26817,861.646099 Z M1112.13864,866.184892 C1111.58778,867.320884 1110.72205,868.165927 1109.54274,868.718728 C1108.36343,869.27347 1106.79683,869.548901 1104.84425,869.548901 L1098.14468,869.548901 C1097.95071,869.548901 1097.79619,869.488125 1097.68045,869.363341 C1097.56472,869.239203 1097.50653,869.082091 1097.50653,868.890711 L1097.50653,850.192435 C1097.50653,849.983599 1097.56472,849.816142 1097.68045,849.691358 C1097.79619,849.567866 1097.95071,849.505151 1098.14468,849.505151 L1104.69942,849.505151 C1107.6186,849.505151 1109.727,850.149763 1111.02205,851.438341 C1112.31709,852.726918 1112.98433,854.669806 1113.02313,857.265065 C1113.04252,857.819806 1113.05222,858.563987 1113.05222,859.498254 C1113.05222,860.434461 1113.04252,861.188341 1113.02313,861.760539 C1112.98433,863.574116 1112.69015,865.048901 1112.13864,866.184892 Z M1210.03129,716.452112 C1209.66147,716.452112 1209.36147,716.152112 1209.36147,715.782284 C1209.36147,715.412457 1209.66147,715.112457 1210.03129,715.112457 L1214.14595,715.112457 C1214.51642,715.112457 1214.81578,715.412457 1214.81578,715.782284 C1214.81578,716.152112 1214.51642,716.452112 1214.14595,716.452112 L1210.03129,716.452112 Z M1164.1675,711.844784 C1163.79767,711.844784 1163.49767,711.544784 1163.49767,711.174957 C1163.49767,710.804483 1163.79767,710.504483 1164.1675,710.504483 L1167.46362,710.504483 C1167.83345,710.504483 1168.13345,710.804483 1168.13345,711.174957 C1168.13345,711.544784 1167.83345,711.844784 1167.46362,711.844784 L1164.1675,711.844784 Z M1172.60953,711.844784 C1172.25909,711.844784 1171.9397,711.592629 1171.90543,711.243491 C1171.86534,710.842629 1172.17892,710.504483 1172.57138,710.504483 L1179.40931,710.504483 C1179.58582,710.504483 1179.74875,710.415259 1179.85026,710.270431 C1181.47634,707.946078 1184.17052,706.422155 1187.21578,706.422155 C1190.64767,706.422155 1193.72978,708.330776 1195.26082,711.403836 C1195.44638,711.775603 1195.25435,712.235948 1194.83086,712.351681 C1194.51599,712.437026 1194.19272,712.260517 1194.0453,711.968276 C1192.73668,709.373017 1190.12332,707.76181 1187.21578,707.76181 C1182.83022,707.76181 1179.29487,711.47431 1179.58841,715.92194 C1179.84573,719.828405 1183.11082,722.954483 1187.02504,723.048233 C1189.80004,723.114828 1192.33,721.723448 1193.76211,719.356422 C1193.96513,719.020216 1194.41707,718.927759 1194.73841,719.166983 C1195.01578,719.374526 1195.07461,719.777328 1194.89422,720.073448 C1193.12461,722.979698 1189.94293,724.626466 1186.4994,724.363319 C1182.20888,724.035517 1178.71362,720.617198 1178.27914,716.335733 C1178.14401,715.007716 1178.30241,713.730776 1178.69422,712.559871 C1178.81254,712.20944 1178.56103,711.844784 1178.19056,711.844784 L1172.60953,711.844784 Z M1190.70134,715.782284 C1190.70134,715.412457 1191.00134,715.112457 1191.37181,715.112457 L1204.03,715.112457 C1204.39983,715.112457 1204.69983,715.412457 1204.69983,715.782284 C1204.69983,716.152112 1204.39983,716.452112 1204.03,716.452112 L1191.37181,716.452112 C1191.00134,716.452112 1190.70134,716.152112 1190.70134,715.782284 Z M1198.11405,778.043276 C1197.74422,778.043276 1197.44422,777.743276 1197.44422,777.373448 L1197.44422,775.358793 C1197.44422,774.988966 1197.74422,774.688966 1198.11405,774.688966 C1198.48453,774.688966 1198.78388,774.988966 1198.78388,775.358793 L1198.78388,777.373448 C1198.78388,777.743276 1198.48453,778.043276 1198.11405,778.043276 Z M1153.91772,749.25944 C1153.54789,749.25944 1153.24789,748.95944 1153.24789,748.589612 C1153.24789,748.219138 1153.54789,747.919138 1153.91772,747.919138 L1159.35651,747.919138 C1159.72634,747.919138 1160.02634,748.219138 1160.02634,748.589612 C1160.02634,748.95944 1159.72634,749.25944 1159.35651,749.25944 L1153.91772,749.25944 Z M1109.50608,789.432931 C1109.13625,789.432931 1108.83625,789.133578 1108.83625,788.763103 L1108.83625,784.499095 C1108.83625,784.128621 1109.13625,783.828621 1109.50608,783.828621 C1109.87655,783.828621 1110.17655,784.128621 1110.17655,784.499095 L1110.17655,788.763103 C1110.17655,789.133578 1109.87655,789.432931 1109.50608,789.432931 Z M1109.50608,819.109655 C1109.13625,819.109655 1108.83625,818.809655 1108.83625,818.439828 L1108.83625,796.24694 C1108.83625,795.877112 1109.13625,795.577112 1109.50608,795.577112 C1109.87655,795.577112 1110.17655,795.877112 1110.17655,796.24694 L1110.17655,818.439828 C1110.17655,818.809655 1109.87655,819.109655 1109.50608,819.109655 Z M1109.50608,832.032931 C1109.13625,832.032931 1108.83625,831.732931 1108.83625,831.363103 L1108.83625,826.311595 C1108.83625,825.941767 1109.13625,825.641767 1109.50608,825.641767 C1109.87655,825.641767 1110.17655,825.941767 1110.17655,826.311595 L1110.17655,831.363103 C1110.17655,831.732931 1109.87655,832.032931 1109.50608,832.032931 Z M1189.05004,798.892629 C1188.68022,798.892629 1188.38022,798.592629 1188.38022,798.222802 L1188.38022,787.097586 C1188.38022,786.727112 1188.68022,786.427759 1189.05004,786.427759 C1189.41987,786.427759 1189.71987,786.727112 1189.71987,787.097586 L1189.71987,798.222802 C1189.71987,798.592629 1189.41987,798.892629 1189.05004,798.892629 Z M1188.37634,767.962241 C1188.00651,767.962241 1187.70651,767.662888 1187.70651,767.292414 L1187.70651,764.854267 C1187.70651,764.48444 1188.00651,764.18444 1188.37634,764.18444 C1188.74616,764.18444 1189.04616,764.48444 1189.04616,764.854267 L1189.04616,767.292414 C1189.04616,767.662888 1188.74616,767.962241 1188.37634,767.962241 Z M1175.46211,834.284871 C1175.46211,833.915043 1175.76211,833.615043 1176.13194,833.615043 L1179.79013,833.615043 C1180.15996,833.615043 1180.45996,833.915043 1180.45996,834.284871 C1180.45996,834.654698 1180.15996,834.954698 1179.79013,834.954698 L1176.13194,834.954698 C1175.76211,834.954698 1175.46211,834.654698 1175.46211,834.284871 Z M1174.67138,817.965259 C1174.30155,817.965259 1174.00155,817.665259 1174.00155,817.295431 C1174.00155,816.924957 1174.30155,816.625603 1174.67138,816.625603 L1177.5925,816.625603 C1177.96297,816.625603 1178.26233,816.924957 1178.26233,817.295431 C1178.26233,817.665259 1177.96297,817.965259 1177.5925,817.965259 L1174.67138,817.965259 Z M1205.99422,779.358362 C1205.6244,779.358362 1205.3244,779.059009 1205.3244,778.688534 L1205.3244,774.151681 C1205.3244,773.781853 1205.6244,773.481853 1205.99422,773.481853 C1206.36405,773.481853 1206.66405,773.781853 1206.66405,774.151681 L1206.66405,778.688534 C1206.66405,779.059009 1206.36405,779.358362 1205.99422,779.358362 Z M1198.11405,792.238966 C1197.74422,792.238966 1197.44422,791.938966 1197.44422,791.569138 L1197.44422,785.025388 C1197.44422,784.65556 1197.74422,784.35556 1198.11405,784.35556 C1198.48453,784.35556 1198.78388,784.65556 1198.78388,785.025388 L1198.78388,791.569138 C1198.78388,791.938966 1198.48453,792.238966 1198.11405,792.238966 Z M1201.51621,811.58444 L1201.51621,809.265259 C1201.51621,808.895431 1201.81621,808.595431 1202.18603,808.595431 C1202.55586,808.595431 1202.85651,808.895431 1202.85651,809.265259 L1202.85651,811.58444 C1202.85651,811.954267 1202.55586,812.254267 1202.18603,812.254267 C1201.81621,812.254267 1201.51621,811.954267 1201.51621,811.58444 Z M1233.48496,807.45556 C1233.11448,807.45556 1232.81513,807.15556 1232.81513,806.785733 L1232.81513,804.163319 C1232.81513,803.793491 1233.11448,803.493491 1233.48496,803.493491 C1233.85543,803.493491 1234.15543,803.793491 1234.15543,804.163319 L1234.15543,806.785733 C1234.15543,807.15556 1233.85543,807.45556 1233.48496,807.45556 Z M1224.40543,800.687457 C1224.03496,800.687457 1223.7356,800.387457 1223.7356,800.017629 L1223.7356,798.034655 C1223.7356,797.664181 1224.03496,797.364828 1224.40543,797.364828 C1224.77591,797.364828 1225.07591,797.664181 1225.07591,798.034655 L1225.07591,800.017629 C1225.07591,800.387457 1224.77591,800.687457 1224.40543,800.687457 Z M1224.40543,809.011164 C1224.03496,809.011164 1223.7356,808.711164 1223.7356,808.341336 L1223.7356,804.348233 C1223.7356,803.978405 1224.03496,803.678405 1224.40543,803.678405 C1224.77591,803.678405 1225.07591,803.978405 1225.07591,804.348233 L1225.07591,808.341336 C1225.07591,808.711164 1224.77591,809.011164 1224.40543,809.011164 Z M1217.80802,800.687457 C1217.43819,800.687457 1217.13819,800.387457 1217.13819,800.017629 L1217.13819,798.034655 C1217.13819,797.664181 1217.43819,797.364828 1217.80802,797.364828 C1218.17849,797.364828 1218.47784,797.664181 1218.47784,798.034655 L1218.47784,800.017629 C1218.47784,800.387457 1218.17849,800.687457 1217.80802,800.687457 Z M1217.80802,809.011164 C1217.43819,809.011164 1217.13819,808.711164 1217.13819,808.341336 L1217.13819,804.348233 C1217.13819,803.978405 1217.43819,803.678405 1217.80802,803.678405 C1218.17849,803.678405 1218.47784,803.978405 1218.47784,804.348233 L1218.47784,808.341336 C1218.47784,808.711164 1218.17849,809.011164 1217.80802,809.011164 Z M1211.21125,800.687457 C1210.84142,800.687457 1210.54142,800.387457 1210.54142,800.017629 L1210.54142,798.034655 C1210.54142,797.664181 1210.84142,797.364828 1211.21125,797.364828 C1211.58108,797.364828 1211.88108,797.664181 1211.88108,798.034655 L1211.88108,800.017629 C1211.88108,800.387457 1211.58108,800.687457 1211.21125,800.687457 Z M1211.21125,809.011164 C1210.84142,809.011164 1210.54142,808.711164 1210.54142,808.341336 L1210.54142,804.348233 C1210.54142,803.978405 1210.84142,803.678405 1211.21125,803.678405 C1211.58108,803.678405 1211.88108,803.978405 1211.88108,804.348233 L1211.88108,808.341336 C1211.88108,808.711164 1211.58108,809.011164 1211.21125,809.011164 Z M1151.10716,839.949957 C1150.73733,839.949957 1150.43733,839.649957 1150.43733,839.280129 L1150.43733,806.925388 C1150.43733,806.554267 1150.73733,806.254914 1151.10716,806.254914 C1151.47763,806.254914 1151.77698,806.554267 1151.77698,806.925388 L1151.77698,839.280129 C1151.77698,839.649957 1151.47763,839.949957 1151.10716,839.949957 Z M1151.10716,800.445 C1150.73733,800.445 1150.43733,800.145 1150.43733,799.775172 L1150.43733,795.81375 C1150.43733,795.443922 1150.73733,795.143922 1151.10716,795.143922 C1151.47763,795.143922 1151.77698,795.443922 1151.77698,795.81375 L1151.77698,799.775172 C1151.77698,800.145 1151.47763,800.445 1151.10716,800.445 Z M1151.10716,789.516336 C1150.73733,789.516336 1150.43733,789.216336 1150.43733,788.846509 L1150.43733,774.955345 C1150.43733,774.585517 1150.73733,774.285517 1151.10716,774.285517 C1151.47763,774.285517 1151.77698,774.585517 1151.77698,774.955345 L1151.77698,788.846509 C1151.77698,789.216336 1151.47763,789.516336 1151.10716,789.516336 Z M1181.74401,742.206207 C1184.24746,742.572155 1186.76254,743.073233 1189.22009,743.694569 C1189.58927,743.788319 1189.81297,744.163319 1189.71987,744.533147 C1189.64034,744.846078 1189.35909,745.054267 1189.05134,745.054267 C1188.99509,745.054267 1188.93819,745.047802 1188.88129,745.032931 C1186.46966,744.423233 1184.00112,743.931207 1181.54358,743.572371 C1181.16664,743.516767 1180.90543,743.166336 1180.96103,742.789397 C1181.01599,742.412457 1181.36578,742.15319 1181.74401,742.206207 Z M1222.15155,763.726681 C1220.62698,762.23444 1219.01772,760.792629 1217.37159,759.440043 C1217.07612,759.198879 1217.03345,758.76375 1217.27526,758.468922 C1217.51707,758.174095 1217.9522,758.131422 1218.24703,758.373233 C1219.92483,759.751034 1221.56319,761.22 1223.11685,762.739397 C1223.38905,763.005776 1223.39422,763.443491 1223.12784,763.71569 C1222.99207,763.854052 1222.81362,763.923233 1222.63388,763.923233 C1222.45996,763.923233 1222.28603,763.857931 1222.15155,763.726681 Z M1103.60823,840.967629 L1108.83625,840.967629 L1108.83625,838.155776 C1108.83625,837.785948 1109.13625,837.485948 1109.50608,837.485948 C1109.87655,837.485948 1110.17655,837.785948 1110.17655,838.155776 L1110.17655,840.967629 L1115.40392,840.967629 L1115.40392,777.83444 C1115.40392,777.537672 1115.16405,777.297802 1114.86793,777.297802 L1104.14487,777.297802 C1103.84875,777.297802 1103.60823,777.537672 1103.60823,777.83444 L1103.60823,840.967629 Z M1105.97914,775.422155 C1105.97914,775.718276 1106.21901,775.958147 1106.51513,775.958147 L1109.52547,775.958147 C1109.82159,775.958147 1110.06147,775.718276 1110.06147,775.422155 L1110.06147,774.790474 C1110.06147,774.341121 1109.97806,773.902759 1109.81384,773.489612 C1109.66966,773.126897 1109.86427,772.714397 1110.24638,772.59931 C1110.59099,772.496509 1110.94983,772.710517 1111.07914,773.046078 C1111.29315,773.602759 1111.40177,774.189181 1111.40177,774.790474 L1111.40177,775.422155 C1111.40177,775.718276 1111.64164,775.958147 1111.93711,775.958147 L1112.49703,775.958147 C1112.79315,775.958147 1113.03302,775.718276 1113.03302,775.422155 L1113.03302,774.893276 C1113.03302,772.996293 1111.57828,771.36181 1109.68388,771.26806 C1107.65888,771.168491 1105.97914,772.787457 1105.97914,774.790474 L1105.97914,775.422155 Z M1116.74358,833.618922 L1116.74358,840.967629 L1139.30435,840.967629 L1139.46211,838.663966 L1139.8106,833.554914 C1139.83129,833.245216 1139.58625,832.982069 1139.27591,832.982069 L1124.45823,832.982069 C1124.06578,832.982069 1123.7522,832.644569 1123.79228,832.243707 C1123.8272,831.894569 1124.14659,831.642414 1124.49703,831.642414 L1139.44013,831.642414 C1139.72203,831.642414 1139.95608,831.423879 1139.97483,831.143276 L1140.3744,825.298448 C1140.39509,824.98875 1140.15004,824.725603 1139.8397,824.725603 L1117.27957,824.725603 C1116.98345,824.725603 1116.74358,824.966121 1116.74358,825.261595 L1116.74358,833.618922 Z M1127.38388,822.849957 C1127.38388,823.146078 1127.62375,823.385948 1127.91987,823.385948 L1140.00392,823.385948 C1140.28582,823.385948 1140.51987,823.16806 1140.53927,822.886164 L1140.74552,819.854483 C1140.76685,819.544138 1140.52181,819.281638 1140.21147,819.281638 L1134.74875,819.281638 C1134.35629,819.281638 1134.04272,818.944138 1134.0828,818.542629 C1134.11772,818.193491 1134.43711,817.941983 1134.78754,817.941983 L1140.37569,817.941983 C1140.65759,817.941983 1140.89099,817.723448 1140.91039,817.442198 L1141.11728,814.409871 C1141.13862,814.100172 1140.89293,813.837672 1140.58259,813.837672 L1127.91987,813.837672 C1127.62375,813.837672 1127.38388,814.077543 1127.38388,814.373017 L1127.38388,817.405991 C1127.38388,817.702112 1127.62375,817.941983 1127.91987,817.941983 L1130.03603,817.941983 C1130.42914,817.941983 1130.74272,818.279483 1130.70263,818.680345 C1130.66772,819.028836 1130.34832,819.281638 1129.99789,819.281638 L1127.91987,819.281638 C1127.62375,819.281638 1127.38388,819.521509 1127.38388,819.817629 L1127.38388,822.849957 Z M1132.57892,812.498017 L1140.74746,812.498017 C1141.02935,812.498017 1141.26276,812.279483 1141.28216,811.998233 L1141.50716,808.700819 C1141.52849,808.390474 1141.2828,808.127974 1140.97246,808.127974 L1136.91017,808.127974 C1134.60263,808.127974 1132.65651,809.68875 1132.06297,811.80944 C1131.96599,812.154698 1132.22073,812.498017 1132.57892,812.498017 Z M1140.64789,840.967629 L1161.56772,840.967629 L1156.42052,765.564181 C1156.40112,765.282931 1156.16707,765.065043 1155.88517,765.065043 L1146.32978,765.065043 C1146.04789,765.065043 1145.81448,765.282931 1145.79444,765.564181 L1140.64789,840.967629 Z M1155.80435,760.314828 L1146.40931,760.314828 C1146.11319,760.314828 1145.87332,760.554698 1145.87332,760.850172 L1145.87332,763.189397 C1145.87332,763.485517 1146.11319,763.725388 1146.40931,763.725388 L1155.80435,763.725388 C1156.10047,763.725388 1156.34034,763.485517 1156.34034,763.189397 L1156.34034,760.850172 C1156.34034,760.554698 1156.10047,760.314828 1155.80435,760.314828 Z M1144.55888,758.974526 L1145.20349,758.974526 L1157.01017,758.974526 L1157.65478,758.974526 C1157.83194,758.974526 1157.99746,758.887241 1158.09703,758.741121 L1160.22547,755.625388 C1160.46858,755.269784 1160.21384,754.787457 1159.78259,754.787457 L1149.95112,754.787457 C1149.55866,754.787457 1149.24444,754.44931 1149.28453,754.047802 C1149.32009,753.69931 1149.63884,753.447155 1149.98927,753.447155 L1161.43,753.447155 C1161.60716,753.447155 1161.77267,753.359224 1161.87289,753.213103 L1167.9744,744.280991 C1168.2175,743.924741 1167.96276,743.442414 1167.53216,743.442414 L1134.68151,743.442414 C1134.25091,743.442414 1133.99616,743.924741 1134.23927,744.280991 L1136.56491,747.685733 C1136.66448,747.831853 1136.83,747.919138 1137.00716,747.919138 L1145.93022,747.919138 C1146.32267,747.919138 1146.6369,748.257284 1146.59681,748.658793 C1146.56125,749.007284 1146.2425,749.25944 1145.89207,749.25944 L1138.65457,749.25944 C1138.22397,749.25944 1137.96922,749.741767 1138.21233,750.097371 L1144.11599,758.741121 C1144.21621,758.887241 1144.38172,758.974526 1144.55888,758.974526 Z M1133.72267,742.102759 L1167.43,742.102759 C1167.86966,742.102759 1168.12246,741.602974 1167.8619,741.24931 L1166.13948,738.910086 C1166.03862,738.773017 1165.87828,738.691552 1165.70823,738.691552 L1165.30284,738.691552 L1136.91017,738.691552 L1136.23388,738.691552 L1133.72267,742.102759 Z M1137.58065,736.816552 C1137.58065,737.112026 1137.82052,737.351897 1138.11599,737.351897 L1164.09703,737.351897 C1164.39315,737.351897 1164.63302,737.112026 1164.63302,736.816552 L1164.63302,734.477328 C1164.63302,734.181207 1164.39315,733.941336 1164.09703,733.941336 L1138.11599,733.941336 C1137.82052,733.941336 1137.58065,734.181207 1137.58065,734.477328 L1137.58065,736.816552 Z M1139.85392,732.601681 L1142.29078,732.601681 C1142.55004,732.601681 1142.7731,732.416121 1142.81642,732.160733 C1143.05953,730.729914 1143.76944,729.275172 1144.93453,727.821078 C1145.18022,727.513966 1145.64121,727.480345 1145.92957,727.764181 C1146.18108,728.011164 1146.17203,728.418491 1145.9522,728.694569 C1145.07547,729.795647 1144.50392,730.878621 1144.23819,731.929267 C1144.1522,732.27 1144.40694,732.601681 1144.75866,732.601681 L1155.92203,732.601681 C1156.28022,732.601681 1156.53754,732.256422 1156.43733,731.912457 C1155.76556,729.612026 1153.54013,727.530776 1151.61211,726.091552 C1151.33086,725.881422 1151.22289,725.490259 1151.40328,725.189612 C1151.61017,724.84306 1152.06405,724.757716 1152.38022,724.992414 C1155.59616,727.385302 1157.4356,729.79306 1157.87397,732.165905 C1157.92052,732.418707 1158.14099,732.601681 1158.39832,732.601681 L1162.36168,732.601681 C1162.71276,732.601681 1162.96621,732.269353 1162.88086,731.928621 C1161.64466,726.992198 1154.0244,722.841336 1151.58366,721.625172 C1151.28431,721.475819 1150.93129,721.475819 1150.63129,721.625172 C1148.19185,722.842629 1140.57159,726.996078 1139.33474,731.928621 C1139.24875,732.269353 1139.50284,732.601681 1139.85392,732.601681 Z M1160.09034,799.651034 L1160.58108,806.844569 C1160.60047,807.125819 1160.83388,807.343707 1161.11578,807.343707 L1171.7897,807.343707 C1172.08517,807.343707 1172.32504,807.103836 1172.32504,806.808362 L1172.32504,804.417414 C1172.32504,804.121293 1172.08517,803.881422 1171.7897,803.881422 L1167.73388,803.881422 C1167.34078,803.881422 1167.02655,803.543276 1167.06664,803.141767 C1167.1022,802.793276 1167.42095,802.541121 1167.77138,802.541121 L1171.7897,802.541121 C1172.08517,802.541121 1172.32504,802.30125 1172.32504,802.005129 L1172.32504,799.614181 C1172.32504,799.31806 1172.08517,799.07819 1171.7897,799.07819 L1160.6244,799.07819 C1160.31405,799.07819 1160.06901,799.341336 1160.09034,799.651034 Z M1161.28065,808.684009 C1160.9703,808.684009 1160.72461,808.947155 1160.74595,809.256207 L1161.2147,816.125819 C1161.23409,816.407069 1161.4675,816.625603 1161.7494,816.625603 L1168.03388,816.625603 C1168.42634,816.625603 1168.74056,816.963103 1168.70047,817.363966 C1168.66556,817.712457 1168.34616,817.965259 1167.99573,817.965259 L1161.91427,817.965259 C1161.60392,817.965259 1161.35823,818.227759 1161.37957,818.537457 L1161.79466,824.620862 C1161.81405,824.901466 1162.04746,825.12 1162.32935,825.12 L1173.98474,825.12 C1174.3772,825.12 1174.69078,825.458147 1174.65069,825.859655 C1174.61578,826.208147 1174.29638,826.460302 1173.94595,826.460302 L1162.49422,826.460302 C1162.18388,826.460302 1161.93819,826.722802 1161.95953,827.0325 L1162.37461,833.115259 C1162.39401,833.397155 1162.62741,833.615043 1162.90931,833.615043 L1170.38151,833.615043 C1170.77461,833.615043 1171.08819,833.952543 1171.0481,834.354052 C1171.01319,834.70319 1170.69379,834.954698 1170.34336,834.954698 L1163.07418,834.954698 C1162.76384,834.954698 1162.51815,835.217845 1162.53948,835.527543 L1162.9106,840.967629 L1183.5453,840.967629 L1183.5453,826.996293 C1183.5453,826.700172 1183.30543,826.460302 1183.00931,826.460302 L1179.79013,826.460302 C1179.39703,826.460302 1179.08345,826.122155 1179.12353,825.721293 C1179.15845,825.372155 1179.47784,825.12 1179.82828,825.12 L1183.00931,825.12 C1183.30543,825.12 1183.5453,824.880129 1183.5453,824.584009 L1183.5453,809.219353 C1183.5453,808.923879 1183.30543,808.684009 1183.00931,808.684009 L1161.28065,808.684009 Z M1177.9869,806.808362 C1177.9869,807.103836 1178.22741,807.343707 1178.52353,807.343707 L1184.21513,807.343707 C1184.5856,807.343707 1184.88496,807.643707 1184.88496,808.013534 L1184.88496,840.967629 L1188.38022,840.967629 L1188.38022,819.330776 C1188.38022,818.938319 1188.71836,818.624095 1189.11922,818.664828 C1189.46772,818.699741 1189.71987,819.019138 1189.71987,819.369569 L1189.71987,840.967629 L1191.37634,840.967629 L1197.25414,831.156207 C1197.37892,830.948017 1197.44422,830.710086 1197.44422,830.467629 L1197.44422,799.445431 C1197.44422,799.052974 1197.78237,798.739397 1198.18388,798.778836 C1198.53237,798.814397 1198.78388,799.133147 1198.78388,799.483578 L1198.78388,800.802543 L1201.71211,797.874957 L1201.71341,797.873664 L1205.58884,793.998233 L1205.58884,792.387026 C1205.58884,791.994569 1205.92634,791.680991 1206.3272,791.721078 C1206.67634,791.755345 1206.92849,792.074741 1206.92849,792.425172 L1206.92849,793.605776 L1213.24013,793.605776 L1213.24013,767.333147 C1193.74013,767.691336 1177.9869,783.66569 1177.9869,803.249095 L1177.9869,806.808362 Z M1183.48776,780.133578 C1183.48776,780.647586 1184.1356,780.863534 1184.45112,780.4575 C1185.34207,779.307931 1186.30026,778.211379 1187.31793,777.17431 C1187.56491,776.922802 1187.70651,776.586595 1187.70651,776.233578 L1187.70651,772.016121 C1187.70651,771.623664 1188.04401,771.30944 1188.44487,771.349526 C1188.79336,771.38444 1189.04616,771.703836 1189.04616,772.054267 L1189.04616,774.929483 C1189.04616,775.160302 1189.31578,775.281207 1189.4897,775.129914 C1191.68668,773.218707 1194.10996,771.560948 1196.71168,770.20125 C1197.15909,769.967845 1197.44422,769.511379 1197.44422,769.007716 L1197.44422,765.555776 C1197.44422,765.163319 1197.78237,764.849095 1198.18388,764.889828 C1198.53237,764.924741 1198.78388,765.243491 1198.78388,765.593922 L1198.78388,768.3825 C1198.78388,768.763966 1199.17181,769.025819 1199.52289,768.878405 C1201.89444,767.882716 1204.38948,767.125603 1206.97828,766.63681 C1207.48129,766.541767 1207.84207,766.097586 1207.84207,765.585517 L1207.84207,762.117414 C1207.84207,761.821293 1207.6022,761.581422 1207.30672,761.581422 L1203.45522,761.581422 L1187.87461,761.581422 L1183.48776,761.581422 L1183.48776,780.133578 Z M1188.54509,759.705776 C1188.54509,760.001897 1188.78496,760.241767 1189.08108,760.241767 L1191.57677,760.241767 C1191.87224,760.241767 1192.11211,760.001897 1192.11211,759.705776 L1192.11211,757.522371 C1192.11211,757.129914 1192.45091,756.81569 1192.85177,756.855776 C1193.20026,756.89069 1193.45241,757.210086 1193.45241,757.560517 L1193.45241,759.705776 C1193.45241,760.001897 1193.69228,760.241767 1193.98841,760.241767 L1197.34207,760.241767 C1197.63819,760.241767 1197.87806,760.001897 1197.87806,759.705776 L1197.87806,757.522371 C1197.87806,757.129914 1198.21621,756.81569 1198.61707,756.855776 C1198.96621,756.89069 1199.21772,757.210086 1199.21772,757.560517 L1199.21772,759.705776 C1199.21772,760.001897 1199.45759,760.241767 1199.75371,760.241767 L1202.2494,760.241767 C1202.54552,760.241767 1202.78539,760.001897 1202.78539,759.705776 L1202.78539,755.199957 C1202.78539,754.903836 1202.54552,754.663966 1202.2494,754.663966 L1189.08108,754.663966 C1188.78496,754.663966 1188.54509,754.903836 1188.54509,755.199957 L1188.54509,759.705776 Z M1191.04983,753.323664 L1197.02526,753.323664 C1197.38022,753.323664 1197.63172,752.986164 1197.5425,752.643491 C1197.41513,752.157284 1197.22052,751.690474 1196.95996,751.257931 C1196.75888,750.923017 1196.88366,750.483362 1197.24379,750.308793 C1197.56642,750.152328 1197.95306,750.304914 1198.13603,750.613966 C1198.54853,751.313534 1198.82591,752.082284 1198.96039,752.879483 C1199.00306,753.13681 1199.22547,753.323664 1199.48603,753.323664 L1200.28129,753.323664 C1200.63302,753.323664 1200.8897,752.99069 1200.80112,752.650603 C1200.205,750.369569 1198.13086,748.681422 1195.66491,748.681422 C1193.20026,748.681422 1191.12612,750.369569 1190.52935,752.650603 C1190.44013,752.99069 1190.6981,753.323664 1191.04983,753.323664 Z M1201.51621,803.503836 L1201.51621,800.61181 C1201.51621,800.373233 1201.22784,800.252974 1201.05909,800.422371 L1199.01987,802.460948 C1198.86858,802.612241 1198.78388,802.816552 1198.78388,803.029914 L1198.78388,826.663966 C1198.78388,827.208362 1199.50091,827.40556 1199.78022,826.940043 L1201.40177,824.231638 C1201.47741,824.1075 1201.51621,823.963966 1201.51621,823.819138 L1201.51621,816.259655 C1201.51621,815.909224 1201.76901,815.590474 1202.1175,815.554914 C1202.51836,815.515474 1202.85651,815.829052 1202.85651,816.222155 L1202.85651,820.758362 C1202.85651,821.051897 1203.24315,821.158578 1203.39379,820.907069 L1203.39767,820.900603 C1204.83172,818.507716 1205.58884,815.770862 1205.58884,812.982284 L1205.58884,796.539828 C1205.58884,796.30125 1205.29983,796.180991 1205.13108,796.350388 L1203.09185,798.388966 C1202.94121,798.540259 1202.85651,798.744569 1202.85651,798.957931 L1202.85651,803.541983 C1202.85651,803.935086 1202.51836,804.248664 1202.1175,804.207931 C1201.76901,804.173664 1201.51621,803.854267 1201.51621,803.503836 Z M1214.57978,840.967629 L1224.52569,840.967629 L1224.52569,830.880776 C1224.52569,827.141121 1221.64659,823.947802 1217.91147,823.758362 C1216.99853,823.712457 1216.12246,823.843707 1215.31168,824.119138 C1214.87461,824.268491 1214.57978,824.677112 1214.57978,825.138103 L1214.57978,840.967629 Z M1217.55263,822.409655 C1219.84207,822.409655 1221.91815,823.339397 1223.42267,824.841983 C1222.29056,822.165905 1220.33797,819.891336 1217.78927,818.432069 C1217.76276,818.416552 1217.7369,818.401681 1217.71039,818.386164 C1215.13194,819.840259 1213.13086,822.034655 1211.91341,824.622155 C1213.39659,823.250172 1215.37828,822.409655 1217.55263,822.409655 Z M1210.57957,830.722371 L1210.57957,840.967629 L1213.24013,840.967629 L1213.24013,826.497802 C1213.24013,826.006422 1212.62784,825.768491 1212.30457,826.138319 C1211.23065,827.364828 1210.57957,828.968276 1210.57957,830.722371 Z M1207.46384,794.945431 C1207.16836,794.945431 1206.92849,795.185302 1206.92849,795.481422 L1206.92849,800.368707 L1206.92849,812.981638 C1206.92849,816.012672 1206.10543,818.989397 1204.54789,821.589181 L1192.93841,840.967629 L1209.23927,840.967629 L1209.23927,830.597586 C1209.23927,824.900819 1212.3647,819.702543 1217.39616,817.030991 C1217.59272,816.926897 1217.82806,816.926897 1218.02461,817.030991 C1218.17009,817.108578 1218.31362,817.188103 1218.45457,817.268922 C1223.02634,819.88681 1225.86534,824.871724 1225.86534,830.279483 L1225.86534,840.967629 L1243.07914,840.967629 L1231.21879,821.65125 C1229.59918,819.013319 1228.7425,815.982284 1228.7425,812.886595 L1228.7425,795.481422 C1228.7425,795.185302 1228.50263,794.945431 1228.20651,794.945431 L1207.46384,794.945431 Z M1230.0828,812.886595 C1230.0828,815.733362 1230.8703,818.523879 1232.3606,820.949741 L1232.36319,820.954914 C1232.49185,821.164397 1232.81513,821.072586 1232.81513,820.827543 L1232.81513,811.503621 C1232.81513,811.110517 1233.15328,810.79694 1233.55414,810.837026 C1233.90263,810.87194 1234.15543,811.19069 1234.15543,811.541121 L1234.15543,823.652974 C1234.15543,823.795862 1234.19487,823.93681 1234.26987,824.059655 L1236.43517,827.585948 C1236.56384,827.795431 1236.88711,827.704267 1236.88711,827.457931 L1236.88711,807.930776 L1236.88711,802.918707 C1236.88711,802.777112 1236.83022,802.64069 1236.73,802.539828 L1230.49918,796.309009 C1230.3453,796.155129 1230.0828,796.26375 1230.0828,796.481638 L1230.0828,800.368707 L1230.0828,800.373879 L1230.0828,812.886595 Z M1245.61815,816.221509 L1245.61815,841.6575 C1245.61815,842.038319 1245.30909,842.348017 1244.92828,842.348017 L1096.69013,842.348017 C1096.30866,842.348017 1096.00026,842.038319 1096.00026,841.6575 L1096.00026,816.221509 C1096.00026,810.140043 1096.73151,804.090905 1098.17461,798.241552 C1098.26642,797.871724 1098.64078,797.646724 1099.0106,797.737241 C1099.38043,797.827759 1099.60608,798.201466 1099.51491,798.572586 C1098.09832,804.313966 1097.38065,810.25125 1097.38065,816.221509 L1097.38065,840.967629 L1102.26858,840.967629 L1102.26858,776.627974 C1102.26858,776.258147 1102.56858,775.958147 1102.93841,775.958147 L1104.10349,775.958147 C1104.39961,775.958147 1104.63948,775.718276 1104.63948,775.422155 L1104.63948,774.790474 C1104.63948,772.335517 1106.46922,770.304052 1108.83625,769.975603 L1108.83625,759.156853 C1108.83625,758.764397 1109.1744,758.450819 1109.57526,758.490905 C1109.92375,758.525819 1110.17655,758.844569 1110.17655,759.195 L1110.17655,769.975603 C1112.54293,770.304052 1114.37332,772.335517 1114.37332,774.790474 L1114.37332,775.422155 C1114.37332,775.718276 1114.61319,775.958147 1114.90866,775.958147 L1116.07375,775.958147 C1116.44358,775.958147 1116.74358,776.258147 1116.74358,776.627974 L1116.74358,822.849957 C1116.74358,823.146078 1116.98345,823.385948 1117.27957,823.385948 L1125.50823,823.385948 C1125.80435,823.385948 1126.04422,823.146078 1126.04422,822.849957 L1126.04422,813.167845 C1126.04422,812.798017 1126.34358,812.498017 1126.71405,812.498017 L1130.10328,812.498017 C1130.36125,812.498017 1130.58366,812.31375 1130.62828,812.059655 C1131.15392,809.06806 1133.77052,806.788319 1136.91017,806.788319 L1137.49272,806.788319 C1137.78884,806.788319 1138.02871,806.548448 1138.02871,806.252328 L1138.02871,788.846509 C1138.02871,788.454052 1138.36621,788.139828 1138.76707,788.179914 C1139.11621,788.215474 1139.36836,788.534871 1139.36836,788.885302 L1139.36836,806.252328 C1139.36836,806.548448 1139.60823,806.788319 1139.90435,806.788319 L1141.13733,806.788319 C1141.41922,806.788319 1141.65263,806.569784 1141.67203,806.288534 L1144.44703,765.637241 C1144.46836,765.32819 1144.22267,765.065043 1143.91233,765.065043 L1142.85909,765.065043 C1142.46664,765.065043 1142.15241,764.727543 1142.1925,764.326034 C1142.22741,763.977543 1142.54746,763.725388 1142.89789,763.725388 L1143.99767,763.725388 C1144.29379,763.725388 1144.53366,763.485517 1144.53366,763.189397 L1144.53366,760.850172 C1144.53366,760.554698 1144.29379,760.314828 1143.99767,760.314828 L1143.92203,760.314828 L1140.44616,760.314828 C1140.05371,760.314828 1139.74013,759.976681 1139.78022,759.575819 C1139.81513,759.226681 1140.13453,758.974526 1140.4856,758.974526 L1141.63776,758.974526 C1142.06901,758.974526 1142.32375,758.492198 1142.08065,758.136595 L1135.81556,748.964612 C1135.81556,748.963966 1135.81491,748.963319 1135.81427,748.963319 L1132.20328,743.675819 C1132.10371,743.529698 1131.93819,743.442414 1131.76103,743.442414 L1127.73043,743.442414 C1127.33797,743.442414 1127.02375,743.104914 1127.06384,742.703405 C1127.09875,742.354914 1127.41879,742.102759 1127.76922,742.102759 L1132.05909,742.102759 L1134.5703,738.691552 L1132.09724,738.691552 C1131.70414,738.691552 1131.39056,738.354052 1131.43065,737.95319 C1131.46556,737.604052 1131.78496,737.351897 1132.13539,737.351897 L1135.705,737.351897 C1136.00047,737.351897 1136.24034,737.112026 1136.24034,736.816552 L1136.24034,734.477328 C1136.24034,734.181207 1136.00047,733.941336 1135.705,733.941336 L1134.89616,733.941336 C1134.50306,733.941336 1134.18948,733.60319 1134.22957,733.202328 C1134.26448,732.853836 1134.58388,732.601681 1134.93496,732.601681 L1136.91017,732.601681 L1137.38927,732.601681 C1137.64853,732.601681 1137.87159,732.415474 1137.91491,732.160086 C1138.91772,726.263534 1147.57828,721.623233 1150.13927,720.370216 C1150.32289,720.280345 1150.43797,720.094138 1150.43797,719.889828 L1150.43733,717.81569 C1150.43733,717.519569 1150.19746,717.279698 1149.90198,717.279698 L1149.1022,717.279698 C1148.70909,717.279698 1148.39487,716.941552 1148.4356,716.54069 C1148.47052,716.192198 1148.78991,715.940043 1149.14034,715.940043 L1149.90198,715.940043 C1150.19746,715.940043 1150.43733,715.699526 1150.43733,715.403405 L1150.43733,713.845216 C1150.43733,713.549095 1150.19746,713.309224 1149.90198,713.309224 L1149.1022,713.309224 C1148.70909,713.309224 1148.39487,712.971724 1148.4356,712.570216 C1148.47052,712.221724 1148.78991,711.969569 1149.14034,711.969569 L1149.90198,711.969569 C1150.19746,711.969569 1150.43733,711.729698 1150.43733,711.433578 L1150.43733,690.670216 C1150.43733,690.277112 1150.77547,689.963534 1151.17634,690.003621 C1151.52547,690.038534 1151.77698,690.357931 1151.77698,690.708362 L1151.77698,711.433578 C1151.77698,711.729698 1152.0175,711.969569 1152.31297,711.969569 L1153.11341,711.969569 C1153.50586,711.969569 1153.82009,712.307069 1153.78,712.708578 C1153.74444,713.057069 1153.42504,713.309224 1153.07461,713.309224 L1152.31297,713.309224 C1152.0175,713.309224 1151.77698,713.549095 1151.77698,713.845216 L1151.77698,715.403405 C1151.77698,715.699526 1152.0175,715.940043 1152.31297,715.940043 L1153.11341,715.940043 C1153.50586,715.940043 1153.82009,716.277543 1153.78,716.678405 C1153.74444,717.027543 1153.42504,717.279698 1153.07461,717.279698 L1152.31297,717.279698 C1152.0175,717.279698 1151.77698,717.519569 1151.77698,717.81569 L1151.77698,719.889828 C1151.77698,720.094138 1151.89207,720.280345 1152.07569,720.370216 C1154.63668,721.623233 1163.29724,726.263534 1164.30069,732.160086 C1164.34336,732.415474 1164.56642,732.601681 1164.82634,732.601681 L1165.30284,732.601681 L1167.31879,732.601681 C1167.7119,732.601681 1168.02547,732.939181 1167.98539,733.34069 C1167.95047,733.689181 1167.63108,733.941336 1167.28065,733.941336 L1166.50866,733.941336 C1166.21319,733.941336 1165.97267,734.181207 1165.97267,734.477328 L1165.97267,736.816552 C1165.97267,737.112026 1166.21319,737.351897 1166.50866,737.351897 L1170.11836,737.351897 C1170.51082,737.351897 1170.8244,737.690043 1170.78431,738.090905 C1170.7494,738.440043 1170.43,738.691552 1170.07957,738.691552 L1168.70306,738.691552 C1168.26341,738.691552 1168.01125,739.191983 1168.27181,739.545647 L1169.99358,741.884224 C1170.09444,742.021293 1170.25478,742.102759 1170.42547,742.102759 L1174.48453,742.102759 C1174.87763,742.102759 1175.19121,742.440259 1175.15112,742.841121 C1175.11621,743.190259 1174.79681,743.442414 1174.44573,743.442414 L1170.45263,743.442414 C1170.27547,743.442414 1170.10996,743.529698 1170.00974,743.675819 L1162.62353,754.49069 C1162.62224,754.491336 1162.62224,754.491983 1162.62159,754.492629 L1160.13302,758.136595 C1159.88991,758.492198 1160.14466,758.974526 1160.57526,758.974526 L1161.76879,758.974526 C1162.16125,758.974526 1162.47547,759.312672 1162.43474,759.713534 C1162.40047,760.062672 1162.08043,760.314828 1161.73,760.314828 L1158.29164,760.314828 L1158.21599,760.314828 C1157.91987,760.314828 1157.68,760.554698 1157.68,760.850172 L1157.68,763.189397 C1157.68,763.485517 1157.91987,763.725388 1158.21599,763.725388 L1159.35651,763.725388 C1159.74897,763.725388 1160.06254,764.062888 1160.02246,764.464397 C1159.98754,764.812888 1159.66815,765.065043 1159.31707,765.065043 L1158.30263,765.065043 C1157.99228,765.065043 1157.74724,765.32819 1157.76858,765.637241 L1159.92547,797.23875 C1159.94487,797.520647 1160.17828,797.738534 1160.46017,797.738534 L1163.74789,797.738534 L1166.15953,797.738534 L1172.99487,797.738534 C1173.36534,797.738534 1173.6647,798.038534 1173.6647,798.408362 L1173.6647,806.808362 C1173.6647,807.103836 1173.90522,807.343707 1174.20134,807.343707 L1176.1119,807.343707 C1176.40737,807.343707 1176.64724,807.103836 1176.64724,806.808362 L1176.64724,803.249095 C1176.64724,796.279267 1178.57267,789.751034 1181.91728,784.165474 C1182.06664,783.915259 1182.1481,783.630776 1182.1481,783.339828 L1182.1481,761.581422 L1180.11858,761.581422 C1179.72612,761.581422 1179.41254,761.243922 1179.45263,760.842414 C1179.48754,760.493922 1179.80694,760.241767 1180.15737,760.241767 L1182.81793,760.241767 L1186.66879,760.241767 C1186.96491,760.241767 1187.20478,760.001897 1187.20478,759.705776 L1187.20478,755.199957 C1187.20478,754.903836 1186.96491,754.663966 1186.66879,754.663966 L1185.33625,754.663966 C1184.94315,754.663966 1184.62957,754.325819 1184.66966,753.924957 C1184.70457,753.575819 1185.02397,753.323664 1185.3744,753.323664 L1187.87461,753.323664 L1188.58,753.323664 C1188.83991,753.323664 1189.06233,753.137457 1189.10629,752.881422 C1189.57569,750.102543 1191.77397,747.904267 1194.55284,747.434224 C1194.80888,747.391552 1194.99509,747.168491 1194.99509,746.908578 L1194.99509,733.271509 C1194.99509,732.878405 1195.33323,732.564828 1195.73474,732.604914 C1196.08323,732.639828 1196.33474,732.959224 1196.33474,733.309655 L1196.33474,746.908578 C1196.33474,747.168491 1196.52159,747.391552 1196.77828,747.434224 C1199.55651,747.904267 1201.75478,750.102543 1202.22483,752.881422 C1202.26815,753.137457 1202.49056,753.323664 1202.75047,753.323664 L1203.45522,753.323664 L1205.99422,753.323664 C1206.38668,753.323664 1206.70091,753.66181 1206.66017,754.062672 C1206.62526,754.411164 1206.30586,754.663966 1205.95543,754.663966 L1204.66103,754.663966 C1204.36491,754.663966 1204.12504,754.903836 1204.12504,755.199957 L1204.12504,759.705776 C1204.12504,760.001897 1204.36491,760.241767 1204.66103,760.241767 L1208.5119,760.241767 L1211.21125,760.241767 C1211.60435,760.241767 1211.91793,760.579267 1211.87784,760.980776 C1211.84293,761.329267 1211.52353,761.581422 1211.1731,761.581422 L1209.71836,761.581422 C1209.42224,761.581422 1209.18237,761.821293 1209.18237,762.117414 L1209.18237,765.683793 C1209.18237,766.004483 1209.46103,766.250172 1209.77978,766.214612 C1211.13819,766.063966 1212.51793,765.987026 1213.91578,765.987026 C1214.28302,765.987672 1214.57978,766.289612 1214.57978,766.656853 L1214.57978,793.605776 L1228.20716,793.605776 C1228.50263,793.605776 1228.7425,793.365259 1228.7425,793.069784 L1228.7425,792.387026 C1228.7425,791.994569 1229.08129,791.680991 1229.48216,791.721078 C1229.83065,791.755991 1230.0828,792.074741 1230.0828,792.425819 L1230.0828,793.554052 C1230.0828,793.838534 1230.1953,794.110733 1230.39703,794.31181 L1236.42935,800.344784 C1236.59875,800.513534 1236.88711,800.393922 1236.88711,800.155345 L1236.88711,799.445431 C1236.88711,799.052974 1237.22526,798.739397 1237.62612,798.778836 C1237.97461,798.814397 1238.22677,799.133793 1238.22677,799.484224 L1238.22677,802.419569 L1238.22677,807.930776 L1238.22677,830.434655 C1238.22677,830.479914 1238.23905,830.524526 1238.26297,830.562026 L1244.23776,840.292629 L1244.23776,816.221509 C1244.23776,799.90319 1238.99875,784.454483 1229.08647,771.544138 C1228.85435,771.242198 1228.91125,770.808362 1229.21384,770.576897 C1229.51642,770.344784 1229.94961,770.401681 1230.18172,770.704267 C1240.28022,783.856422 1245.61815,799.596724 1245.61815,816.221509 Z M1116.47009,765.809224 C1116.19272,765.547371 1116.18043,765.110302 1116.44293,764.833578 C1121.24034,759.760086 1126.71082,755.385517 1132.70241,751.831422 C1133.03086,751.637457 1133.45435,751.746078 1133.64832,752.073233 C1133.84293,752.401034 1133.73496,752.824526 1133.40651,753.019138 C1127.52547,756.507284 1122.15522,760.801681 1117.44573,765.782069 C1117.30996,765.925603 1117.12698,765.998017 1116.94401,765.998017 C1116.77397,765.998017 1116.60328,765.935948 1116.47009,765.809224 Z" transform="translate(-1096 -690)"/>
</svg>
