<svg xmlns="http://www.w3.org/2000/svg" width="200" height="200" viewBox="0 0 200 200">
  <path fill="#FF1773" fill-opacity=".05" fill-rule="evenodd" d="M418,670 C362.794,670 318,714.794 318,770 C318,825.206 362.794,870 418,870 C473.0976,870 518,825.206 518,770 C518,714.794 473.0976,670 418,670 Z M484.052,716.0954 C495.9826,730.629 503.141,749.1758 503.358,769.2408 C500.538,768.6984 472.3384,762.9502 443.922,766.5292 C443.2712,765.1194 442.7288,763.6008 442.0782,762.0824 C440.3428,757.961 438.3904,753.731 436.4382,749.718 C467.8916,736.9198 482.2082,718.4816 484.052,716.0954 Z M418,684.75054 C439.692,684.75054 459.5402,692.885 474.616,706.2256 C473.0976,708.3948 460.1908,725.64 429.8222,737.0282 C415.8308,711.3232 400.321,690.282 397.935,687.0282 C404.334,685.50976 411.0586,684.75054 418,684.75054 Z M381.666,692.7766 C383.9436,695.8134 399.128,716.9632 413.3362,742.1258 C373.423,752.7548 338.1736,752.538 334.37744,752.538333 C339.9088,726.0738 357.8048,704.0564 381.666,692.7766 Z M332.53362,770.1084 C332.53362,769.2408 332.53362,768.3732 332.53362,767.5054 C336.22126,767.6138 377.653,768.1562 420.2776,755.358 C422.7722,760.1302 425.0498,765.0108 427.219,769.8916 C426.1344,770.217 424.9414,770.5424 423.8568,770.8676 C379.8222,785.076 356.3948,823.9046 354.4426,827.1584 C340.885,812.0824 332.53362,792.0174 332.53362,770.1084 Z M418,855.4664 C398.2604,855.4664 380.039,848.7418 365.6138,837.462 C367.1324,834.3168 384.486,800.911 432.642,784.0998 C432.859,783.9914 432.9674,783.9914 433.1844,783.8828 C445.2234,815.0108 450.1042,841.1496 451.4056,848.6334 C441.102,853.0802 429.8222,855.4664 418,855.4664 Z M465.614,840.8244 C464.7462,835.6182 460.191,810.6724 449.0196,779.9784 C475.8092,775.7484 499.2364,782.6898 502.1648,783.666 C498.4772,807.4186 484.8112,827.9176 465.614,840.8244 Z" transform="translate(-318 -670)"/>
</svg>
