<svg xmlns="http://www.w3.org/2000/svg" width="19" height="16" viewBox="0 0 19 16">
  <path fill="#FFF" fill-rule="evenodd" d="M589.192091,42.339445 L589.233127,43.0161113 L588.549192,42.9332542 C586.059667,42.6156353 583.884753,41.538493 582.038127,39.7294462 L581.135333,38.8318276 L580.902795,39.4946844 C580.410361,40.9723028 580.724971,42.5327782 581.750874,43.5823015 C582.298023,44.1623012 582.174914,44.2451583 581.231084,43.8999204 C580.902795,43.7894443 580.615542,43.7065872 580.588184,43.7480157 C580.492433,43.8446823 580.820722,45.1013484 581.080618,45.598491 C581.436264,46.2889669 582.161236,46.9656332 582.954601,47.3661092 L583.624857,47.6837281 L582.831492,47.6975376 C582.065485,47.6975376 582.038127,47.7113471 582.1202,48.001347 C582.393774,48.8989656 583.474392,49.8518223 584.678118,50.2661078 L585.526198,50.5561077 L584.787547,50.9980122 C583.693251,51.63325 582.407452,51.9922974 581.121654,52.0199165 C580.506112,52.033726 580,52.0889641 580,52.1303926 C580,52.2684878 581.668802,53.0418207 582.63999,53.3456301 C585.553555,54.2432487 589.014268,53.8565823 591.613222,52.3237259 C593.459848,51.232774 595.306473,49.0646798 596.168232,46.9656332 C596.633308,45.8470623 597.098384,43.8032538 597.098384,42.8227781 C597.098384,42.1875403 597.13942,42.1046832 597.905427,41.3451597 C598.356825,40.9032552 598.780865,40.4199221 598.862937,40.2818269 C598.999724,40.0194461 598.986045,40.0194461 598.288431,40.2542079 C597.125741,40.6684934 596.961597,40.6132553 597.536102,39.991827 C597.960142,39.5499225 598.466254,38.7489705 598.466254,38.5142087 C598.466254,38.4727802 598.261074,38.5418277 598.028536,38.6661134 C597.782319,38.8042086 597.235171,39.0113513 596.824809,39.135637 L596.086159,39.3703988 L595.415903,38.9146847 C595.046578,38.6661134 594.526787,38.389923 594.253213,38.3070659 C593.555599,38.1137327 592.488659,38.1413517 591.859439,38.362304 C590.149601,38.9837323 589.068983,40.5856363 589.192091,42.339445 Z" transform="translate(-580 -38)"/>
</svg>
