<svg xmlns="http://www.w3.org/2000/svg" width="509" height="245" viewBox="0 0 509 245">
  <g fill="#FFF" fill-rule="evenodd" transform="translate(0 -1)">
    <path d="M296.326829,50.552062 C295.398293,49.881557 294.662195,49.785781 294.054146,51.062916 C283.620732,73.57305 266.050244,62.334043 267.810732,63.32385 C271.715122,61.535788 281.956829,53.361832 280.420244,42.026903 C279.492439,35.098181 273.539268,32.032984 267.202683,33.150468 C256.16122,35.06628 252.12878,46.944037 254.176829,57.44881 C254.52878,59.268846 255.169024,60.737606 255.841463,62.206366 C243.391463,72.327962 238.43122,53.17028 237.854634,50.871364 C237.823171,50.743614 247.488293,42.729309 250.176585,23.603601 C252.992927,3.5837963 246.591951,-0.08809494 240.031463,0.03962294 C227.901951,0.26312923 224.637073,25.51934 229.021463,46.56086 C228.669512,46.656636 226.94122,47.614542 224.189268,47.710318 C222.204878,41.484075 213.723659,36.024186 211.515366,38.131477 C205.978537,43.399887 212.859512,53.681134 217.724634,54.479389 C214.811707,72.391837 196.569512,67.953656 199.961707,45.507178 C205.882683,34.523452 210.427317,18.143639 209.595366,8.277397 C209.307073,4.7971147 206.714634,0.10348188 200.858049,0.32698817 C189.592683,0.7740044 188.376585,26.030194 189.688537,43.974616 C189.624878,43.527564 188.984634,46.145782 184.37561,47.454891 C183.287561,41.420273 173.526585,35.321707 171.222439,38.259227 C166.933902,43.719189 174.390732,53.457681 177.910976,54.128186 C174.99878,72.040634 156.756585,67.60238 160.14878,45.155975 C166.101951,34.172249 170.61439,17.824337 169.813902,7.958168 C169.526341,4.47782 166.933902,-0.21581282 161.076585,0.00769347001 C149.81122,0.45470605 148.595122,25.710892 149.907805,43.655314 C149.843415,43.208262 149.203171,45.922329 144.402439,47.199464 C144.242927,39.34481 134.449756,35.768686 132.08122,38.259227 C127.888537,42.729309 133.04122,51.893072 137.809756,54.128186 C134.897561,72.040634 116.655366,67.60238 120.047561,45.155975 C125.968537,34.172249 130.513171,17.792436 129.68122,7.926194 C129.425122,4.47782 126.832683,-0.21581282 120.975366,0.00769347001 C109.71,0.45470605 108.81439,26.9881 110.126341,44.932449 C106.413659,60.801408 93.9643902,80.59784 95.5960976,40.909346 C95.7563415,38.131477 95.9165854,37.077795 94.5402439,36.024186 C93.4843902,35.225931 91.1158537,35.609035 89.8353659,35.641009 C88.2673171,35.704884 87.8517073,36.630816 87.5312195,38.0038 C86.7314634,41.579851 86.5712195,45.060199 86.4431707,49.817682 C86.3795122,52.052723 86.1870732,53.074504 85.3229268,56.1078 C84.4587805,59.141096 79.5943902,64.664933 76.9060976,63.738928 C73.1934146,62.461793 74.4095122,52.020822 75.1134146,44.836673 C75.69,39.153258 73.8336585,36.630816 69.0969512,35.704884 C66.3125854,35.130155 64.6164146,35.225931 61.7360488,34.299926 C58.9836585,33.437869 58.3756098,28.265308 52.5508537,29.989495 C49.350439,30.947401 51.3987073,37.684498 50.630561,42.697408 C46.8540732,67.315052 39.0130976,67.985557 35.3645854,56.043925 C51.7507317,15.940499 40.0692439,0.13541135 33.2522927,0.13541135 C26.1474146,0.13541135 18.0183659,5.0206188 21.4427561,36.311514 C19.778561,35.832561 19.2665122,35.577134 17.4102439,35.577134 C7.07291707,35.545233 0,43.910741 0,54.223962 C0,64.537183 7.07291707,72.902691 17.4422927,72.902691 C23.5550488,72.902691 27.8435854,70.124822 31.1080244,65.846292 C33.2203171,68.879588 35.8126829,72.966566 40.5492439,72.775014 C54.6310976,72.232186 58.7276341,43.399887 59.2077073,41.771476 C60.711878,41.995002 62.1520976,42.441981 63.5282927,42.665507 C65.8325854,43.01671 66.0245854,43.942642 65.960561,46.241558 C65.3525122,65.846292 68.9689756,72.711139 77.1943902,72.711139 C81.7704878,72.711139 85.8673171,68.209083 88.6836585,65.016136 C90.7960976,69.358541 94.1239024,72.583389 98.6370732,72.711139 C109.518293,72.966566 113.710976,55.660748 113.326829,57.927763 C113.038537,59.715825 116.847073,72.583389 128.080976,72.647264 C141.970244,72.711139 144.562683,57.480784 144.850976,54.926441 C144.914634,54.479389 144.883171,54.415514 144.850976,54.926441 C144.850976,54.958342 144.850976,55.022217 144.850976,55.086019 C149.267561,54.255863 151.539512,51.925046 151.539512,51.925046 C151.539512,51.925046 155.091951,72.902691 168.182195,72.679238 C181.783902,72.423738 184.37561,58.662143 184.696098,55.98005 C184.759756,55.405321 184.728293,55.341519 184.696098,55.98005 C184.696098,56.012024 184.696098,56.043925 184.696098,56.043925 C189.944634,54.128186 191.320976,52.244348 191.320976,52.244348 C191.320976,52.244348 194.137317,72.806915 207.962927,72.998467 C220.284878,73.15841 224.860976,60.545981 224.893171,55.277644 C226.973415,55.309545 230.814146,54.03241 230.718293,53.968535 C230.718293,53.968535 235.230732,71.944858 247.840244,72.87079 C253.76122,73.31755 258.209268,69.550093 260.738049,67.825906 C266.690488,72.647264 286.501463,78.77795 299.015122,57.608461 C300.807073,54.607139 296.998537,50.999114 296.326829,50.552062 Z M16.9301707,65.910167 C10.881439,65.910167 7.00891463,60.322528 7.00891463,54.319738 C7.00891463,48.317021 10.5613902,42.729309 16.6101951,42.729309 C19.3305366,42.729309 20.8347073,43.01671 22.9789756,44.868647 C23.3630488,46.369308 24.4511707,49.849656 24.9952683,51.446093 C25.6993171,53.553457 26.5634634,55.37342 27.395561,57.321133 C26.1474146,62.365944 22.1788537,65.910167 16.9301707,65.910167 Z M31.652122,45.028298 C31.3960976,44.61322 31.460122,44.868647 31.1720488,44.48547 C30.0839268,41.484075 27.9396585,34.778879 27.6836341,27.147751 C27.395561,18.526816 28.8357805,8.405147 33.0922683,8.405147 C35.9727073,8.405147 39.0450732,28.903912 31.652122,45.028298 Z M116.814878,36.056087 C116.143171,30.947401 116.110976,8.117819 121.584146,8.75635 C124.62439,9.969683 119.663415,31.490156 116.814878,36.056087 Z M156.916098,36.056087 C156.24439,30.947401 156.212195,8.117819 161.685366,8.75635 C164.72561,9.969683 159.764634,31.490156 156.916098,36.056087 Z M196.697561,36.375389 C196.025122,31.26663 195.993659,8.437048 201.466098,9.075652 C204.506341,10.257084 199.546098,31.809458 196.697561,36.375389 Z M240.607317,7.383439 C245.631951,6.8725339 245.408049,28.744261 235.35878,42.537757 C234.046098,37.556748 232.062439,9.107626 240.607317,7.383439 Z M261.730244,54.479389 C260.13,46.337407 264.290488,41.005122 268.579024,40.430393 C270.083415,40.20694 272.259512,41.164773 272.675122,42.984809 C273.379756,46.401209 272.579268,51.477994 262.946341,57.895862 C262.978537,57.927763 262.082195,56.267451 261.730244,54.479389 Z M91.5,29.382792 C94.9243902,29.382792 97.7085366,26.604923 97.7085366,23.188523 C97.7085366,19.77205 94.9243902,16.994181 91.5,16.994181 C88.0756098,16.994181 85.2907317,19.77205 85.2907317,23.188523 C85.2907317,26.604923 88.0756098,29.382792 91.5,29.382792 Z" transform="translate(0 40)"/>
    <text font-family="Gilroy-Light" font-size="30" font-weight="300">
      <tspan x=".89" y="23">FIRST</tspan>
    </text>
    <text font-family="Gilroy-Light" font-size="52" font-weight="300">
      <tspan x="204" y="168">MEETUP</tspan>
    </text>
    <text font-family="Gilroy-Light" font-size="38" font-weight="300">
      <tspan x="205" y="209">IN </tspan> <tspan x="249.878" y="209" font-family="Gilroy-Heavy" font-weight="600">TEHRAN</tspan>
    </text>
    <path d="M40,0 C17.9176,0 0,17.9176 0,40 C0,62.0824 17.9176,80 40,80 C62.03904,80 80,62.0824 80,40 C80,17.9176 62.03904,0 40,0 Z M66.4208,18.43816 C71.19304,24.2516 74.0564,31.67032 74.1432,39.69632 C73.0152,39.47936 61.73536,37.18008 50.3688,38.61168 C50.10848,38.04776 49.89152,37.44032 49.63128,36.83296 C48.93712,35.1844 48.15616,33.4924 47.37528,31.8872 C59.95664,26.76792 65.68328,19.39264 66.4208,18.43816 Z M40,5.900216 C48.6768,5.900216 56.61608,9.154 62.6464,14.49024 C62.03904,15.35792 56.87632,22.256 44.72888,26.81128 C39.13232,16.52928 32.9284,8.1128 31.974,6.81128 C34.5336,6.203904 37.22344,5.900216 40,5.900216 Z M25.4664,9.11064 C26.37744,10.32536 32.4512,18.78528 38.13448,28.85032 C22.1692,33.10192 8.06944,33.0152 6.550976,33.0153332 C8.76352,22.42952 15.92192,13.62256 25.4664,9.11064 Z M5.813448,40.04336 C5.813448,39.69632 5.813448,39.34928 5.813448,39.00216 C7.288504,39.04552 23.8612,39.26248 40.91104,34.1432 C41.90888,36.05208 42.81992,38.00432 43.6876,39.95664 C43.25376,40.0868 42.77656,40.21696 42.34272,40.34704 C24.72888,46.0304 15.35792,61.56184 14.57704,62.86336 C9.154,56.83296 5.813448,48.80696 5.813448,40.04336 Z M40,74.18656 C32.10416,74.18656 24.8156,71.49672 19.04552,66.9848 C19.65296,65.72672 26.5944,52.3644 45.8568,45.63992 C45.9436,45.59656 45.98696,45.59656 46.07376,45.55312 C50.88936,58.00432 52.84168,68.45984 53.36224,71.45336 C49.2408,73.23208 44.72888,74.18656 40,74.18656 Z M59.0456,68.32976 C58.69848,66.24728 56.8764,56.26896 52.40784,43.99136 C63.12368,42.29936 72.49456,45.07592 73.66592,45.4664 C72.19088,54.96744 66.72448,63.16704 59.0456,68.32976 Z" transform="translate(115 130)"/>
    <text font-family="IRANSans-Black, IRANSans" font-size="19" font-weight="700">
      <tspan x="491.442" y="238">۷ </tspan> <tspan x="440.051" y="240.296" font-family="IRANSans-Light, IRANSans" font-weight="300">دی ماه</tspan> <tspan x="393.468" y="238"> ۱۳۹۷</tspan> <tspan x="382.968" y="240.296" font-family="IRANSans" font-weight="normal">، </tspan> <tspan x="283.805" y="240.296" font-family="IRANSans-Light, IRANSans" font-weight="300">سالن همایش</tspan> <tspan x="278.361" y="240.296" font-family="IRANSans" font-weight="normal"> </tspan> <tspan x="215" y="238">تالار آینه</tspan>
    </text>
  </g>
</svg>
