<svg xmlns="http://www.w3.org/2000/svg" width="369" height="433" viewBox="0 0 369 433">
  <g fill="none" fill-rule="evenodd" stroke="#FFF" stroke-linecap="round" stroke-linejoin="round" stroke-width="5" transform="translate(2 2)">
    <path d="M172.4338 134.9424C180.4968 127.3484 191.3598 122.6944 203.3108 122.6944 215.2618 122.6944 226.1258 127.3494 234.1888 134.9444M142.4191 333.0118L114.4481 325.3138M130.5461 363.9893L56.5921 358.6223M142.339 392.3389L90.025 402.4969M51.673 403.4473C53.918 407.6783 52.307 412.9283 48.075 415.1733 43.844 417.4183 38.594 415.8063 36.35 411.5753 34.105 407.3433 35.715 402.0933 39.947 399.8493 44.178 397.6043 49.428 399.2163 51.673 403.4473zM307.2873 165.9102C311.5733 160.2522 316.3563 163.8752 320.6423 158.2182 324.9303 152.5582 320.1473 148.9352 324.4343 143.2752 328.7213 137.6182 333.5043 141.2412 337.7903 135.5832 342.0793 129.9212 337.2963 126.2982 341.5853 120.6362 345.8743 114.9742 350.6573 118.5972 354.9463 112.9362M136.2282 124.8218C132.3702 116.1978 139.6722 112.9308 135.8142 104.3078 131.9562 95.6828 124.6532 98.9498 120.7952 90.3258 116.9372 81.7038 124.2402 78.4368 120.3822 69.8148 116.5232 61.1898 109.2212 64.4568 105.3622 55.8318 101.5032 47.2058 108.8062 43.9388 104.9472 35.3138 101.0872 26.6868 93.7852 29.9538 89.9252 21.3268 86.0662 12.6998 93.3692 9.4328 89.5092.8068M298.5842 130.3907L302.9492 115.6577M91.2282 109.0977L77.5862 90.5447M258.8596 340.1172L297.0836 327.0962M260.0314 360.3545L353.0834 367.9335M362.4748 316.334C359.4858 322.412 352.1348 324.917 346.0558 321.928 339.9778 318.938 337.4728 311.587 340.4618 305.508 343.4518 299.43 350.8028 296.925 356.8818 299.915 362.9598 302.904 365.4648 310.255 362.4748 316.334zM252.9367 385.4063C258.0537 389.3423 255.6157 392.5123 260.7317 396.4483 265.8507 400.3853 268.2897 397.2153 273.4087 401.1523 278.5257 405.0883 276.0867 408.2593 281.2047 412.1943 286.3257 416.1333 288.7637 412.9633 293.8837 416.9013 299.0047 420.8403 296.5667 424.0103 301.6867 427.9493M.5002 55.4371C4.1872 58.9371 1.4322 61.8371 5.1192 65.3371 8.8072 68.8381 11.5612 65.9371 15.2492 69.4371 18.9352 72.9371 16.1812 75.8381 19.8682 79.3381 23.5572 82.8401 26.3112 79.9391 30.0002 83.4411 33.6892 86.9431 30.9352 89.8451 34.6242 93.3471"/>
  </g>
</svg>
