<svg xmlns="http://www.w3.org/2000/svg" width="21" height="22" viewBox="0 0 21 22">
  <path fill="#FFF" fill-rule="evenodd" d="M643.859259,45.9855411 C643.859259,46.6908757 643.787452,47.395232 643.64641,48.0818153 C643.508879,48.7520931 643.305174,49.4101418 643.038316,50.0392075 C642.777582,50.6571447 642.454185,51.2526211 642.07629,51.8079452 C641.704029,52.3597637 641.275187,52.8774629 640.804094,53.3493845 C640.33198,53.8192679 639.812512,54.24692 639.260958,54.6207641 C638.703811,54.9960349 638.107474,55.318965 637.489174,55.5809127 C636.8592,55.846366 636.199628,56.049777 635.529933,56.1870692 C634.842439,56.3284785 634.135514,56.4006711 633.42916,56.4006711 C632.722276,56.4006711 632.015391,56.3284785 631.328877,56.1870692 C630.658161,56.049777 629.998631,55.846366 629.369146,55.5809127 C628.750887,55.318965 628.153979,54.9960349 627.596832,54.6207641 C627.045277,54.2469608 626.525809,53.8192679 626.054716,53.3493845 C625.583133,52.8774629 625.154292,52.3597637 624.781499,51.8079452 C624.405645,51.2526211 624.081718,50.657104 623.819963,50.0392075 C623.553065,49.4101418 623.34887,48.7520524 623.210849,48.0818153 C623.071317,47.395232 623,46.6908757 623,45.9855411 C623,45.2796766 623.071276,44.573812 623.21089,43.888737 C623.348911,43.2184592 623.553106,42.5593914 623.820004,41.9313448 C624.081759,41.3129592 624.405686,40.7169528 624.78154,40.1615879 C625.154332,39.6093211 625.583174,39.0926002 626.054757,38.6201487 C626.52585,38.1502246 627.045318,37.7235915 627.596873,37.3503181 C628.15402,36.9734575 628.750928,36.6505681 629.369187,36.3881313 C629.998672,36.1221073 630.658161,35.9182072 631.328918,35.7819341 C632.015432,35.6415846 632.722316,35.5703704 633.429201,35.5703704 C634.135555,35.5703704 634.842439,35.6415846 635.529974,35.7819341 C636.199669,35.9182479 636.8592,36.1221481 637.489215,36.3881313 C638.107474,36.6505274 638.703852,36.9734575 639.260999,37.3503181 C639.812553,37.7235915 640.332062,38.1502246 640.804135,38.6201487 C641.275228,39.0926002 641.70407,39.6093211 642.076331,40.1615879 C642.454185,40.7169528 642.777582,41.3129999 643.038316,41.9313448 C643.305174,42.5593914 643.508879,43.2184592 643.64641,43.888737 C643.787452,44.573812 643.859259,45.2796766 643.859259,45.9855411 Z M635.345619,43.8546993 C635.552345,44.2788458 635.752539,44.7105335 635.937384,45.1443818 C636.003108,45.3000177 636.067281,45.4525963 636.129903,45.6051341 C639.189682,45.2206507 642.204147,45.8675301 642.333024,45.893945 C642.312653,43.7855232 641.557353,41.8504695 640.307609,40.3355267 C640.29079,40.3593735 638.862243,42.4205501 635.345619,43.8546993 Z M638.406418,53.3615728 C640.406359,52.0139243 641.826742,49.8739514 642.222966,47.3951912 C642.039632,47.3362061 639.547696,46.5484473 636.672763,47.0087104 C637.841065,50.2146546 638.315751,52.8255707 638.406418,53.3615728 Z M635.003852,47.4206686 C634.984012,47.4272315 634.964173,47.4328977 634.944782,47.4399906 C629.68955,49.2693989 627.973383,52.9561814 627.954815,52.9964272 C629.466916,54.1706511 631.363495,54.8790838 633.42916,54.8790838 C634.662616,54.8790838 635.837532,54.6283054 636.906513,54.1742383 C636.774615,53.3971596 636.257188,50.6733687 635.003852,47.4206686 Z M639.311415,39.3102784 C637.743295,37.9295298 635.684284,37.0919984 633.42916,37.0919984 C632.705457,37.0919984 632.003144,37.1794774 631.330387,37.341187 C631.463796,37.5202213 633.136829,39.7364631 634.660085,42.5293893 C638.020889,41.2712579 639.289493,39.3428079 639.311415,39.3102784 Z M633.674096,44.4355007 C629.088001,45.8065069 624.68724,45.7078587 624.529379,45.7017849 C624.526807,45.7973758 624.522235,45.8899094 624.522235,45.9855411 C624.522235,48.270429 625.38547,50.353455 626.804342,51.9284836 C626.80128,51.9238773 629.238759,47.6057766 634.045378,46.053698 C634.161477,46.015054 634.279659,45.9804456 634.396779,45.9468971 C634.173234,45.441427 633.929237,44.934897 633.674096,44.4355007 Z M629.62886,37.9407398 C627.145048,39.111963 625.291251,41.3973808 624.713203,44.1517037 C624.948015,44.1537419 628.65969,44.2005387 632.936145,43.0659213 C631.394561,40.3309204 629.747531,38.0989438 629.62886,37.9407398 Z" transform="translate(-623 -35)"/>
</svg>
