<?xml version="1.0" encoding="UTF-8"?>
<svg width="150px" height="197px" viewBox="0 0 150 197" version="1.1" xmlns="http://www.w3.org/2000/svg" xmlns:xlink="http://www.w3.org/1999/xlink">
    <!-- Generator: Sketch 52 (66869) - http://www.bohemiancoding.com/sketch -->
    <title>Dribbble-Meetup-Logo</title>
    <desc>Created with Sketch.</desc>
    <style>          
      #sun {                 
        transform: translateX(-140px);
        animation: dash 10s linear normal infinite;
        animation-delay:3s
      }

      @keyframes dash {
        0% {
          transform: translateX(-140px);
          opacity:0
        }
        50%{
          opacity:1
        }
        100% {
          transform: translateX(90px);
          opacity:0
        }
      }   
    </style>
    <g id="Page-1" stroke="none" stroke-width="1" fill="none" fill-rule="evenodd">
        <g id="Dribbble-Meetup-Logo" fill="#1F1F1F">
            <path id="city" d="M148.87248,186.642866 L148.87248,195.937694 C148.87248,196.043082 148.83821,196.129073 148.77097,196.195022 C148.70308,196.262263 148.62097,196.295884 148.52463,196.295884 L147.38024,196.295884 C147.18756,196.295884 147.04209,196.215065 146.9464,196.05278 L142.81752,189.84653 L142.81752,195.951918 C142.81752,196.048254 142.78584,196.129073 142.72313,196.195022 C142.66041,196.262263 142.57636,196.295884 142.46968,196.295884 L141.22442,196.295884 C141.12744,196.295884 141.04532,196.262263 140.97808,196.195022 C140.91084,196.129073 140.87657,196.048254 140.87657,195.951918 L140.87657,186.642866 C140.87657,186.538125 140.90825,186.452134 140.97032,186.386185 C141.03369,186.318944 141.11774,186.285323 141.22442,186.285323 L142.35394,186.285323 C142.53692,186.285323 142.67722,186.366142 142.77356,186.528427 L146.91666,192.878211 L146.91666,186.642866 C146.91666,186.538125 146.94769,186.452134 147.01106,186.386185 C147.07377,186.318944 147.15847,186.285323 147.2645,186.285323 L148.50976,186.285323 C148.61644,186.285323 148.70308,186.318944 148.77097,186.386185 C148.83821,186.452134 148.87248,186.538125 148.87248,186.642866 Z M130.91127,192.635108 L134.18476,192.635108 L132.54769,188.230151 L130.91127,192.635108 Z M133.86537,186.642866 L137.34252,195.866573 L137.37097,195.995884 C137.37097,196.081228 137.33929,196.152996 137.27722,196.209892 C137.2145,196.266789 137.14403,196.295884 137.06644,196.295884 L135.77787,196.295884 C135.5755,196.295884 135.43519,196.205366 135.35825,196.023685 L134.69101,194.293513 L130.40373,194.293513 L129.73713,196.023685 C129.65955,196.205366 129.51989,196.295884 129.31752,196.295884 L128.0283,196.295884 C127.94166,196.295884 127.8686,196.266789 127.81106,196.209892 C127.75287,196.152996 127.72377,196.081228 127.72377,195.995884 L127.75287,195.866573 L131.22938,186.642866 C131.32571,186.404289 131.49963,186.285323 131.75114,186.285323 L133.34425,186.285323 C133.59575,186.285323 133.76903,186.404289 133.86537,186.642866 Z M122.07485,190.511185 C122.3645,190.25903 122.50998,189.889203 122.50998,189.402996 C122.50998,188.916789 122.3645,188.542435 122.07485,188.279935 C121.78455,188.018082 121.35071,187.886832 120.7714,187.886832 L118.75804,187.886832 L118.75804,190.890065 L120.7714,190.890065 C121.35071,190.890065 121.78455,190.763987 122.07485,190.511185 Z M122.68325,192.191573 L124.7839,195.838125 C124.81235,195.895668 124.82722,195.948039 124.82722,195.995884 C124.82722,196.081228 124.79554,196.152996 124.73282,196.209892 C124.67011,196.266789 124.60028,196.295884 124.52269,196.295884 L123.19015,196.295884 C123.03563,196.295884 122.91537,196.259677 122.82808,196.188556 C122.74144,196.116789 122.66386,196.023685 122.59597,195.909892 L120.74231,192.520668 L118.75804,192.520668 L118.75804,195.951918 C118.75804,196.048254 118.72377,196.129073 118.65653,196.195022 C118.58864,196.262263 118.50136,196.295884 118.39532,196.295884 L117.06343,196.295884 C116.96644,196.295884 116.88369,196.262263 116.81709,196.195022 C116.74856,196.129073 116.71558,196.048254 116.71558,195.951918 L116.71558,186.642866 C116.71558,186.538125 116.74662,186.452134 116.80933,186.386185 C116.87205,186.318944 116.95675,186.285323 117.06343,186.285323 L120.81472,186.285323 C122.00244,186.285323 122.93218,186.556875 123.60265,187.100625 C124.27442,187.643728 124.60998,188.416358 124.60998,189.41722 C124.60998,190.112909 124.44123,190.697392 124.10244,191.168728 C123.76429,191.640711 123.29166,191.982091 122.68325,192.191573 Z M112.18907,186.386185 C112.25114,186.452134 112.28282,186.538125 112.28282,186.642866 L112.28282,195.951918 C112.28282,196.048254 112.25114,196.129073 112.18907,196.195022 C112.12571,196.262263 112.04101,196.295884 111.93498,196.295884 L110.58821,196.295884 C110.49188,196.295884 110.40912,196.262263 110.34188,196.195022 C110.27463,196.129073 110.24101,196.048254 110.24101,195.951918 L110.24101,192.134677 L106.01063,192.134677 L106.01063,195.951918 C106.01063,196.048254 105.977,196.129073 105.90912,196.195022 C105.84188,196.262263 105.75459,196.295884 105.64856,196.295884 L104.31601,196.295884 C104.21968,196.295884 104.13756,196.262263 104.06968,196.195022 C104.00244,196.129073 103.96817,196.048254 103.96817,195.951918 L103.96817,186.642866 C103.96817,186.538125 103.99985,186.452134 104.06256,186.386185 C104.12528,186.318944 104.20998,186.285323 104.31601,186.285323 L105.64856,186.285323 C105.75459,186.285323 105.84188,186.318944 105.90912,186.386185 C105.977,186.452134 106.01063,186.538125 106.01063,186.642866 L106.01063,190.318513 L110.24101,190.318513 L110.24101,186.642866 C110.24101,186.538125 110.27463,186.452134 110.34188,186.386185 C110.40912,186.318944 110.49188,186.285323 110.58821,186.285323 L111.93498,186.285323 C112.04101,186.285323 112.12571,186.318944 112.18907,186.386185 Z M99.88325,194.729935 C99.95114,194.792004 99.98541,194.874763 99.98541,194.980151 L99.98541,195.951918 C99.98541,196.057953 99.95114,196.140065 99.88325,196.20278 C99.81601,196.264849 99.72938,196.295884 99.62269,196.295884 L93.11968,196.295884 C93.02269,196.295884 92.94058,196.262263 92.87334,196.195022 C92.80545,196.129073 92.77119,196.048254 92.77119,195.951918 L92.77119,186.642866 C92.77119,186.538125 92.80287,186.452134 92.86558,186.386185 C92.92894,186.318944 93.013,186.285323 93.11968,186.285323 L99.50696,186.285323 C99.613,186.285323 99.70028,186.318944 99.76817,186.386185 C99.83541,186.452134 99.86903,186.538125 99.86903,186.642866 L99.86903,187.601056 C99.86903,187.706444 99.83541,187.789203 99.76817,187.851272 C99.70028,187.913341 99.613,187.944375 99.50696,187.944375 L94.7561,187.944375 L94.7561,190.44653 L99.18821,190.44653 C99.29489,190.44653 99.38153,190.480797 99.44942,190.546746 C99.51666,190.613987 99.55093,190.699332 99.55093,190.80472 L99.55093,191.705366 C99.55093,191.810108 99.51666,191.893513 99.44942,191.955582 C99.38153,192.017651 99.29489,192.048685 99.18821,192.048685 L94.7561,192.048685 L94.7561,194.636832 L99.62269,194.636832 C99.72938,194.636832 99.81601,194.667866 99.88325,194.729935 Z M89.03412,186.386185 C89.102,186.452134 89.13563,186.538125 89.13563,186.642866 L89.13563,187.715496 C89.13563,187.820237 89.102,187.906228 89.03412,187.972823 C88.96688,188.039418 88.87959,188.073039 88.7742,188.073039 L86.10847,188.073039 L86.10847,195.951918 C86.10847,196.048254 86.07679,196.129073 86.01407,196.195022 C85.95136,196.262263 85.86666,196.295884 85.76063,196.295884 L84.39899,196.295884 C84.30265,196.295884 84.22054,196.262263 84.15265,196.195022 C84.08541,196.129073 84.05179,196.048254 84.05179,195.951918 L84.05179,188.073039 L81.37183,188.073039 C81.27485,188.073039 81.19274,188.039418 81.1255,187.972823 C81.05761,187.906228 81.02463,187.820237 81.02463,187.715496 L81.02463,186.642866 C81.02463,186.538125 81.05502,186.452134 81.11838,186.386185 C81.1811,186.318944 81.2658,186.285323 81.37183,186.285323 L88.7742,186.285323 C88.87959,186.285323 88.96688,186.318944 89.03412,186.386185 Z M66.04338,190.611401 C66.33756,190.348901 66.48498,189.965496 66.48498,189.459892 C66.48498,188.964634 66.34209,188.578642 66.05761,188.301272 C65.77248,188.025841 65.34058,187.886832 64.76127,187.886832 L62.6755,187.886832 L62.6755,191.004504 L64.76127,191.004504 C65.32119,191.004504 65.74856,190.873254 66.04338,190.611401 Z M64.83369,186.285323 C66.002,186.285323 66.91946,186.556875 67.58541,187.100625 C68.252,187.643728 68.58498,188.435108 68.58498,189.474116 C68.58498,190.504073 68.252,191.283815 67.58541,191.812694 C66.91946,192.341573 66.002,192.606659 64.83369,192.606659 L62.70459,192.606659 L62.70459,195.951918 C62.70459,196.057953 62.67032,196.140065 62.60244,196.20278 C62.53519,196.264849 62.44856,196.295884 62.34252,196.295884 L60.95179,196.295884 C60.85481,196.295884 60.77269,196.262263 60.70545,196.195022 C60.63756,196.129073 60.60394,196.048254 60.60394,195.951918 L60.60394,186.642866 C60.60394,186.538125 60.63498,186.452134 60.69834,186.386185 C60.76106,186.318944 60.84511,186.285323 60.95179,186.285323 L64.83369,186.285323 Z M56.16407,186.386185 C56.22679,186.452134 56.25847,186.538125 56.25847,186.642866 L56.25847,192.463125 C56.25847,193.797608 55.89834,194.793944 55.17938,195.451487 C54.45976,196.109677 53.44856,196.438125 52.14511,196.438125 C50.83131,196.438125 49.81235,196.109677 49.08821,195.451487 C48.36407,194.793944 48.002,193.797608 48.002,192.463125 L48.002,186.642866 C48.002,186.538125 48.03304,186.452134 48.0964,186.386185 C48.15847,186.318944 48.24317,186.285323 48.3492,186.285323 L49.68239,186.285323 C49.78843,186.285323 49.87506,186.318944 49.94295,186.386185 C50.01019,186.452134 50.04446,186.538125 50.04446,186.642866 L50.04446,192.463125 C50.04446,193.216358 50.2255,193.78403 50.58756,194.164849 C50.94963,194.546315 51.46364,194.737047 52.13024,194.737047 C52.79619,194.737047 53.31084,194.546315 53.67291,194.164849 C54.03498,193.78403 54.21601,193.216358 54.21601,192.463125 L54.21601,186.642866 C54.21601,186.538125 54.24963,186.452134 54.31752,186.386185 C54.38476,186.318944 54.47205,186.285323 54.57808,186.285323 L55.91127,186.285323 C56.01731,186.285323 56.10136,186.318944 56.16407,186.386185 Z M44.35222,186.386185 C44.41946,186.452134 44.45308,186.538125 44.45308,186.642866 L44.45308,187.715496 C44.45308,187.820237 44.41946,187.906228 44.35222,187.972823 C44.28433,188.039418 44.19769,188.073039 44.09101,188.073039 L41.42593,188.073039 L41.42593,195.951918 C41.42593,196.048254 41.39425,196.129073 41.33153,196.195022 C41.26881,196.262263 41.18412,196.295884 41.07808,196.295884 L39.71644,196.295884 C39.62011,196.295884 39.538,196.262263 39.47075,196.195022 C39.40287,196.129073 39.36925,196.048254 39.36925,195.951918 L39.36925,188.073039 L36.68929,188.073039 C36.59231,188.073039 36.51019,188.039418 36.44295,187.972823 C36.37506,187.906228 36.34144,187.820237 36.34144,187.715496 L36.34144,186.642866 C36.34144,186.538125 36.37248,186.452134 36.43584,186.386185 C36.49856,186.318944 36.58325,186.285323 36.68929,186.285323 L44.09101,186.285323 C44.19769,186.285323 44.28433,186.318944 44.35222,186.386185 Z M33.05373,194.729935 C33.12097,194.792004 33.15459,194.874763 33.15459,194.980151 L33.15459,195.951918 C33.15459,196.057953 33.12097,196.140065 33.05373,196.20278 C32.98584,196.264849 32.8992,196.295884 32.79252,196.295884 L26.28886,196.295884 C26.19252,196.295884 26.10976,196.262263 26.04252,196.195022 C25.97528,196.129073 25.94166,196.048254 25.94166,195.951918 L25.94166,186.642866 C25.94166,186.538125 25.97269,186.452134 26.03541,186.386185 C26.09813,186.318944 26.18218,186.285323 26.28886,186.285323 L32.67679,186.285323 C32.78282,186.285323 32.87011,186.318944 32.938,186.386185 C33.00524,186.452134 33.03886,186.538125 33.03886,186.642866 L33.03886,187.601056 C33.03886,187.706444 33.00524,187.789203 32.938,187.851272 C32.87011,187.913341 32.78282,187.944375 32.67679,187.944375 L27.92593,187.944375 L27.92593,190.44653 L32.35804,190.44653 C32.46472,190.44653 32.55136,190.480797 32.61925,190.546746 C32.68649,190.613987 32.72075,190.699332 32.72075,190.80472 L32.72075,191.705366 C32.72075,191.810108 32.68649,191.893513 32.61925,191.955582 C32.55136,192.017651 32.46472,192.048685 32.35804,192.048685 L27.92593,192.048685 L27.92593,194.636832 L32.79252,194.636832 C32.8992,194.636832 32.98584,194.667866 33.05373,194.729935 Z M21.85675,194.729935 C21.92399,194.792004 21.95825,194.874763 21.95825,194.980151 L21.95825,195.951918 C21.95825,196.057953 21.92399,196.140065 21.85675,196.20278 C21.78886,196.264849 21.70222,196.295884 21.59619,196.295884 L15.09188,196.295884 C14.99554,196.295884 14.91343,196.262263 14.84619,196.195022 C14.7783,196.129073 14.74468,196.048254 14.74468,195.951918 L14.74468,186.642866 C14.74468,186.538125 14.77571,186.452134 14.83843,186.386185 C14.90179,186.318944 14.98584,186.285323 15.09188,186.285323 L21.48045,186.285323 C21.58649,186.285323 21.67313,186.318944 21.74101,186.386185 C21.80825,186.452134 21.84188,186.538125 21.84188,186.642866 L21.84188,187.601056 C21.84188,187.706444 21.80825,187.789203 21.74101,187.851272 C21.67313,187.913341 21.58649,187.944375 21.48045,187.944375 L16.72894,187.944375 L16.72894,190.44653 L21.1617,190.44653 C21.26774,190.44653 21.35438,190.480797 21.42226,190.546746 C21.4895,190.613987 21.52377,190.699332 21.52377,190.80472 L21.52377,191.705366 C21.52377,191.810108 21.4895,191.893513 21.42226,191.955582 C21.35438,192.017651 21.26774,192.048685 21.1617,192.048685 L16.72894,192.048685 L16.72894,194.636832 L21.59619,194.636832 C21.70222,194.636832 21.78886,194.667866 21.85675,194.729935 Z M10.21041,186.386185 C10.2783,186.452134 10.31192,186.538125 10.31192,186.642866 L10.31192,195.951918 C10.31192,196.057953 10.2783,196.140065 10.21041,196.20278 C10.14317,196.264849 10.05588,196.295884 9.94985,196.295884 L8.70394,196.295884 C8.60761,196.295884 8.5255,196.262263 8.45761,196.195022 C8.39037,196.129073 8.3561,196.048254 8.3561,195.951918 L8.3561,189.803211 L6.34338,193.579073 C6.2367,193.788556 6.07765,193.893297 5.86494,193.893297 L5.25653,193.893297 C5.05416,193.893297 4.88994,193.788556 4.76386,193.579073 L2.7505,189.803211 L2.7505,195.951918 C2.7505,196.048254 2.71881,196.129073 2.65675,196.195022 C2.59338,196.262263 2.50933,196.295884 2.40265,196.295884 L1.15739,196.295884 C1.06041,196.295884 0.9783,196.262263 0.91106,196.195022 C0.84317,196.129073 0.80955,196.048254 0.80955,195.951918 L0.80955,186.642866 C0.80955,186.538125 0.84058,186.452134 0.90394,186.386185 C0.96666,186.318944 1.05071,186.285323 1.15739,186.285323 L2.33088,186.285323 C2.51386,186.285323 2.65869,186.376487 2.76537,186.556875 L5.56106,191.676272 L8.3561,186.556875 C8.46278,186.376487 8.60761,186.285323 8.79123,186.285323 L9.94985,186.285323 C10.05588,186.285323 10.14317,186.318944 10.21041,186.386185 Z M134.95287,179.363341 C134.83649,179.239203 134.77894,179.082091 134.77894,178.890711 L134.77894,160.192435 C134.77894,159.983599 134.83649,159.816142 134.95287,159.691358 C135.0686,159.567866 135.22313,159.505151 135.41644,159.505151 L147.33756,159.505151 C147.54963,159.505151 147.71903,159.567866 147.84446,159.691358 C147.97054,159.816142 148.03325,159.983599 148.03325,160.192435 L148.03325,161.223685 C148.03325,161.414418 147.97054,161.567651 147.84446,161.682091 C147.71903,161.795884 147.54963,161.853427 147.33756,161.853427 L137.44726,161.853427 L137.44726,168.238772 L146.69942,168.238772 C146.91213,168.238772 147.08088,168.301487 147.20696,168.424978 C147.33239,168.549763 147.39575,168.715927 147.39575,168.926056 L147.39575,169.899763 C147.39575,170.090496 147.33239,170.248254 147.20696,170.372392 C147.08088,170.49653 146.91213,170.557953 146.69942,170.557953 L137.44726,170.557953 L137.44726,177.172823 L147.56903,177.172823 C147.78175,177.172823 147.9505,177.234892 148.07722,177.35903 C148.20265,177.483168 148.26537,177.650625 148.26537,177.860108 L148.26537,178.890711 C148.26537,179.082091 148.19748,179.239203 148.063,179.363341 C147.92722,179.488125 147.76235,179.548901 147.56903,179.548901 L135.41644,179.548901 C135.22313,179.548901 135.0686,179.488125 134.95287,179.363341 Z M116.94123,179.363341 C116.8255,179.239203 116.76795,179.082091 116.76795,178.890711 L116.76795,160.164634 C116.76795,159.973901 116.8255,159.816142 116.94123,159.691358 C117.05761,159.567866 117.21149,159.505151 117.40545,159.505151 L118.85567,159.505151 C119.04899,159.505151 119.20351,159.567866 119.31989,159.691358 C119.43627,159.816142 119.49381,159.973901 119.49381,160.164634 L119.49381,177.144375 L129.18175,177.144375 C129.39381,177.144375 129.56321,177.205797 129.68864,177.330582 C129.81407,177.45472 129.87744,177.611832 129.87744,177.802565 L129.87744,178.890711 C129.87744,179.082091 129.81019,179.239203 129.67442,179.363341 C129.53864,179.488125 129.37442,179.548901 129.18175,179.548901 L117.40545,179.548901 C117.21149,179.548901 117.05761,179.488125 116.94123,179.363341 Z M98.40782,170.243728 L98.40782,177.287263 L104.09295,177.287263 C105.32981,177.287263 106.30157,176.958168 107.00761,176.299332 C107.71364,175.640496 108.06666,174.796746 108.06666,173.765496 C108.06666,172.715496 107.71364,171.866573 107.00761,171.217435 C106.30157,170.568297 105.32981,170.243728 104.09295,170.243728 L98.40782,170.243728 Z M98.40782,161.767435 L98.40782,168.009892 L103.80265,168.009892 C105.05955,168.009892 106.01709,167.728642 106.67399,167.164849 C107.33088,166.602349 107.66063,165.814849 107.66063,164.802996 C107.66063,163.810539 107.3367,163.056013 106.68886,162.540711 C106.04037,162.026056 105.07894,161.767435 103.80265,161.767435 L98.40782,161.767435 Z M96.32011,179.548901 C96.12614,179.548901 95.97162,179.488125 95.85588,179.363341 C95.7395,179.239203 95.68131,179.082091 95.68131,178.890711 L95.68131,160.192435 C95.68131,159.983599 95.7395,159.816142 95.85588,159.691358 C95.97162,159.567866 96.12614,159.505151 96.32011,159.505151 L104.23778,159.505151 C106.28735,159.505151 107.8339,159.992004 108.87873,160.965711 C109.92291,161.939418 110.44468,163.209246 110.44468,164.774547 C110.44468,165.843297 110.19317,166.735539 109.69015,167.451272 C109.18713,168.167004 108.59813,168.687478 107.92119,169.011401 C108.752,169.412909 109.44834,170.033599 110.01019,170.872823 C110.57011,171.713341 110.85006,172.676703 110.85006,173.765496 C110.85006,174.834246 110.60438,175.807953 110.1117,176.68597 C109.61774,177.563987 108.88778,178.26097 107.92119,178.776272 C106.95394,179.29222 105.80438,179.548901 104.46989,179.548901 L96.32011,179.548901 Z M85.92226,176.299332 C86.6283,175.640496 86.98067,174.796746 86.98067,173.765496 C86.98067,172.715496 86.6283,171.866573 85.92226,171.217435 C85.21623,170.568297 84.24446,170.243728 83.00696,170.243728 L77.32248,170.243728 L77.32248,177.287263 L83.00696,177.287263 C84.24446,177.287263 85.21623,176.958168 85.92226,176.299332 Z M77.32248,161.767435 L77.32248,168.009892 L82.71731,168.009892 C83.97356,168.009892 84.9311,167.728642 85.58864,167.164849 C86.24554,166.602349 86.57463,165.814849 86.57463,164.802996 C86.57463,163.810539 86.25071,163.056013 85.60287,162.540711 C84.95502,162.026056 83.99295,161.767435 82.71731,161.767435 L77.32248,161.767435 Z M86.83584,169.011401 C87.66666,169.412909 88.363,170.033599 88.92356,170.872823 C89.48412,171.713341 89.76472,172.676703 89.76472,173.765496 C89.76472,174.834246 89.51838,175.807953 89.02571,176.68597 C88.53239,177.563987 87.80244,178.26097 86.83584,178.776272 C85.8686,179.29222 84.71838,179.548901 83.3839,179.548901 L75.23412,179.548901 C75.0408,179.548901 74.88563,179.488125 74.76989,179.363341 C74.65351,179.239203 74.59597,179.082091 74.59597,178.890711 L74.59597,160.192435 C74.59597,159.983599 74.65351,159.816142 74.76989,159.691358 C74.88563,159.567866 75.0408,159.505151 75.23412,159.505151 L83.15244,159.505151 C85.20136,159.505151 86.74856,159.992004 87.79274,160.965711 C88.83756,161.939418 89.35869,163.209246 89.35869,164.774547 C89.35869,165.843297 89.10718,166.735539 88.60481,167.451272 C88.10179,168.167004 87.51278,168.687478 86.83584,169.011401 Z M64.83563,176.299332 C65.54166,175.640496 65.89468,174.796746 65.89468,173.765496 C65.89468,172.715496 65.54166,171.866573 64.83563,171.217435 C64.13024,170.568297 63.15847,170.243728 61.92097,170.243728 L56.23649,170.243728 L56.23649,177.287263 L61.92097,177.287263 C63.15847,177.287263 64.13024,176.958168 64.83563,176.299332 Z M56.23649,161.767435 L56.23649,168.009892 L61.63131,168.009892 C62.88756,168.009892 63.84511,167.728642 64.50265,167.164849 C65.15955,166.602349 65.48864,165.814849 65.48864,164.802996 C65.48864,163.810539 65.16472,163.056013 64.51688,162.540711 C63.86903,162.026056 62.90761,161.767435 61.63131,161.767435 L56.23649,161.767435 Z M65.74985,169.011401 C66.58131,169.412909 67.277,170.033599 67.83821,170.872823 C68.39877,171.713341 68.67938,172.676703 68.67938,173.765496 C68.67938,174.834246 68.43239,175.807953 67.93972,176.68597 C67.4464,177.563987 66.71644,178.26097 65.74985,178.776272 C64.78261,179.29222 63.63239,179.548901 62.29856,179.548901 L54.14813,179.548901 C53.95416,179.548901 53.80028,179.488125 53.6839,179.363341 C53.56817,179.239203 53.50998,179.082091 53.50998,178.890711 L53.50998,160.192435 C53.50998,159.983599 53.56817,159.816142 53.6839,159.691358 C53.80028,159.567866 53.95416,159.505151 54.14813,159.505151 L62.0658,159.505151 C64.11537,159.505151 65.66256,159.992004 66.70675,160.965711 C67.75093,161.939418 68.27334,163.209246 68.27334,164.774547 C68.27334,165.843297 68.02183,166.735539 67.51881,167.451272 C67.01644,168.167004 66.42614,168.687478 65.74985,169.011401 Z M46.49101,159.67778 C46.60739,159.79222 46.66494,159.954504 46.66494,160.164634 L46.66494,178.890711 C46.66494,179.082091 46.60222,179.239203 46.47679,179.363341 C46.35071,179.488125 46.19101,179.548901 45.99834,179.548901 L44.54813,179.548901 C44.35416,179.548901 44.19963,179.488125 44.0839,179.363341 C43.96817,179.239203 43.90998,179.082091 43.90998,178.890711 L43.90998,160.164634 C43.90998,159.973901 43.96817,159.816142 44.0839,159.691358 C44.19963,159.567866 44.35416,159.505151 44.54813,159.505151 L45.99834,159.505151 C46.21041,159.505151 46.37528,159.562694 46.49101,159.67778 Z M30.8005,169.097392 C33.71968,169.097392 35.17959,167.885754 35.17959,165.461185 C35.17959,163.037263 33.71968,161.824332 30.8005,161.824332 L25.92744,161.824332 L25.92744,169.097392 L30.8005,169.097392 Z M37.76063,179.548901 L36.48498,179.548901 C36.19532,179.548901 35.96774,179.482953 35.80351,179.349116 C35.63864,179.215927 35.48864,179.024547 35.35351,178.776272 L31.09015,171.445668 L25.92744,171.445668 L25.92744,178.890711 C25.92744,179.082091 25.85955,179.239203 25.72442,179.363341 C25.58864,179.488125 25.42442,179.548901 25.23175,179.548901 L23.83907,179.548901 C23.64575,179.548901 23.49123,179.488125 23.37485,179.363341 C23.25912,179.239203 23.20093,179.082091 23.20093,178.890711 L23.20093,160.192435 C23.20093,159.983599 23.25912,159.816142 23.37485,159.691358 C23.49123,159.567866 23.64575,159.505151 23.83907,159.505151 L30.91623,159.505151 C33.12097,159.505151 34.84662,160.015927 36.09317,161.036832 C37.34101,162.05903 37.96429,163.542866 37.96429,165.49028 C37.96429,166.940496 37.59705,168.13403 36.86192,169.069591 C36.12679,170.005151 35.10265,170.654289 33.78756,171.016358 L38.25459,178.661832 C38.31213,178.776272 38.34123,178.881659 38.34123,178.977349 C38.34123,179.129935 38.28304,179.263125 38.16731,179.378211 C38.05093,179.492004 37.9158,179.548901 37.76063,179.548901 Z M14.26817,171.646099 C14.30631,170.501056 14.32571,169.785323 14.32571,169.498254 C14.32571,169.193728 14.30631,168.487047 14.26817,167.380151 C14.22938,165.47153 13.77032,164.072392 12.89037,163.185323 C12.01041,162.297608 10.56472,161.853427 8.55459,161.853427 L4.23304,161.853427 L4.23304,177.172823 L8.69942,177.172823 C10.05265,177.172823 11.13045,176.98597 11.93347,176.614203 C12.73519,176.241789 13.31515,175.660539 13.67399,174.867866 C14.03088,174.075841 14.22938,173.001918 14.26817,171.646099 Z M16.13864,176.184892 C15.58778,177.320884 14.72205,178.165927 13.54274,178.718728 C12.36343,179.27347 10.79683,179.548901 8.84425,179.548901 L2.14468,179.548901 C1.95071,179.548901 1.79619,179.488125 1.68045,179.363341 C1.56472,179.239203 1.50653,179.082091 1.50653,178.890711 L1.50653,160.192435 C1.50653,159.983599 1.56472,159.816142 1.68045,159.691358 C1.79619,159.567866 1.95071,159.505151 2.14468,159.505151 L8.69942,159.505151 C11.6186,159.505151 13.727,160.149763 15.02205,161.438341 C16.31709,162.726918 16.98433,164.669806 17.02313,167.265065 C17.04252,167.819806 17.05222,168.563987 17.05222,169.498254 C17.05222,170.434461 17.04252,171.188341 17.02313,171.760539 C16.98433,173.574116 16.69015,175.048901 16.13864,176.184892 Z M102.11405,88.043276 C101.74422,88.043276 101.44422,87.743276 101.44422,87.373448 L101.44422,85.358793 C101.44422,84.988966 101.74422,84.688966 102.11405,84.688966 C102.48453,84.688966 102.78388,84.988966 102.78388,85.358793 L102.78388,87.373448 C102.78388,87.743276 102.48453,88.043276 102.11405,88.043276 Z M57.91772,59.25944 C57.54789,59.25944 57.24789,58.95944 57.24789,58.589612 C57.24789,58.219138 57.54789,57.919138 57.91772,57.919138 L63.35651,57.919138 C63.72634,57.919138 64.02634,58.219138 64.02634,58.589612 C64.02634,58.95944 63.72634,59.25944 63.35651,59.25944 L57.91772,59.25944 Z M13.50608,99.432931 C13.13625,99.432931 12.83625,99.133578 12.83625,98.763103 L12.83625,94.499095 C12.83625,94.128621 13.13625,93.828621 13.50608,93.828621 C13.87655,93.828621 14.17655,94.128621 14.17655,94.499095 L14.17655,98.763103 C14.17655,99.133578 13.87655,99.432931 13.50608,99.432931 Z M13.50608,129.109655 C13.13625,129.109655 12.83625,128.809655 12.83625,128.439828 L12.83625,106.24694 C12.83625,105.877112 13.13625,105.577112 13.50608,105.577112 C13.87655,105.577112 14.17655,105.877112 14.17655,106.24694 L14.17655,128.439828 C14.17655,128.809655 13.87655,129.109655 13.50608,129.109655 Z M13.50608,142.032931 C13.13625,142.032931 12.83625,141.732931 12.83625,141.363103 L12.83625,136.311595 C12.83625,135.941767 13.13625,135.641767 13.50608,135.641767 C13.87655,135.641767 14.17655,135.941767 14.17655,136.311595 L14.17655,141.363103 C14.17655,141.732931 13.87655,142.032931 13.50608,142.032931 Z M93.05004,108.892629 C92.68022,108.892629 92.38022,108.592629 92.38022,108.222802 L92.38022,97.097586 C92.38022,96.727112 92.68022,96.427759 93.05004,96.427759 C93.41987,96.427759 93.71987,96.727112 93.71987,97.097586 L93.71987,108.222802 C93.71987,108.592629 93.41987,108.892629 93.05004,108.892629 Z M92.37634,77.962241 C92.00651,77.962241 91.70651,77.662888 91.70651,77.292414 L91.70651,74.854267 C91.70651,74.48444 92.00651,74.18444 92.37634,74.18444 C92.74616,74.18444 93.04616,74.48444 93.04616,74.854267 L93.04616,77.292414 C93.04616,77.662888 92.74616,77.962241 92.37634,77.962241 Z M79.46211,144.284871 C79.46211,143.915043 79.76211,143.615043 80.13194,143.615043 L83.79013,143.615043 C84.15996,143.615043 84.45996,143.915043 84.45996,144.284871 C84.45996,144.654698 84.15996,144.954698 83.79013,144.954698 L80.13194,144.954698 C79.76211,144.954698 79.46211,144.654698 79.46211,144.284871 Z M78.67138,127.965259 C78.30155,127.965259 78.00155,127.665259 78.00155,127.295431 C78.00155,126.924957 78.30155,126.625603 78.67138,126.625603 L81.5925,126.625603 C81.96297,126.625603 82.26233,126.924957 82.26233,127.295431 C82.26233,127.665259 81.96297,127.965259 81.5925,127.965259 L78.67138,127.965259 Z M109.99422,89.358362 C109.6244,89.358362 109.3244,89.059009 109.3244,88.688534 L109.3244,84.151681 C109.3244,83.781853 109.6244,83.481853 109.99422,83.481853 C110.36405,83.481853 110.66405,83.781853 110.66405,84.151681 L110.66405,88.688534 C110.66405,89.059009 110.36405,89.358362 109.99422,89.358362 Z M102.11405,102.238966 C101.74422,102.238966 101.44422,101.938966 101.44422,101.569138 L101.44422,95.025388 C101.44422,94.65556 101.74422,94.35556 102.11405,94.35556 C102.48453,94.35556 102.78388,94.65556 102.78388,95.025388 L102.78388,101.569138 C102.78388,101.938966 102.48453,102.238966 102.11405,102.238966 Z M105.51621,121.58444 L105.51621,119.265259 C105.51621,118.895431 105.81621,118.595431 106.18603,118.595431 C106.55586,118.595431 106.85651,118.895431 106.85651,119.265259 L106.85651,121.58444 C106.85651,121.954267 106.55586,122.254267 106.18603,122.254267 C105.81621,122.254267 105.51621,121.954267 105.51621,121.58444 Z M137.48496,117.45556 C137.11448,117.45556 136.81513,117.15556 136.81513,116.785733 L136.81513,114.163319 C136.81513,113.793491 137.11448,113.493491 137.48496,113.493491 C137.85543,113.493491 138.15543,113.793491 138.15543,114.163319 L138.15543,116.785733 C138.15543,117.15556 137.85543,117.45556 137.48496,117.45556 Z M128.40543,110.687457 C128.03496,110.687457 127.7356,110.387457 127.7356,110.017629 L127.7356,108.034655 C127.7356,107.664181 128.03496,107.364828 128.40543,107.364828 C128.77591,107.364828 129.07591,107.664181 129.07591,108.034655 L129.07591,110.017629 C129.07591,110.387457 128.77591,110.687457 128.40543,110.687457 Z M128.40543,119.011164 C128.03496,119.011164 127.7356,118.711164 127.7356,118.341336 L127.7356,114.348233 C127.7356,113.978405 128.03496,113.678405 128.40543,113.678405 C128.77591,113.678405 129.07591,113.978405 129.07591,114.348233 L129.07591,118.341336 C129.07591,118.711164 128.77591,119.011164 128.40543,119.011164 Z M121.80802,110.687457 C121.43819,110.687457 121.13819,110.387457 121.13819,110.017629 L121.13819,108.034655 C121.13819,107.664181 121.43819,107.364828 121.80802,107.364828 C122.17849,107.364828 122.47784,107.664181 122.47784,108.034655 L122.47784,110.017629 C122.47784,110.387457 122.17849,110.687457 121.80802,110.687457 Z M121.80802,119.011164 C121.43819,119.011164 121.13819,118.711164 121.13819,118.341336 L121.13819,114.348233 C121.13819,113.978405 121.43819,113.678405 121.80802,113.678405 C122.17849,113.678405 122.47784,113.978405 122.47784,114.348233 L122.47784,118.341336 C122.47784,118.711164 122.17849,119.011164 121.80802,119.011164 Z M115.21125,110.687457 C114.84142,110.687457 114.54142,110.387457 114.54142,110.017629 L114.54142,108.034655 C114.54142,107.664181 114.84142,107.364828 115.21125,107.364828 C115.58108,107.364828 115.88108,107.664181 115.88108,108.034655 L115.88108,110.017629 C115.88108,110.387457 115.58108,110.687457 115.21125,110.687457 Z M115.21125,119.011164 C114.84142,119.011164 114.54142,118.711164 114.54142,118.341336 L114.54142,114.348233 C114.54142,113.978405 114.84142,113.678405 115.21125,113.678405 C115.58108,113.678405 115.88108,113.978405 115.88108,114.348233 L115.88108,118.341336 C115.88108,118.711164 115.58108,119.011164 115.21125,119.011164 Z M55.10716,149.949957 C54.73733,149.949957 54.43733,149.649957 54.43733,149.280129 L54.43733,116.925388 C54.43733,116.554267 54.73733,116.254914 55.10716,116.254914 C55.47763,116.254914 55.77698,116.554267 55.77698,116.925388 L55.77698,149.280129 C55.77698,149.649957 55.47763,149.949957 55.10716,149.949957 Z M55.10716,110.445 C54.73733,110.445 54.43733,110.145 54.43733,109.775172 L54.43733,105.81375 C54.43733,105.443922 54.73733,105.143922 55.10716,105.143922 C55.47763,105.143922 55.77698,105.443922 55.77698,105.81375 L55.77698,109.775172 C55.77698,110.145 55.47763,110.445 55.10716,110.445 Z M55.10716,99.516336 C54.73733,99.516336 54.43733,99.216336 54.43733,98.846509 L54.43733,84.955345 C54.43733,84.585517 54.73733,84.285517 55.10716,84.285517 C55.47763,84.285517 55.77698,84.585517 55.77698,84.955345 L55.77698,98.846509 C55.77698,99.216336 55.47763,99.516336 55.10716,99.516336 Z M85.74401,52.206207 C88.24746,52.572155 90.76254,53.073233 93.22009,53.694569 C93.58927,53.788319 93.81297,54.163319 93.71987,54.533147 C93.64034,54.846078 93.35909,55.054267 93.05134,55.054267 C92.99509,55.054267 92.93819,55.047802 92.88129,55.032931 C90.46966,54.423233 88.00112,53.931207 85.54358,53.572371 C85.16664,53.516767 84.90543,53.166336 84.96103,52.789397 C85.01599,52.412457 85.36578,52.15319 85.74401,52.206207 Z M126.15155,73.726681 C124.62698,72.23444 123.01772,70.792629 121.37159,69.440043 C121.07612,69.198879 121.03345,68.76375 121.27526,68.468922 C121.51707,68.174095 121.9522,68.131422 122.24703,68.373233 C123.92483,69.751034 125.56319,71.22 127.11685,72.739397 C127.38905,73.005776 127.39422,73.443491 127.12784,73.71569 C126.99207,73.854052 126.81362,73.923233 126.63388,73.923233 C126.45996,73.923233 126.28603,73.857931 126.15155,73.726681 Z M7.60823,150.967629 L12.83625,150.967629 L12.83625,148.155776 C12.83625,147.785948 13.13625,147.485948 13.50608,147.485948 C13.87655,147.485948 14.17655,147.785948 14.17655,148.155776 L14.17655,150.967629 L19.40392,150.967629 L19.40392,87.83444 C19.40392,87.537672 19.16405,87.297802 18.86793,87.297802 L8.14487,87.297802 C7.84875,87.297802 7.60823,87.537672 7.60823,87.83444 L7.60823,150.967629 Z M9.97914,85.422155 C9.97914,85.718276 10.21901,85.958147 10.51513,85.958147 L13.52547,85.958147 C13.82159,85.958147 14.06147,85.718276 14.06147,85.422155 L14.06147,84.790474 C14.06147,84.341121 13.97806,83.902759 13.81384,83.489612 C13.66966,83.126897 13.86427,82.714397 14.24638,82.59931 C14.59099,82.496509 14.94983,82.710517 15.07914,83.046078 C15.29315,83.602759 15.40177,84.189181 15.40177,84.790474 L15.40177,85.422155 C15.40177,85.718276 15.64164,85.958147 15.93711,85.958147 L16.49703,85.958147 C16.79315,85.958147 17.03302,85.718276 17.03302,85.422155 L17.03302,84.893276 C17.03302,82.996293 15.57828,81.36181 13.68388,81.26806 C11.65888,81.168491 9.97914,82.787457 9.97914,84.790474 L9.97914,85.422155 Z M20.74358,143.618922 L20.74358,150.967629 L43.30435,150.967629 L43.46211,148.663966 L43.8106,143.554914 C43.83129,143.245216 43.58625,142.982069 43.27591,142.982069 L28.45823,142.982069 C28.06578,142.982069 27.7522,142.644569 27.79228,142.243707 C27.8272,141.894569 28.14659,141.642414 28.49703,141.642414 L43.44013,141.642414 C43.72203,141.642414 43.95608,141.423879 43.97483,141.143276 L44.3744,135.298448 C44.39509,134.98875 44.15004,134.725603 43.8397,134.725603 L21.27957,134.725603 C20.98345,134.725603 20.74358,134.966121 20.74358,135.261595 L20.74358,143.618922 Z M31.38388,132.849957 C31.38388,133.146078 31.62375,133.385948 31.91987,133.385948 L44.00392,133.385948 C44.28582,133.385948 44.51987,133.16806 44.53927,132.886164 L44.74552,129.854483 C44.76685,129.544138 44.52181,129.281638 44.21147,129.281638 L38.74875,129.281638 C38.35629,129.281638 38.04272,128.944138 38.0828,128.542629 C38.11772,128.193491 38.43711,127.941983 38.78754,127.941983 L44.37569,127.941983 C44.65759,127.941983 44.89099,127.723448 44.91039,127.442198 L45.11728,124.409871 C45.13862,124.100172 44.89293,123.837672 44.58259,123.837672 L31.91987,123.837672 C31.62375,123.837672 31.38388,124.077543 31.38388,124.373017 L31.38388,127.405991 C31.38388,127.702112 31.62375,127.941983 31.91987,127.941983 L34.03603,127.941983 C34.42914,127.941983 34.74272,128.279483 34.70263,128.680345 C34.66772,129.028836 34.34832,129.281638 33.99789,129.281638 L31.91987,129.281638 C31.62375,129.281638 31.38388,129.521509 31.38388,129.817629 L31.38388,132.849957 Z M36.57892,122.498017 L44.74746,122.498017 C45.02935,122.498017 45.26276,122.279483 45.28216,121.998233 L45.50716,118.700819 C45.52849,118.390474 45.2828,118.127974 44.97246,118.127974 L40.91017,118.127974 C38.60263,118.127974 36.65651,119.68875 36.06297,121.80944 C35.96599,122.154698 36.22073,122.498017 36.57892,122.498017 Z M44.64789,150.967629 L65.56772,150.967629 L60.42052,75.564181 C60.40112,75.282931 60.16707,75.065043 59.88517,75.065043 L50.32978,75.065043 C50.04789,75.065043 49.81448,75.282931 49.79444,75.564181 L44.64789,150.967629 Z M59.80435,70.314828 L50.40931,70.314828 C50.11319,70.314828 49.87332,70.554698 49.87332,70.850172 L49.87332,73.189397 C49.87332,73.485517 50.11319,73.725388 50.40931,73.725388 L59.80435,73.725388 C60.10047,73.725388 60.34034,73.485517 60.34034,73.189397 L60.34034,70.850172 C60.34034,70.554698 60.10047,70.314828 59.80435,70.314828 Z M48.55888,68.974526 L49.20349,68.974526 L61.01017,68.974526 L61.65478,68.974526 C61.83194,68.974526 61.99746,68.887241 62.09703,68.741121 L64.22547,65.625388 C64.46858,65.269784 64.21384,64.787457 63.78259,64.787457 L53.95112,64.787457 C53.55866,64.787457 53.24444,64.44931 53.28453,64.047802 C53.32009,63.69931 53.63884,63.447155 53.98927,63.447155 L65.43,63.447155 C65.60716,63.447155 65.77267,63.359224 65.87289,63.213103 L71.9744,54.280991 C72.2175,53.924741 71.96276,53.442414 71.53216,53.442414 L38.68151,53.442414 C38.25091,53.442414 37.99616,53.924741 38.23927,54.280991 L40.56491,57.685733 C40.66448,57.831853 40.83,57.919138 41.00716,57.919138 L49.93022,57.919138 C50.32267,57.919138 50.6369,58.257284 50.59681,58.658793 C50.56125,59.007284 50.2425,59.25944 49.89207,59.25944 L42.65457,59.25944 C42.22397,59.25944 41.96922,59.741767 42.21233,60.097371 L48.11599,68.741121 C48.21621,68.887241 48.38172,68.974526 48.55888,68.974526 Z M37.72267,52.102759 L71.43,52.102759 C71.86966,52.102759 72.12246,51.602974 71.8619,51.24931 L70.13948,48.910086 C70.03862,48.773017 69.87828,48.691552 69.70823,48.691552 L69.30284,48.691552 L40.91017,48.691552 L40.23388,48.691552 L37.72267,52.102759 Z M41.58065,46.816552 C41.58065,47.112026 41.82052,47.351897 42.11599,47.351897 L68.09703,47.351897 C68.39315,47.351897 68.63302,47.112026 68.63302,46.816552 L68.63302,44.477328 C68.63302,44.181207 68.39315,43.941336 68.09703,43.941336 L42.11599,43.941336 C41.82052,43.941336 41.58065,44.181207 41.58065,44.477328 L41.58065,46.816552 Z M43.85392,42.601681 L46.29078,42.601681 C46.55004,42.601681 46.7731,42.416121 46.81642,42.160733 C47.05953,40.729914 47.76944,39.275172 48.93453,37.821078 C49.18022,37.513966 49.64121,37.480345 49.92957,37.764181 C50.18108,38.011164 50.17203,38.418491 49.9522,38.694569 C49.07547,39.795647 48.50392,40.878621 48.23819,41.929267 C48.1522,42.27 48.40694,42.601681 48.75866,42.601681 L59.92203,42.601681 C60.28022,42.601681 60.53754,42.256422 60.43733,41.912457 C59.76556,39.612026 57.54013,37.530776 55.61211,36.091552 C55.33086,35.881422 55.22289,35.490259 55.40328,35.189612 C55.61017,34.84306 56.06405,34.757716 56.38022,34.992414 C59.59616,37.385302 61.4356,39.79306 61.87397,42.165905 C61.92052,42.418707 62.14099,42.601681 62.39832,42.601681 L66.36168,42.601681 C66.71276,42.601681 66.96621,42.269353 66.88086,41.928621 C65.64466,36.992198 58.0244,32.841336 55.58366,31.625172 C55.28431,31.475819 54.93129,31.475819 54.63129,31.625172 C52.19185,32.842629 44.57159,36.996078 43.33474,41.928621 C43.24875,42.269353 43.50284,42.601681 43.85392,42.601681 Z M64.09034,109.651034 L64.58108,116.844569 C64.60047,117.125819 64.83388,117.343707 65.11578,117.343707 L75.7897,117.343707 C76.08517,117.343707 76.32504,117.103836 76.32504,116.808362 L76.32504,114.417414 C76.32504,114.121293 76.08517,113.881422 75.7897,113.881422 L71.73388,113.881422 C71.34078,113.881422 71.02655,113.543276 71.06664,113.141767 C71.1022,112.793276 71.42095,112.541121 71.77138,112.541121 L75.7897,112.541121 C76.08517,112.541121 76.32504,112.30125 76.32504,112.005129 L76.32504,109.614181 C76.32504,109.31806 76.08517,109.07819 75.7897,109.07819 L64.6244,109.07819 C64.31405,109.07819 64.06901,109.341336 64.09034,109.651034 Z M65.28065,118.684009 C64.9703,118.684009 64.72461,118.947155 64.74595,119.256207 L65.2147,126.125819 C65.23409,126.407069 65.4675,126.625603 65.7494,126.625603 L72.03388,126.625603 C72.42634,126.625603 72.74056,126.963103 72.70047,127.363966 C72.66556,127.712457 72.34616,127.965259 71.99573,127.965259 L65.91427,127.965259 C65.60392,127.965259 65.35823,128.227759 65.37957,128.537457 L65.79466,134.620862 C65.81405,134.901466 66.04746,135.12 66.32935,135.12 L77.98474,135.12 C78.3772,135.12 78.69078,135.458147 78.65069,135.859655 C78.61578,136.208147 78.29638,136.460302 77.94595,136.460302 L66.49422,136.460302 C66.18388,136.460302 65.93819,136.722802 65.95953,137.0325 L66.37461,143.115259 C66.39401,143.397155 66.62741,143.615043 66.90931,143.615043 L74.38151,143.615043 C74.77461,143.615043 75.08819,143.952543 75.0481,144.354052 C75.01319,144.70319 74.69379,144.954698 74.34336,144.954698 L67.07418,144.954698 C66.76384,144.954698 66.51815,145.217845 66.53948,145.527543 L66.9106,150.967629 L87.5453,150.967629 L87.5453,136.996293 C87.5453,136.700172 87.30543,136.460302 87.00931,136.460302 L83.79013,136.460302 C83.39703,136.460302 83.08345,136.122155 83.12353,135.721293 C83.15845,135.372155 83.47784,135.12 83.82828,135.12 L87.00931,135.12 C87.30543,135.12 87.5453,134.880129 87.5453,134.584009 L87.5453,119.219353 C87.5453,118.923879 87.30543,118.684009 87.00931,118.684009 L65.28065,118.684009 Z M81.9869,116.808362 C81.9869,117.103836 82.22741,117.343707 82.52353,117.343707 L88.21513,117.343707 C88.5856,117.343707 88.88496,117.643707 88.88496,118.013534 L88.88496,150.967629 L92.38022,150.967629 L92.38022,129.330776 C92.38022,128.938319 92.71836,128.624095 93.11922,128.664828 C93.46772,128.699741 93.71987,129.019138 93.71987,129.369569 L93.71987,150.967629 L95.37634,150.967629 L101.25414,141.156207 C101.37892,140.948017 101.44422,140.710086 101.44422,140.467629 L101.44422,109.445431 C101.44422,109.052974 101.78237,108.739397 102.18388,108.778836 C102.53237,108.814397 102.78388,109.133147 102.78388,109.483578 L102.78388,110.802543 L105.71211,107.874957 L105.71341,107.873664 L109.58884,103.998233 L109.58884,102.387026 C109.58884,101.994569 109.92634,101.680991 110.3272,101.721078 C110.67634,101.755345 110.92849,102.074741 110.92849,102.425172 L110.92849,103.605776 L117.24013,103.605776 L117.24013,77.333147 C97.74013,77.691336 81.9869,93.66569 81.9869,113.249095 L81.9869,116.808362 Z M87.48776,90.133578 C87.48776,90.647586 88.1356,90.863534 88.45112,90.4575 C89.34207,89.307931 90.30026,88.211379 91.31793,87.17431 C91.56491,86.922802 91.70651,86.586595 91.70651,86.233578 L91.70651,82.016121 C91.70651,81.623664 92.04401,81.30944 92.44487,81.349526 C92.79336,81.38444 93.04616,81.703836 93.04616,82.054267 L93.04616,84.929483 C93.04616,85.160302 93.31578,85.281207 93.4897,85.129914 C95.68668,83.218707 98.10996,81.560948 100.71168,80.20125 C101.15909,79.967845 101.44422,79.511379 101.44422,79.007716 L101.44422,75.555776 C101.44422,75.163319 101.78237,74.849095 102.18388,74.889828 C102.53237,74.924741 102.78388,75.243491 102.78388,75.593922 L102.78388,78.3825 C102.78388,78.763966 103.17181,79.025819 103.52289,78.878405 C105.89444,77.882716 108.38948,77.125603 110.97828,76.63681 C111.48129,76.541767 111.84207,76.097586 111.84207,75.585517 L111.84207,72.117414 C111.84207,71.821293 111.6022,71.581422 111.30672,71.581422 L107.45522,71.581422 L91.87461,71.581422 L87.48776,71.581422 L87.48776,90.133578 Z M92.54509,69.705776 C92.54509,70.001897 92.78496,70.241767 93.08108,70.241767 L95.57677,70.241767 C95.87224,70.241767 96.11211,70.001897 96.11211,69.705776 L96.11211,67.522371 C96.11211,67.129914 96.45091,66.81569 96.85177,66.855776 C97.20026,66.89069 97.45241,67.210086 97.45241,67.560517 L97.45241,69.705776 C97.45241,70.001897 97.69228,70.241767 97.98841,70.241767 L101.34207,70.241767 C101.63819,70.241767 101.87806,70.001897 101.87806,69.705776 L101.87806,67.522371 C101.87806,67.129914 102.21621,66.81569 102.61707,66.855776 C102.96621,66.89069 103.21772,67.210086 103.21772,67.560517 L103.21772,69.705776 C103.21772,70.001897 103.45759,70.241767 103.75371,70.241767 L106.2494,70.241767 C106.54552,70.241767 106.78539,70.001897 106.78539,69.705776 L106.78539,65.199957 C106.78539,64.903836 106.54552,64.663966 106.2494,64.663966 L93.08108,64.663966 C92.78496,64.663966 92.54509,64.903836 92.54509,65.199957 L92.54509,69.705776 Z M95.04983,63.323664 L101.02526,63.323664 C101.38022,63.323664 101.63172,62.986164 101.5425,62.643491 C101.41513,62.157284 101.22052,61.690474 100.95996,61.257931 C100.75888,60.923017 100.88366,60.483362 101.24379,60.308793 C101.56642,60.152328 101.95306,60.304914 102.13603,60.613966 C102.54853,61.313534 102.82591,62.082284 102.96039,62.879483 C103.00306,63.13681 103.22547,63.323664 103.48603,63.323664 L104.28129,63.323664 C104.63302,63.323664 104.8897,62.99069 104.80112,62.650603 C104.205,60.369569 102.13086,58.681422 99.66491,58.681422 C97.20026,58.681422 95.12612,60.369569 94.52935,62.650603 C94.44013,62.99069 94.6981,63.323664 95.04983,63.323664 Z M105.51621,113.503836 L105.51621,110.61181 C105.51621,110.373233 105.22784,110.252974 105.05909,110.422371 L103.01987,112.460948 C102.86858,112.612241 102.78388,112.816552 102.78388,113.029914 L102.78388,136.663966 C102.78388,137.208362 103.50091,137.40556 103.78022,136.940043 L105.40177,134.231638 C105.47741,134.1075 105.51621,133.963966 105.51621,133.819138 L105.51621,126.259655 C105.51621,125.909224 105.76901,125.590474 106.1175,125.554914 C106.51836,125.515474 106.85651,125.829052 106.85651,126.222155 L106.85651,130.758362 C106.85651,131.051897 107.24315,131.158578 107.39379,130.907069 L107.39767,130.900603 C108.83172,128.507716 109.58884,125.770862 109.58884,122.982284 L109.58884,106.539828 C109.58884,106.30125 109.29983,106.180991 109.13108,106.350388 L107.09185,108.388966 C106.94121,108.540259 106.85651,108.744569 106.85651,108.957931 L106.85651,113.541983 C106.85651,113.935086 106.51836,114.248664 106.1175,114.207931 C105.76901,114.173664 105.51621,113.854267 105.51621,113.503836 Z M118.57978,150.967629 L128.52569,150.967629 L128.52569,140.880776 C128.52569,137.141121 125.64659,133.947802 121.91147,133.758362 C120.99853,133.712457 120.12246,133.843707 119.31168,134.119138 C118.87461,134.268491 118.57978,134.677112 118.57978,135.138103 L118.57978,150.967629 Z M121.55263,132.409655 C123.84207,132.409655 125.91815,133.339397 127.42267,134.841983 C126.29056,132.165905 124.33797,129.891336 121.78927,128.432069 C121.76276,128.416552 121.7369,128.401681 121.71039,128.386164 C119.13194,129.840259 117.13086,132.034655 115.91341,134.622155 C117.39659,133.250172 119.37828,132.409655 121.55263,132.409655 Z M114.57957,140.722371 L114.57957,150.967629 L117.24013,150.967629 L117.24013,136.497802 C117.24013,136.006422 116.62784,135.768491 116.30457,136.138319 C115.23065,137.364828 114.57957,138.968276 114.57957,140.722371 Z M111.46384,104.945431 C111.16836,104.945431 110.92849,105.185302 110.92849,105.481422 L110.92849,110.368707 L110.92849,122.981638 C110.92849,126.012672 110.10543,128.989397 108.54789,131.589181 L96.93841,150.967629 L113.23927,150.967629 L113.23927,140.597586 C113.23927,134.900819 116.3647,129.702543 121.39616,127.030991 C121.59272,126.926897 121.82806,126.926897 122.02461,127.030991 C122.17009,127.108578 122.31362,127.188103 122.45457,127.268922 C127.02634,129.88681 129.86534,134.871724 129.86534,140.279483 L129.86534,150.967629 L147.07914,150.967629 L135.21879,131.65125 C133.59918,129.013319 132.7425,125.982284 132.7425,122.886595 L132.7425,105.481422 C132.7425,105.185302 132.50263,104.945431 132.20651,104.945431 L111.46384,104.945431 Z M134.0828,122.886595 C134.0828,125.733362 134.8703,128.523879 136.3606,130.949741 L136.36319,130.954914 C136.49185,131.164397 136.81513,131.072586 136.81513,130.827543 L136.81513,121.503621 C136.81513,121.110517 137.15328,120.79694 137.55414,120.837026 C137.90263,120.87194 138.15543,121.19069 138.15543,121.541121 L138.15543,133.652974 C138.15543,133.795862 138.19487,133.93681 138.26987,134.059655 L140.43517,137.585948 C140.56384,137.795431 140.88711,137.704267 140.88711,137.457931 L140.88711,117.930776 L140.88711,112.918707 C140.88711,112.777112 140.83022,112.64069 140.73,112.539828 L134.49918,106.309009 C134.3453,106.155129 134.0828,106.26375 134.0828,106.481638 L134.0828,110.368707 L134.0828,110.373879 L134.0828,122.886595 Z M149.61815,126.221509 L149.61815,151.6575 C149.61815,152.038319 149.30909,152.348017 148.92828,152.348017 L0.69013,152.348017 C0.30866,152.348017 0.00026,152.038319 0.00026,151.6575 L0.00026,126.221509 C0.00026,120.140043 0.73151,114.090905 2.17461,108.241552 C2.26642,107.871724 2.64078,107.646724 3.0106,107.737241 C3.38043,107.827759 3.60608,108.201466 3.51491,108.572586 C2.09832,114.313966 1.38065,120.25125 1.38065,126.221509 L1.38065,150.967629 L6.26858,150.967629 L6.26858,86.627974 C6.26858,86.258147 6.56858,85.958147 6.93841,85.958147 L8.10349,85.958147 C8.39961,85.958147 8.63948,85.718276 8.63948,85.422155 L8.63948,84.790474 C8.63948,82.335517 10.46922,80.304052 12.83625,79.975603 L12.83625,69.156853 C12.83625,68.764397 13.1744,68.450819 13.57526,68.490905 C13.92375,68.525819 14.17655,68.844569 14.17655,69.195 L14.17655,79.975603 C16.54293,80.304052 18.37332,82.335517 18.37332,84.790474 L18.37332,85.422155 C18.37332,85.718276 18.61319,85.958147 18.90866,85.958147 L20.07375,85.958147 C20.44358,85.958147 20.74358,86.258147 20.74358,86.627974 L20.74358,132.849957 C20.74358,133.146078 20.98345,133.385948 21.27957,133.385948 L29.50823,133.385948 C29.80435,133.385948 30.04422,133.146078 30.04422,132.849957 L30.04422,123.167845 C30.04422,122.798017 30.34358,122.498017 30.71405,122.498017 L34.10328,122.498017 C34.36125,122.498017 34.58366,122.31375 34.62828,122.059655 C35.15392,119.06806 37.77052,116.788319 40.91017,116.788319 L41.49272,116.788319 C41.78884,116.788319 42.02871,116.548448 42.02871,116.252328 L42.02871,98.846509 C42.02871,98.454052 42.36621,98.139828 42.76707,98.179914 C43.11621,98.215474 43.36836,98.534871 43.36836,98.885302 L43.36836,116.252328 C43.36836,116.548448 43.60823,116.788319 43.90435,116.788319 L45.13733,116.788319 C45.41922,116.788319 45.65263,116.569784 45.67203,116.288534 L48.44703,75.637241 C48.46836,75.32819 48.22267,75.065043 47.91233,75.065043 L46.85909,75.065043 C46.46664,75.065043 46.15241,74.727543 46.1925,74.326034 C46.22741,73.977543 46.54746,73.725388 46.89789,73.725388 L47.99767,73.725388 C48.29379,73.725388 48.53366,73.485517 48.53366,73.189397 L48.53366,70.850172 C48.53366,70.554698 48.29379,70.314828 47.99767,70.314828 L47.92203,70.314828 L44.44616,70.314828 C44.05371,70.314828 43.74013,69.976681 43.78022,69.575819 C43.81513,69.226681 44.13453,68.974526 44.4856,68.974526 L45.63776,68.974526 C46.06901,68.974526 46.32375,68.492198 46.08065,68.136595 L39.81556,58.964612 C39.81556,58.963966 39.81491,58.963319 39.81427,58.963319 L36.20328,53.675819 C36.10371,53.529698 35.93819,53.442414 35.76103,53.442414 L31.73043,53.442414 C31.33797,53.442414 31.02375,53.104914 31.06384,52.703405 C31.09875,52.354914 31.41879,52.102759 31.76922,52.102759 L36.05909,52.102759 L38.5703,48.691552 L36.09724,48.691552 C35.70414,48.691552 35.39056,48.354052 35.43065,47.95319 C35.46556,47.604052 35.78496,47.351897 36.13539,47.351897 L39.705,47.351897 C40.00047,47.351897 40.24034,47.112026 40.24034,46.816552 L40.24034,44.477328 C40.24034,44.181207 40.00047,43.941336 39.705,43.941336 L38.89616,43.941336 C38.50306,43.941336 38.18948,43.60319 38.22957,43.202328 C38.26448,42.853836 38.58388,42.601681 38.93496,42.601681 L40.91017,42.601681 L41.38927,42.601681 C41.64853,42.601681 41.87159,42.415474 41.91491,42.160086 C42.91772,36.263534 51.57828,31.623233 54.13927,30.370216 C54.32289,30.280345 54.43797,30.094138 54.43797,29.889828 L54.43733,27.81569 C54.43733,27.519569 54.19746,27.279698 53.90198,27.279698 L53.1022,27.279698 C52.70909,27.279698 52.39487,26.941552 52.4356,26.54069 C52.47052,26.192198 52.78991,25.940043 53.14034,25.940043 L53.90198,25.940043 C54.19746,25.940043 54.43733,25.699526 54.43733,25.403405 L54.43733,23.845216 C54.43733,23.549095 54.19746,23.309224 53.90198,23.309224 L53.1022,23.309224 C52.70909,23.309224 52.39487,22.971724 52.4356,22.570216 C52.47052,22.221724 52.78991,21.969569 53.14034,21.969569 L53.90198,21.969569 C54.19746,21.969569 54.43733,21.729698 54.43733,21.433578 L54.43733,0.670216 C54.43733,0.277112 54.77547,-0.036466 55.17634,0.003621 C55.52547,0.038534 55.77698,0.357931 55.77698,0.708362 L55.77698,21.433578 C55.77698,21.729698 56.0175,21.969569 56.31297,21.969569 L57.11341,21.969569 C57.50586,21.969569 57.82009,22.307069 57.78,22.708578 C57.74444,23.057069 57.42504,23.309224 57.07461,23.309224 L56.31297,23.309224 C56.0175,23.309224 55.77698,23.549095 55.77698,23.845216 L55.77698,25.403405 C55.77698,25.699526 56.0175,25.940043 56.31297,25.940043 L57.11341,25.940043 C57.50586,25.940043 57.82009,26.277543 57.78,26.678405 C57.74444,27.027543 57.42504,27.279698 57.07461,27.279698 L56.31297,27.279698 C56.0175,27.279698 55.77698,27.519569 55.77698,27.81569 L55.77698,29.889828 C55.77698,30.094138 55.89207,30.280345 56.07569,30.370216 C58.63668,31.623233 67.29724,36.263534 68.30069,42.160086 C68.34336,42.415474 68.56642,42.601681 68.82634,42.601681 L69.30284,42.601681 L71.31879,42.601681 C71.7119,42.601681 72.02547,42.939181 71.98539,43.34069 C71.95047,43.689181 71.63108,43.941336 71.28065,43.941336 L70.50866,43.941336 C70.21319,43.941336 69.97267,44.181207 69.97267,44.477328 L69.97267,46.816552 C69.97267,47.112026 70.21319,47.351897 70.50866,47.351897 L74.11836,47.351897 C74.51082,47.351897 74.8244,47.690043 74.78431,48.090905 C74.7494,48.440043 74.43,48.691552 74.07957,48.691552 L72.70306,48.691552 C72.26341,48.691552 72.01125,49.191983 72.27181,49.545647 L73.99358,51.884224 C74.09444,52.021293 74.25478,52.102759 74.42547,52.102759 L78.48453,52.102759 C78.87763,52.102759 79.19121,52.440259 79.15112,52.841121 C79.11621,53.190259 78.79681,53.442414 78.44573,53.442414 L74.45263,53.442414 C74.27547,53.442414 74.10996,53.529698 74.00974,53.675819 L66.62353,64.49069 C66.62224,64.491336 66.62224,64.491983 66.62159,64.492629 L64.13302,68.136595 C63.88991,68.492198 64.14466,68.974526 64.57526,68.974526 L65.76879,68.974526 C66.16125,68.974526 66.47547,69.312672 66.43474,69.713534 C66.40047,70.062672 66.08043,70.314828 65.73,70.314828 L62.29164,70.314828 L62.21599,70.314828 C61.91987,70.314828 61.68,70.554698 61.68,70.850172 L61.68,73.189397 C61.68,73.485517 61.91987,73.725388 62.21599,73.725388 L63.35651,73.725388 C63.74897,73.725388 64.06254,74.062888 64.02246,74.464397 C63.98754,74.812888 63.66815,75.065043 63.31707,75.065043 L62.30263,75.065043 C61.99228,75.065043 61.74724,75.32819 61.76858,75.637241 L63.92547,107.23875 C63.94487,107.520647 64.17828,107.738534 64.46017,107.738534 L67.74789,107.738534 L70.15953,107.738534 L76.99487,107.738534 C77.36534,107.738534 77.6647,108.038534 77.6647,108.408362 L77.6647,116.808362 C77.6647,117.103836 77.90522,117.343707 78.20134,117.343707 L80.1119,117.343707 C80.40737,117.343707 80.64724,117.103836 80.64724,116.808362 L80.64724,113.249095 C80.64724,106.279267 82.57267,99.751034 85.91728,94.165474 C86.06664,93.915259 86.1481,93.630776 86.1481,93.339828 L86.1481,71.581422 L84.11858,71.581422 C83.72612,71.581422 83.41254,71.243922 83.45263,70.842414 C83.48754,70.493922 83.80694,70.241767 84.15737,70.241767 L86.81793,70.241767 L90.66879,70.241767 C90.96491,70.241767 91.20478,70.001897 91.20478,69.705776 L91.20478,65.199957 C91.20478,64.903836 90.96491,64.663966 90.66879,64.663966 L89.33625,64.663966 C88.94315,64.663966 88.62957,64.325819 88.66966,63.924957 C88.70457,63.575819 89.02397,63.323664 89.3744,63.323664 L91.87461,63.323664 L92.58,63.323664 C92.83991,63.323664 93.06233,63.137457 93.10629,62.881422 C93.57569,60.102543 95.77397,57.904267 98.55284,57.434224 C98.80888,57.391552 98.99509,57.168491 98.99509,56.908578 L98.99509,43.271509 C98.99509,42.878405 99.33323,42.564828 99.73474,42.604914 C100.08323,42.639828 100.33474,42.959224 100.33474,43.309655 L100.33474,56.908578 C100.33474,57.168491 100.52159,57.391552 100.77828,57.434224 C103.55651,57.904267 105.75478,60.102543 106.22483,62.881422 C106.26815,63.137457 106.49056,63.323664 106.75047,63.323664 L107.45522,63.323664 L109.99422,63.323664 C110.38668,63.323664 110.70091,63.66181 110.66017,64.062672 C110.62526,64.411164 110.30586,64.663966 109.95543,64.663966 L108.66103,64.663966 C108.36491,64.663966 108.12504,64.903836 108.12504,65.199957 L108.12504,69.705776 C108.12504,70.001897 108.36491,70.241767 108.66103,70.241767 L112.5119,70.241767 L115.21125,70.241767 C115.60435,70.241767 115.91793,70.579267 115.87784,70.980776 C115.84293,71.329267 115.52353,71.581422 115.1731,71.581422 L113.71836,71.581422 C113.42224,71.581422 113.18237,71.821293 113.18237,72.117414 L113.18237,75.683793 C113.18237,76.004483 113.46103,76.250172 113.77978,76.214612 C115.13819,76.063966 116.51793,75.987026 117.91578,75.987026 C118.28302,75.987672 118.57978,76.289612 118.57978,76.656853 L118.57978,103.605776 L132.20716,103.605776 C132.50263,103.605776 132.7425,103.365259 132.7425,103.069784 L132.7425,102.387026 C132.7425,101.994569 133.08129,101.680991 133.48216,101.721078 C133.83065,101.755991 134.0828,102.074741 134.0828,102.425819 L134.0828,103.554052 C134.0828,103.838534 134.1953,104.110733 134.39703,104.31181 L140.42935,110.344784 C140.59875,110.513534 140.88711,110.393922 140.88711,110.155345 L140.88711,109.445431 C140.88711,109.052974 141.22526,108.739397 141.62612,108.778836 C141.97461,108.814397 142.22677,109.133793 142.22677,109.484224 L142.22677,112.419569 L142.22677,117.930776 L142.22677,140.434655 C142.22677,140.479914 142.23905,140.524526 142.26297,140.562026 L148.23776,150.292629 L148.23776,126.221509 C148.23776,109.90319 142.99875,94.454483 133.08647,81.544138 C132.85435,81.242198 132.91125,80.808362 133.21384,80.576897 C133.51642,80.344784 133.94961,80.401681 134.18172,80.704267 C144.28022,93.856422 149.61815,109.596724 149.61815,126.221509 Z M20.47009,75.809224 C20.19272,75.547371 20.18043,75.110302 20.44293,74.833578 C25.24034,69.760086 30.71082,65.385517 36.70241,61.831422 C37.03086,61.637457 37.45435,61.746078 37.64832,62.073233 C37.84293,62.401034 37.73496,62.824526 37.40651,63.019138 C31.52547,66.507284 26.15522,70.801681 21.44573,75.782069 C21.30996,75.925603 21.12698,75.998017 20.94401,75.998017 C20.77397,75.998017 20.60328,75.935948 20.47009,75.809224 Z" ></path>

            <path id="sun" d="M114.03129,26.452112 C113.66147,26.452112 113.36147,26.152112 113.36147,25.782284 C113.36147,25.412457 113.66147,25.112457 114.03129,25.112457 L118.14595,25.112457 C118.51642,25.112457 118.81578,25.412457 118.81578,25.782284 C118.81578,26.152112 118.51642,26.452112 118.14595,26.452112 L114.03129,26.452112 Z M68.1675,21.844784 C67.79767,21.844784 67.49767,21.544784 67.49767,21.174957 C67.49767,20.804483 67.79767,20.504483 68.1675,20.504483 L71.46362,20.504483 C71.83345,20.504483 72.13345,20.804483 72.13345,21.174957 C72.13345,21.544784 71.83345,21.844784 71.46362,21.844784 L68.1675,21.844784 Z M76.60953,21.844784 C76.25909,21.844784 75.9397,21.592629 75.90543,21.243491 C75.86534,20.842629 76.17892,20.504483 76.57138,20.504483 L83.40931,20.504483 C83.58582,20.504483 83.74875,20.415259 83.85026,20.270431 C85.47634,17.946078 88.17052,16.422155 91.21578,16.422155 C94.64767,16.422155 97.72978,18.330776 99.26082,21.403836 C99.44638,21.775603 99.25435,22.235948 98.83086,22.351681 C98.51599,22.437026 98.19272,22.260517 98.0453,21.968276 C96.73668,19.373017 94.12332,17.76181 91.21578,17.76181 C86.83022,17.76181 83.29487,21.47431 83.58841,25.92194 C83.84573,29.828405 87.11082,32.954483 91.02504,33.048233 C93.80004,33.114828 96.33,31.723448 97.76211,29.356422 C97.96513,29.020216 98.41707,28.927759 98.73841,29.166983 C99.01578,29.374526 99.07461,29.777328 98.89422,30.073448 C97.12461,32.979698 93.94293,34.626466 90.4994,34.363319 C86.20888,34.035517 82.71362,30.617198 82.27914,26.335733 C82.14401,25.007716 82.30241,23.730776 82.69422,22.559871 C82.81254,22.20944 82.56103,21.844784 82.19056,21.844784 L76.60953,21.844784 Z M94.70134,25.782284 C94.70134,25.412457 95.00134,25.112457 95.37181,25.112457 L108.03,25.112457 C108.39983,25.112457 108.69983,25.412457 108.69983,25.782284 C108.69983,26.152112 108.39983,26.452112 108.03,26.452112 L95.37181,26.452112 C95.00134,26.452112 94.70134,26.152112 94.70134,25.782284 Z">

            </path>
        </g>
    </g>
</svg>