<svg xmlns="http://www.w3.org/2000/svg" width="400" height="400" viewBox="0 0 400 400">
    <path fill="#FF1773" fill-opacity=".05" fill-rule="evenodd" d="M200 0C89.588 0 0 89.588 0 200s89.588 200 200 200c110.195 0 200-89.588 200-200S310.195 0 200 0zm132.104 92.19c23.861 29.068 38.178 66.162 38.612 106.292-5.64-1.085-62.04-12.582-118.872-5.424-1.302-2.82-2.386-5.856-3.688-8.893-3.47-8.243-7.375-16.703-11.28-24.729 62.907-25.596 91.54-62.473 95.228-67.245zM200 29.502c43.384 0 83.08 16.269 113.232 42.95-3.037 4.339-28.85 38.829-89.588 61.605-27.982-51.41-59.002-93.492-63.774-100 12.798-3.036 26.247-4.555 40.13-4.555zm-72.668 16.052c4.555 6.074 34.924 48.373 63.34 98.699-79.826 21.258-150.325 20.824-157.917 20.825 11.063-52.93 46.855-96.964 94.577-119.524zM29.067 200.217v-5.206c7.376.217 90.239 1.301 175.488-24.295 4.99 9.544 9.545 19.306 13.883 29.067-2.17.651-4.555 1.302-6.724 1.952C123.644 230.152 76.79 307.81 72.885 314.317c-27.115-30.152-43.818-70.282-43.818-114.1zM200 370.933c-39.48 0-75.922-13.45-104.772-36.009 3.037-6.29 37.744-73.102 134.056-106.724.434-.217.65-.217 1.085-.434 24.078 62.256 33.84 114.533 36.442 129.5-20.607 8.894-43.167 13.667-66.811 13.667zm95.228-29.284c-1.736-10.413-10.846-60.304-33.189-121.692 53.58-8.46 100.434 5.423 106.29 7.375-7.375 47.505-34.707 88.503-73.101 114.317z"/>
</svg>
