<svg xmlns="http://www.w3.org/2000/svg" width="100" height="24" viewBox="0 0 100 24">
  <path fill="#1F1F1F" fill-rule="evenodd" d="M401.77561,4990.61986 C401.466098,4990.39942 401.220732,4990.36793 401.018049,4990.78781 C397.540244,4998.1884 391.683415,4994.49338 392.270244,4994.8188 C393.571707,4994.23094 396.98561,4991.54362 396.473415,4987.81706 C396.164146,4985.53913 394.179756,4984.53139 392.067561,4984.89878 C388.387073,4985.52864 387.042927,4989.43366 387.72561,4992.88728 C387.842927,4993.48565 388.056341,4993.96853 388.280488,4994.45141 C384.130488,4997.77906 382.477073,4991.48064 382.284878,4990.72483 C382.27439,4990.68283 385.496098,4988.04799 386.392195,4981.76009 C387.330976,4975.17823 385.197317,4973.97104 383.010488,4974.01303 C378.967317,4974.08651 377.879024,4982.38992 379.340488,4989.30768 C379.223171,4989.33917 378.647073,4989.6541 377.729756,4989.68558 C377.068293,4987.6386 374.24122,4985.84357 373.505122,4986.53638 C371.659512,4988.26846 373.953171,4991.64859 375.574878,4991.91103 C374.603902,4997.80006 368.523171,4996.34093 369.653902,4988.96126 C371.627561,4985.35018 373.142439,4979.96503 372.865122,4976.72134 C372.769024,4975.57713 371.904878,4974.03402 369.952683,4974.1075 C366.197561,4974.25447 365.792195,4982.55787 366.229512,4988.45741 C366.208293,4988.31043 365.994878,4989.17122 364.458537,4989.60161 C364.095854,4987.61762 360.842195,4985.61262 360.074146,4986.57838 C358.644634,4988.37343 361.130244,4991.57513 362.303659,4991.79557 C361.332927,4997.68459 355.252195,4996.22544 356.382927,4988.8458 C358.367317,4985.23471 359.871463,4979.86006 359.604634,4976.61638 C359.50878,4975.47216 358.644634,4973.92905 356.692195,4974.00253 C352.937073,4974.14949 352.531707,4982.4529 352.969268,4988.35243 C352.947805,4988.20546 352.73439,4989.09775 351.134146,4989.51763 C351.080976,4986.93528 347.816585,4985.75957 347.027073,4986.57838 C345.629512,4988.04799 347.347073,4991.06074 348.936585,4991.79557 C347.965854,4997.68459 341.885122,4996.22544 343.015854,4988.8458 C344.989512,4985.23471 346.50439,4979.84957 346.227073,4976.60587 C346.141707,4975.47216 345.277561,4973.92905 343.325122,4974.00253 C339.57,4974.14949 339.271463,4982.8728 339.70878,4988.77231 C338.47122,4993.9895 334.321463,5000.49792 334.865366,4987.44965 C334.91878,4986.53638 334.972195,4986.18996 334.513415,4985.84357 C334.161463,4985.58113 333.371951,4985.70708 332.945122,4985.71759 C332.422439,4985.73859 332.283902,4986.04301 332.177073,4986.4944 C331.910488,4987.67009 331.857073,4988.81431 331.81439,4990.37842 C331.793171,4991.11322 331.729024,4991.44915 331.440976,4992.4464 C331.152927,4993.44365 329.531463,4995.2597 328.635366,4994.95526 C327.397805,4994.53538 327.803171,4991.10274 328.037805,4988.74082 C328.23,4986.8723 327.61122,4986.04301 326.032317,4985.73859 C325.104195,4985.54964 324.538805,4985.58113 323.578683,4985.27669 C322.66122,4984.99327 322.458537,4983.2927 320.516951,4983.85956 C319.450146,4984.17449 320.132902,4986.38942 319.876854,4988.0375 C318.618024,4996.13098 316.004366,4996.35142 314.788195,4992.4254 C320.250244,4979.24071 316.356415,4974.04452 314.084098,4974.04452 C311.715805,4974.04452 309.006122,4975.65061 310.147585,4985.93803 C309.592854,4985.78057 309.422171,4985.69659 308.803415,4985.69659 C305.357639,4985.6861 303,4988.43641 303,4991.82706 C303,4995.2177 305.357639,4997.96801 308.814098,4997.96801 C310.851683,4997.96801 312.281195,4997.05474 313.369341,4995.6481 C314.073439,4996.64534 314.937561,4997.98901 316.516415,4997.92603 C321.210366,4997.74757 322.575878,4988.26846 322.735902,4987.73309 C323.237293,4987.80658 323.717366,4987.95353 324.176098,4988.02702 C324.944195,4988.14248 325.008195,4988.4469 324.986854,4989.2027 C324.784171,4995.6481 325.989659,4997.90503 328.731463,4997.90503 C330.256829,4997.90503 331.622439,4996.4249 332.56122,4995.37517 C333.265366,4996.80281 334.374634,4997.86303 335.879024,4997.90503 C339.506098,4997.98901 340.903659,4992.29942 340.77561,4993.04474 C340.679512,4993.6326 341.949024,4997.86303 345.693659,4997.88403 C350.323415,4997.90503 351.187561,4992.89779 351.283659,4992.05801 C351.304878,4991.91103 351.29439,4991.89003 351.283659,4992.05801 C351.283659,4992.0685 351.283659,4992.0895 351.283659,4992.11047 C352.755854,4991.83754 353.513171,4991.07125 353.513171,4991.07125 C353.513171,4991.07125 354.697317,4997.96801 359.060732,4997.89454 C363.594634,4997.81054 364.458537,4993.28618 364.565366,4992.4044 C364.586585,4992.21545 364.576098,4992.19447 364.565366,4992.4044 C364.565366,4992.41491 364.565366,4992.4254 364.565366,4992.4254 C366.314878,4991.79557 366.773659,4991.17622 366.773659,4991.17622 C366.773659,4991.17622 367.712439,4997.93652 372.320976,4997.9995 C376.428293,4998.05208 377.953659,4993.90553 377.96439,4992.17347 C378.657805,4992.18396 379.938049,4991.76408 379.906098,4991.74308 C379.906098,4991.74308 381.410244,4997.6531 385.613415,4997.95752 C387.587073,4998.1044 389.069756,4996.86578 389.912683,4996.29893 C391.896829,4997.88403 398.500488,4999.8996 402.671707,4992.93977 C403.269024,4991.95303 401.999512,4990.76683 401.77561,4990.61986 Z M308.64339,4995.6691 C306.627146,4995.6691 305.336305,4993.83206 305.336305,4991.85854 C305.336305,4989.88505 306.520463,4988.04799 308.536732,4988.04799 C309.443512,4988.04799 309.944902,4988.14248 310.659659,4988.75134 C310.787683,4989.2447 311.15039,4990.38893 311.331756,4990.91378 C311.566439,4991.60662 311.854488,4992.20496 312.131854,4992.8453 C311.715805,4994.50387 310.392951,4995.6691 308.64339,4995.6691 Z M313.550707,4988.80382 C313.465366,4988.66736 313.486707,4988.75134 313.390683,4988.62536 C313.027976,4987.6386 312.31322,4985.43415 312.227878,4982.92529 C312.131854,4980.09101 312.611927,4976.76334 314.030756,4976.76334 C314.990902,4976.76334 316.015024,4983.50266 313.550707,4988.80382 Z M341.938293,4985.85406 C341.71439,4984.17449 341.703659,4976.66887 343.528049,4976.8788 C344.541463,4977.2777 342.887805,4984.35293 341.938293,4985.85406 Z M355.305366,4985.85406 C355.081463,4984.17449 355.070732,4976.66887 356.895122,4976.8788 C357.908537,4977.2777 356.254878,4984.35293 355.305366,4985.85406 Z M368.565854,4985.95903 C368.341707,4984.27944 368.33122,4976.77382 370.155366,4976.98378 C371.16878,4977.37219 369.515366,4984.4579 368.565854,4985.95903 Z M383.202439,4976.42743 C384.877317,4976.25946 384.802683,4983.45017 381.452927,4987.98502 C381.015366,4986.34742 380.354146,4976.99429 383.202439,4976.42743 Z M390.243415,4991.91103 C389.71,4989.23422 391.096829,4987.48114 392.526341,4987.29218 C393.027805,4987.21872 393.753171,4987.53362 393.891707,4988.13199 C394.126585,4989.25519 393.859756,4990.92427 390.64878,4993.03426 C390.659512,4993.04474 390.360732,4992.49889 390.243415,4991.91103 Z M333.5,4983.6601 C334.641463,4983.6601 335.569512,4982.74682 335.569512,4981.62362 C335.569512,4980.5004 334.641463,4979.58713 333.5,4979.58713 C332.358537,4979.58713 331.430244,4980.5004 331.430244,4981.62362 C331.430244,4982.74682 332.358537,4983.6601 333.5,4983.6601 Z" transform="translate(-303 -4974)"/>
</svg>
