<svg width="150" height="197" xmlns="http://www.w3.org/2000/svg">
<style>#sun{-webkit-transform:translateX(-140px);-ms-transform:translateX(-140px);transform:translateX(-140px);-webkit-animation:dash 10s linear normal infinite;animation:dash 10s linear normal infinite}@-webkit-keyframes dash{0%{-webkit-transform:translateX(-140px);transform:translateX(-140px);opacity:0}50%{opacity:1}100%{-webkit-transform:translateX(90px);transform:translateX(90px);opacity:0}}@keyframes dash{0%{-webkit-transform:translateX(-140px);transform:translateX(-140px);opacity:0}50%{opacity:1}100%{-webkit-transform:translateX(90px);transform:translateX(90px);opacity:0}}</style>
<g fill="#1F1F1F" fill-rule="evenodd"><path d="M148.872 186.643v9.295a.345.345 0 0 1-.347.358h-1.145a.472.472 0 0 1-.434-.243l-4.128-6.206v6.105a.34.34 0 0 1-.095.243.33.33 0 0 1-.253.1h-1.246a.335.335 0 0 1-.246-.1.327.327 0 0 1-.101-.243v-9.31a.36.36 0 0 1 .093-.256.332.332 0 0 1 .254-.1h1.13a.46.46 0 0 1 .42.242l4.143 6.35v-6.235c0-.105.03-.19.094-.257a.33.33 0 0 1 .254-.1h1.245a.345.345 0 0 1 .363.358zm-17.96 5.992h3.273l-1.637-4.405-1.637 4.405zm2.953-5.992l3.478 9.224.028.129a.28.28 0 0 1-.094.214.307.307 0 0 1-.21.086h-1.29c-.201 0-.342-.09-.419-.272l-.667-1.73h-4.287l-.667 1.73a.42.42 0 0 1-.42.272h-1.289a.298.298 0 0 1-.304-.3l.029-.13 3.476-9.223c.097-.239.27-.358.522-.358h1.593c.252 0 .425.12.521.358zm-11.79 3.868c.29-.252.435-.622.435-1.108 0-.486-.145-.86-.435-1.123-.29-.262-.724-.393-1.304-.393h-2.013v3.003h2.013c.58 0 1.014-.126 1.304-.379zm.608 1.68l2.1 3.647c.03.058.044.11.044.158a.278.278 0 0 1-.094.214.306.306 0 0 1-.21.086h-1.333a.557.557 0 0 1-.362-.107 1.067 1.067 0 0 1-.232-.28l-1.854-3.388h-1.984v3.43a.327.327 0 0 1-.101.244.356.356 0 0 1-.262.1h-1.332a.334.334 0 0 1-.246-.1.323.323 0 0 1-.101-.243v-9.31c0-.104.03-.19.093-.256a.33.33 0 0 1 .254-.1h3.752c1.187 0 2.117.27 2.788.815.671.543 1.007 1.315 1.007 2.316 0 .696-.169 1.28-.508 1.752-.338.472-.81.813-1.419 1.023zm-10.494-5.805a.36.36 0 0 1 .094.257v9.309a.333.333 0 0 1-.348.344h-1.347a.336.336 0 0 1-.246-.101.327.327 0 0 1-.101-.243v-3.817h-4.23v3.817a.325.325 0 0 1-.102.243.353.353 0 0 1-.26.1h-1.333a.337.337 0 0 1-.246-.1.327.327 0 0 1-.102-.243v-9.31c0-.104.032-.19.095-.256a.33.33 0 0 1 .253-.1h1.333c.106 0 .193.033.26.1a.342.342 0 0 1 .102.257v3.676h4.23v-3.676a.344.344 0 0 1 .347-.358h1.347c.106 0 .19.034.254.101zm-12.306 8.344a.322.322 0 0 1 .102.25v.972a.323.323 0 0 1-.102.25.369.369 0 0 1-.26.094H93.12a.335.335 0 0 1-.247-.101.326.326 0 0 1-.102-.243v-9.31c0-.104.032-.19.095-.256a.332.332 0 0 1 .254-.1h6.387c.106 0 .193.033.261.1.067.066.101.152.101.257v.958a.323.323 0 0 1-.1.25.372.372 0 0 1-.262.093h-4.75v2.503h4.431a.36.36 0 0 1 .261.1.349.349 0 0 1 .102.258v.9a.324.324 0 0 1-.102.25.371.371 0 0 1-.26.094h-4.433v2.588h4.867c.106 0 .193.03.26.093zm-10.849-8.344a.342.342 0 0 1 .102.257v1.072a.345.345 0 0 1-.362.358h-2.666v7.879a.34.34 0 0 1-.094.243.33.33 0 0 1-.253.1h-1.362a.337.337 0 0 1-.246-.1.327.327 0 0 1-.101-.243v-7.879h-2.68a.344.344 0 0 1-.347-.358v-1.072c0-.105.03-.19.093-.257a.33.33 0 0 1 .254-.1h7.402c.106 0 .193.033.26.1zm-22.99 4.225c.294-.262.441-.646.441-1.151 0-.495-.143-.881-.427-1.159-.286-.275-.717-.414-1.297-.414h-2.085v3.118h2.085c.56 0 .988-.132 1.282-.394zm-1.21-4.326c1.168 0 2.085.272 2.751.816.667.543 1 1.334 1 2.373 0 1.03-.333 1.81-1 2.339-.666.529-1.583.794-2.751.794h-2.13v3.345a.323.323 0 0 1-.102.25.368.368 0 0 1-.26.094h-1.39a.335.335 0 0 1-.247-.101.325.325 0 0 1-.101-.243v-9.31c0-.104.031-.19.094-.256a.33.33 0 0 1 .254-.1h3.882zm-8.67.101a.358.358 0 0 1 .094.257v5.82c0 1.335-.36 2.33-1.079 2.988-.72.659-1.73.987-3.034.987-1.314 0-2.333-.328-3.057-.987-.724-.657-1.086-1.653-1.086-2.988v-5.82c0-.105.031-.19.094-.257a.328.328 0 0 1 .253-.1h1.333a.345.345 0 0 1 .362.358v5.82c0 .752.181 1.32.544 1.7.362.382.876.573 1.542.573s1.18-.19 1.543-.572c.362-.381.543-.949.543-1.702v-5.82c0-.105.034-.19.102-.257a.353.353 0 0 1 .26-.1h1.333c.106 0 .19.033.253.1zm-11.812 0c.067.066.101.152.101.257v1.072c0 .105-.034.191-.1.258a.357.357 0 0 1-.262.1h-2.665v7.879a.34.34 0 0 1-.094.243.33.33 0 0 1-.254.1h-1.362a.335.335 0 0 1-.245-.1.325.325 0 0 1-.102-.243v-7.879h-2.68a.345.345 0 0 1-.348-.358v-1.072c0-.105.031-.19.095-.257a.33.33 0 0 1 .253-.1h7.402c.107 0 .193.033.261.1zm-11.298 8.344c.067.062.1.145.1.25v.972a.324.324 0 0 1-.1.25.371.371 0 0 1-.261.094h-6.504a.336.336 0 0 1-.246-.101.327.327 0 0 1-.101-.243v-9.31c0-.104.03-.19.093-.256a.33.33 0 0 1 .254-.1h6.388c.106 0 .193.033.261.1.067.066.1.152.1.257v.958a.323.323 0 0 1-.1.25.372.372 0 0 1-.261.093h-4.751v2.503h4.432a.36.36 0 0 1 .261.1.349.349 0 0 1 .102.258v.9a.324.324 0 0 1-.102.25.371.371 0 0 1-.261.094h-4.432v2.588h4.867c.106 0 .193.03.26.093zm-11.197 0a.323.323 0 0 1 .101.25v.972a.325.325 0 0 1-.101.25.37.37 0 0 1-.26.094h-6.505a.335.335 0 0 1-.246-.101.325.325 0 0 1-.101-.243v-9.31c0-.104.03-.19.093-.256a.331.331 0 0 1 .254-.1h6.388c.106 0 .193.033.261.1.067.066.1.152.1.257v.958a.323.323 0 0 1-.1.25.37.37 0 0 1-.26.093h-4.752v2.503h4.433c.106 0 .192.034.26.1a.349.349 0 0 1 .102.258v.9a.324.324 0 0 1-.102.25.37.37 0 0 1-.26.094h-4.433v2.588h4.867a.37.37 0 0 1 .26.093zm-11.647-8.344a.342.342 0 0 1 .102.257v9.309a.323.323 0 0 1-.102.25.37.37 0 0 1-.26.094H8.704a.337.337 0 0 1-.246-.101.327.327 0 0 1-.102-.243v-6.149l-2.013 3.776c-.106.21-.265.314-.478.314h-.608c-.203 0-.367-.104-.493-.314l-2.014-3.776v6.149a.332.332 0 0 1-.348.344H1.158a.335.335 0 0 1-.246-.101.325.325 0 0 1-.101-.243v-9.31c0-.104.03-.19.094-.256a.33.33 0 0 1 .253-.1h1.174c.183 0 .328.09.434.27l2.796 5.12 2.795-5.12c.107-.18.252-.27.435-.27H9.95c.106 0 .193.033.26.1zm124.743-7.023a.662.662 0 0 1-.174-.472v-18.699c0-.208.057-.376.174-.5a.606.606 0 0 1 .463-.187h11.922c.212 0 .381.063.506.186a.674.674 0 0 1 .19.501v1.032a.59.59 0 0 1-.19.458c-.125.114-.294.171-.506.171h-9.89v6.386h9.251c.213 0 .382.062.508.186.125.125.189.29.189.501v.974c0 .19-.064.348-.189.472-.126.125-.295.186-.508.186h-9.252v6.615h10.122c.213 0 .382.062.508.186a.674.674 0 0 1 .188.501v1.03a.615.615 0 0 1-.202.473.703.703 0 0 1-.494.186h-12.153a.6.6 0 0 1-.463-.186zm-18.012 0a.665.665 0 0 1-.173-.472v-18.726c0-.191.058-.349.173-.474a.607.607 0 0 1 .464-.186h1.45c.194 0 .349.063.465.186a.666.666 0 0 1 .174.474v16.98h9.688c.212 0 .381.06.507.186a.636.636 0 0 1 .188.472v1.088a.611.611 0 0 1-.203.472.7.7 0 0 1-.492.186h-11.777a.602.602 0 0 1-.464-.186zm-18.533-9.12v7.044h5.685c1.237 0 2.209-.329 2.915-.988s1.059-1.502 1.059-2.534c0-1.05-.353-1.898-1.06-2.548-.705-.649-1.677-.973-2.914-.973h-5.685zm0-8.476v6.243h5.395c1.257 0 2.214-.281 2.871-.845.657-.563.987-1.35.987-2.362 0-.992-.324-1.747-.972-2.262-.649-.515-1.61-.774-2.886-.774h-5.395zM96.32 179.55a.601.601 0 0 1-.464-.186.663.663 0 0 1-.175-.472v-18.699c0-.208.059-.376.175-.5a.606.606 0 0 1 .464-.187h7.918c2.05 0 3.596.487 4.64 1.46 1.045.974 1.567 2.244 1.567 3.81 0 1.068-.252 1.96-.755 2.676-.503.716-1.092 1.236-1.769 1.56.831.402 1.527 1.023 2.09 1.862.56.84.84 1.804.84 2.892 0 1.07-.247 2.043-.74 2.921-.493.878-1.223 1.575-2.19 2.09-.967.516-2.117.773-3.451.773h-8.15zm-10.398-3.25c.706-.659 1.059-1.502 1.059-2.534 0-1.05-.353-1.898-1.059-2.548-.706-.649-1.678-.973-2.915-.973h-5.685v7.043h5.685c1.237 0 2.21-.329 2.915-.988zm-8.6-14.532v6.243h5.395c1.257 0 2.214-.281 2.872-.845.657-.563.986-1.35.986-2.362 0-.992-.324-1.747-.972-2.262-.648-.515-1.61-.774-2.886-.774h-5.395zm9.514 7.244c.83.402 1.527 1.023 2.088 1.862.56.84.84 1.804.84 2.892 0 1.07-.246 2.043-.738 2.921-.494.878-1.224 1.575-2.19 2.09-.967.516-2.118.773-3.452.773h-8.15a.602.602 0 0 1-.464-.186.662.662 0 0 1-.174-.472v-18.699c0-.208.058-.376.174-.5a.607.607 0 0 1 .464-.187h7.918c2.05 0 3.597.487 4.64 1.46 1.046.974 1.567 2.244 1.567 3.81 0 1.068-.252 1.96-.754 2.676-.503.716-1.092 1.236-1.77 1.56zm-22 7.288c.706-.659 1.059-1.502 1.059-2.534 0-1.05-.353-1.898-1.06-2.548-.705-.649-1.677-.973-2.914-.973h-5.685v7.043h5.685c1.237 0 2.21-.329 2.915-.988zm-8.6-14.532v6.243h5.395c1.257 0 2.214-.281 2.872-.845.657-.563.986-1.35.986-2.362 0-.992-.324-1.747-.972-2.262-.648-.515-1.61-.774-2.886-.774h-5.395zm9.514 7.244c.831.402 1.527 1.023 2.088 1.862.56.84.841 1.804.841 2.892 0 1.07-.247 2.043-.74 2.921-.493.878-1.223 1.575-2.19 2.09-.966.516-2.117.773-3.45.773h-8.15a.602.602 0 0 1-.465-.186.665.665 0 0 1-.174-.472v-18.699c0-.208.058-.376.174-.5a.607.607 0 0 1 .464-.187h7.918c2.05 0 3.597.487 4.64 1.46 1.045.974 1.567 2.244 1.567 3.81 0 1.068-.251 1.96-.754 2.676-.503.716-1.093 1.236-1.77 1.56zm-19.259-9.333c.116.114.174.277.174.487v18.726a.636.636 0 0 1-.667.658h-1.45a.601.601 0 0 1-.464-.186.665.665 0 0 1-.174-.472v-18.726a.67.67 0 0 1 .174-.474.606.606 0 0 1 .464-.186h1.45c.212 0 .377.058.493.173zm-15.69 9.42c2.919 0 4.379-1.212 4.379-3.637 0-2.424-1.46-3.637-4.38-3.637h-4.873v7.273H30.8zm6.96 10.45h-1.276c-.29 0-.517-.065-.681-.199a1.88 1.88 0 0 1-.45-.573l-4.264-7.33h-5.163v7.445a.613.613 0 0 1-.203.472.7.7 0 0 1-.492.186h-1.393a.603.603 0 0 1-.464-.186.665.665 0 0 1-.174-.472v-18.699c0-.208.058-.376.174-.5a.608.608 0 0 1 .464-.187h7.077c2.205 0 3.93.51 5.177 1.532 1.248 1.022 1.871 2.506 1.871 4.453 0 1.45-.367 2.644-1.102 3.58-.735.935-1.76 1.584-3.074 1.946l4.467 7.646c.057.114.086.22.086.315a.548.548 0 0 1-.174.401.563.563 0 0 1-.406.17zm-23.493-7.902c.038-1.145.058-1.86.058-2.148 0-.304-.02-1.011-.058-2.118-.039-1.908-.498-3.308-1.378-4.195-.88-.887-2.325-1.332-4.335-1.332H4.233v15.32h4.466c1.354 0 2.431-.187 3.234-.559a3.434 3.434 0 0 0 1.741-1.746c.357-.792.555-1.866.594-3.222zm1.87 4.539c-.55 1.136-1.416 1.98-2.595 2.534-1.18.554-2.746.83-4.699.83h-6.7a.601.601 0 0 1-.464-.186.665.665 0 0 1-.173-.472v-18.699c0-.208.058-.376.173-.5a.606.606 0 0 1 .465-.187h6.554c2.92 0 5.028.645 6.323 1.933 1.295 1.289 1.962 3.232 2.001 5.827.02.555.03 1.299.03 2.233 0 .936-.01 1.69-.03 2.263-.039 1.813-.333 3.288-.884 4.424zm85.976-88.142a.67.67 0 0 1-.67-.67V85.36a.67.67 0 0 1 1.34 0v2.014c0 .37-.3.67-.67.67zM57.918 59.26a.67.67 0 0 1 0-1.34h5.439a.67.67 0 0 1 0 1.34h-5.44zM13.506 99.433a.67.67 0 0 1-.67-.67V94.5a.67.67 0 1 1 1.34 0v4.264c0 .37-.3.67-.67.67zm0 29.677a.67.67 0 0 1-.67-.67v-22.193a.67.67 0 0 1 1.34 0v22.193c0 .37-.3.67-.67.67zm0 12.923a.67.67 0 0 1-.67-.67v-5.051a.67.67 0 0 1 1.34 0v5.051c0 .37-.3.67-.67.67zm79.544-33.14a.67.67 0 0 1-.67-.67V97.098a.67.67 0 1 1 1.34 0v11.125c0 .37-.3.67-.67.67zm-.674-30.93a.67.67 0 0 1-.67-.67v-2.439a.67.67 0 0 1 1.34 0v2.438c0 .37-.3.67-.67.67zm-12.914 66.322c0-.37.3-.67.67-.67h3.658a.67.67 0 0 1 0 1.34h-3.658a.67.67 0 0 1-.67-.67zm-.79-16.32a.67.67 0 0 1 0-1.34h2.92a.67.67 0 1 1 0 1.34h-2.92zm31.322-38.607a.67.67 0 0 1-.67-.67v-4.536a.67.67 0 0 1 1.34 0v4.537c0 .37-.3.67-.67.67zm-7.88 12.881a.67.67 0 0 1-.67-.67v-6.544a.67.67 0 0 1 1.34 0v6.544c0 .37-.3.67-.67.67zm3.402 19.345v-2.319a.67.67 0 0 1 1.34 0v2.32a.67.67 0 0 1-1.34 0zm31.969-4.128a.67.67 0 0 1-.67-.67v-2.623a.67.67 0 1 1 1.34 0v2.623c0 .37-.3.67-.67.67zm-9.08-6.769a.67.67 0 0 1-.67-.67v-1.982a.67.67 0 1 1 1.34 0v1.983c0 .37-.3.67-.67.67zm0 8.324a.67.67 0 0 1-.67-.67v-3.993a.67.67 0 1 1 1.34 0v3.993c0 .37-.3.67-.67.67zm-6.597-8.324a.67.67 0 0 1-.67-.67v-1.982a.67.67 0 1 1 1.34 0v1.983c0 .37-.3.67-.67.67zm0 8.324a.67.67 0 0 1-.67-.67v-3.993a.67.67 0 0 1 1.34 0v3.993c0 .37-.3.67-.67.67zm-6.597-8.324a.67.67 0 0 1-.67-.67v-1.982a.67.67 0 1 1 1.34 0v1.983c0 .37-.3.67-.67.67zm0 8.324a.67.67 0 0 1-.67-.67v-3.993a.67.67 0 0 1 1.34 0v3.993c0 .37-.3.67-.67.67zM55.107 149.95a.67.67 0 0 1-.67-.67v-32.355a.67.67 0 1 1 1.34 0v32.355c0 .37-.3.67-.67.67zm0-39.505a.67.67 0 0 1-.67-.67v-3.961a.67.67 0 0 1 1.34 0v3.961c0 .37-.3.67-.67.67zm0-10.929a.67.67 0 0 1-.67-.67v-13.89a.67.67 0 0 1 1.34 0v13.89c0 .37-.3.67-.67.67zm30.637-47.31c2.503.366 5.019.867 7.476 1.489a.69.69 0 0 1-.339 1.338 73.219 73.219 0 0 0-7.337-1.46.69.69 0 0 1 .2-1.367zm40.408 21.52a74.259 74.259 0 0 0-4.78-4.286.69.69 0 1 1 .875-1.067 75.764 75.764 0 0 1 4.87 4.366.69.69 0 0 1-.965.988zM7.608 150.969h5.228v-2.812a.67.67 0 0 1 1.34 0v2.812h5.228V87.834a.536.536 0 0 0-.536-.536H8.145a.537.537 0 0 0-.537.536v63.134zM9.98 85.422c0 .296.24.536.536.536h3.01c.297 0 .536-.24.536-.536v-.632c0-.449-.083-.887-.247-1.3a.67.67 0 0 1 .432-.89c.345-.103.704.11.833.446a4.84 4.84 0 0 1 .323 1.744v.632c0 .296.24.536.535.536h.56c.296 0 .536-.24.536-.536v-.529c0-1.897-1.455-3.531-3.35-3.625A3.531 3.531 0 0 0 9.98 84.79v.632zm10.765 58.197v7.349h22.56l.158-2.304.349-5.11a.537.537 0 0 0-.535-.572H28.458a.67.67 0 0 1-.666-.738c.035-.35.355-.602.705-.602H43.44a.536.536 0 0 0 .535-.499l.4-5.845a.537.537 0 0 0-.535-.572H21.28a.536.536 0 0 0-.536.536v8.357zm10.64-10.769c0 .296.24.536.536.536h12.084a.536.536 0 0 0 .535-.5l.207-3.032a.535.535 0 0 0-.535-.572H38.75a.67.67 0 0 1-.666-.74c.035-.349.354-.6.705-.6h5.588a.536.536 0 0 0 .534-.5l.207-3.032a.536.536 0 0 0-.534-.572H31.92a.536.536 0 0 0-.536.535v3.033c0 .296.24.536.536.536h2.116a.67.67 0 0 1 .667.738c-.035.349-.355.602-.705.602H31.92a.536.536 0 0 0-.536.536v3.032zm5.195-10.352h8.168a.536.536 0 0 0 .535-.5l.225-3.297a.536.536 0 0 0-.535-.573H40.91a5.042 5.042 0 0 0-4.847 3.681.54.54 0 0 0 .516.689zm8.069 28.47h20.92L60.42 75.564a.536.536 0 0 0-.536-.499H50.33a.537.537 0 0 0-.536.5l-5.146 75.403zm15.156-80.653H50.41a.536.536 0 0 0-.536.535v2.34c0 .296.24.535.536.535h9.395c.296 0 .536-.24.536-.536V70.85a.536.536 0 0 0-.536-.535zm-11.245-1.34h13.096a.535.535 0 0 0 .442-.234l2.128-3.116a.536.536 0 0 0-.442-.838H53.95a.67.67 0 0 1-.666-.74c.035-.348.354-.6.704-.6H65.43a.537.537 0 0 0 .443-.234l6.101-8.932a.536.536 0 0 0-.442-.839h-32.85a.536.536 0 0 0-.443.839l2.326 3.405c.1.146.265.233.442.233h8.923a.67.67 0 0 1 .667.74c-.036.348-.355.6-.705.6h-7.237a.536.536 0 0 0-.443.838l5.904 8.644c.1.146.266.234.443.234zM37.723 52.103H71.43c.44 0 .692-.5.432-.854l-1.723-2.339a.536.536 0 0 0-.43-.218H40.233l-2.511 3.41zm3.858-5.286c0 .295.24.535.535.535h25.981c.296 0 .536-.24.536-.535v-2.34a.536.536 0 0 0-.536-.536H42.116a.536.536 0 0 0-.535.536v2.34zm2.273-4.215h2.437c.259 0 .482-.186.525-.441.244-1.431.953-2.886 2.119-4.34a.67.67 0 0 1 .995-.057c.251.247.242.654.022.93-.877 1.102-1.448 2.185-1.714 3.235a.538.538 0 0 0 .52.673h11.164a.538.538 0 0 0 .515-.69c-.671-2.3-2.897-4.381-4.825-5.82-.281-.21-.39-.602-.209-.902a.67.67 0 0 1 .977-.198c3.216 2.393 5.056 4.801 5.494 7.174a.532.532 0 0 0 .524.436h3.964a.539.539 0 0 0 .519-.673c-1.236-4.937-8.857-9.088-11.297-10.304-.3-.15-.653-.15-.953 0-2.44 1.218-10.06 5.371-11.296 10.304a.539.539 0 0 0 .519.673zM64.09 109.65l.491 7.194c.02.28.253.499.535.499H75.79c.295 0 .535-.24.535-.536v-2.39a.536.536 0 0 0-.535-.537h-4.056a.67.67 0 0 1-.667-.74c.035-.348.354-.6.704-.6h4.019c.295 0 .535-.24.535-.536v-2.39a.536.536 0 0 0-.535-.537H64.624a.536.536 0 0 0-.534.573zm1.19 9.033a.536.536 0 0 0-.534.572l.469 6.87c.02.281.252.5.534.5h6.285a.67.67 0 0 1 .666.738c-.034.348-.354.601-.704.601h-6.082a.536.536 0 0 0-.534.572l.415 6.084c.019.28.252.499.534.499h11.656a.67.67 0 0 1 .666.74c-.035.348-.355.6-.705.6H66.494a.536.536 0 0 0-.534.572l.415 6.083c.019.282.252.5.534.5h7.473a.67.67 0 0 1 .666.74c-.035.348-.354.6-.705.6h-7.269a.536.536 0 0 0-.535.573l.372 5.44h20.634v-13.972a.536.536 0 0 0-.536-.536H83.79a.67.67 0 0 1-.666-.739c.034-.349.354-.601.704-.601h3.181c.296 0 .536-.24.536-.536v-15.365a.536.536 0 0 0-.536-.535H65.281zm16.707-1.876c0 .296.24.536.537.536h5.691c.37 0 .67.3.67.67v32.954h3.495V129.33a.67.67 0 0 1 .74-.666c.348.035.6.354.6.705v21.598h1.656l5.878-9.812c.125-.208.19-.446.19-.688v-31.023c0-.392.338-.706.74-.666.348.035.6.354.6.705v1.319l2.928-2.928.001-.001 3.876-3.876v-1.611a.67.67 0 0 1 .738-.666c.35.034.601.354.601.704v1.18h6.312V77.334c-19.5.358-35.253 16.333-35.253 35.916v3.56zm5.5-26.674c0 .514.649.73.964.323a37.404 37.404 0 0 1 2.867-3.283c.247-.251.389-.587.389-.94v-4.218a.67.67 0 0 1 .738-.666c.348.034.601.354.601.704v2.875c0 .231.27.352.444.2a37.4 37.4 0 0 1 7.222-4.928c.447-.233.732-.69.732-1.193v-3.452a.67.67 0 0 1 .74-.666c.348.035.6.353.6.704v2.788c0 .382.388.644.739.496a36.969 36.969 0 0 1 7.455-2.241c.503-.095.864-.54.864-1.051v-3.469a.536.536 0 0 0-.535-.536H87.488v18.553zm5.058-20.428c0 .296.24.536.536.536h2.496c.295 0 .535-.24.535-.536v-2.184c0-.392.339-.706.74-.666.348.035.6.354.6.705v2.145c0 .296.24.536.536.536h3.354c.296 0 .536-.24.536-.536v-2.184a.67.67 0 0 1 .74-.666c.348.035.6.354.6.705v2.145c0 .296.24.536.536.536h2.495c.297 0 .536-.24.536-.536V65.2a.536.536 0 0 0-.536-.536H93.081a.536.536 0 0 0-.536.536v4.506zm2.505-6.382h5.975a.539.539 0 0 0 .517-.68 5.272 5.272 0 0 0-.582-1.386.67.67 0 0 1 .284-.95c.322-.156.71-.003.892.306.413.7.69 1.468.824 2.265a.531.531 0 0 0 .526.445h.795a.538.538 0 0 0 .52-.673 5.316 5.316 0 0 0-5.136-3.97 5.317 5.317 0 0 0-5.136 3.97c-.089.34.17.673.52.673zm10.466 50.18v-2.892a.268.268 0 0 0-.457-.19l-2.04 2.039a.804.804 0 0 0-.235.569v23.634c0 .544.717.742.996.276l1.622-2.708a.794.794 0 0 0 .114-.413v-7.56c0-.35.253-.669.602-.704a.67.67 0 0 1 .739.667v4.536c0 .294.386.4.537.15l.004-.007a15.404 15.404 0 0 0 2.19-7.919V106.54a.268.268 0 0 0-.457-.19l-2.04 2.039a.806.806 0 0 0-.234.569v4.584a.67.67 0 0 1-.74.666c-.348-.034-.6-.354-.6-.704zm13.064 37.464h9.946V140.88c0-3.74-2.88-6.933-6.615-7.123a6.97 6.97 0 0 0-2.6.361c-.436.15-.731.558-.731 1.02v15.829zm2.973-18.558c2.29 0 4.365.93 5.87 2.432-1.132-2.676-3.085-4.95-5.634-6.41l-.079-.046a13.994 13.994 0 0 0-5.797 6.236 8.281 8.281 0 0 1 5.64-2.212zm-6.973 8.312v10.246h2.66v-14.47c0-.492-.612-.73-.935-.36a6.936 6.936 0 0 0-1.725 4.584zm-3.116-35.777a.536.536 0 0 0-.536.536V122.982c0 3.03-.823 6.007-2.38 8.607l-11.61 19.379h16.301v-10.37a15.328 15.328 0 0 1 8.157-13.567.671.671 0 0 1 .629 0c.145.078.289.157.43.238 4.571 2.618 7.41 7.603 7.41 13.01v10.689h17.214l-11.86-19.317a16.744 16.744 0 0 1-2.476-8.764V105.48a.536.536 0 0 0-.536-.536h-20.743zm22.619 17.942c0 2.846.787 5.637 2.278 8.063l.002.005c.129.21.452.118.452-.127v-9.324a.67.67 0 0 1 .74-.667c.348.035.6.354.6.704v12.112c0 .143.04.284.115.407l2.165 3.526c.129.21.452.118.452-.128v-24.539a.539.539 0 0 0-.157-.38l-6.23-6.23a.244.244 0 0 0-.417.173v16.405zm15.535 3.335v25.436c0 .38-.309.69-.69.69H.69a.69.69 0 0 1-.69-.69v-25.436c0-6.082.732-12.131 2.175-17.98a.69.69 0 1 1 1.34.331 73.74 73.74 0 0 0-2.134 17.649v24.746h4.888v-64.34c0-.37.3-.67.67-.67h1.164c.297 0 .536-.24.536-.536v-.632a4.87 4.87 0 0 1 4.197-4.814v-10.82a.67.67 0 0 1 .74-.665c.348.035.6.354.6.704v10.78c2.367.33 4.197 2.36 4.197 4.815v.632c0 .296.24.536.536.536h1.165c.37 0 .67.3.67.67v46.222c0 .296.24.536.536.536h8.228c.296 0 .536-.24.536-.536v-9.682c0-.37.3-.67.67-.67h3.39c.257 0 .48-.184.524-.438.526-2.992 3.143-5.272 6.282-5.272h.583c.296 0 .536-.24.536-.536V98.847a.67.67 0 0 1 .738-.667c.35.035.601.355.601.705v17.367c0 .296.24.536.536.536h1.233a.536.536 0 0 0 .535-.5l2.775-40.65a.536.536 0 0 0-.535-.573H46.86a.67.67 0 0 1-.666-.739c.034-.348.354-.6.705-.6h1.1c.296 0 .536-.24.536-.537V70.85a.536.536 0 0 0-.536-.535h-3.552a.67.67 0 0 1-.666-.74c.035-.348.355-.6.706-.6h1.152a.536.536 0 0 0 .443-.838l-6.265-9.172-.002-.002-3.61-5.287a.535.535 0 0 0-.443-.234h-4.03a.67.67 0 0 1-.667-.739c.035-.348.355-.6.705-.6h4.29l2.511-3.411h-2.473a.67.67 0 0 1-.666-.739c.035-.349.354-.601.704-.601h3.57c.295 0 .535-.24.535-.535v-2.34a.536.536 0 0 0-.535-.536h-.809a.67.67 0 0 1-.666-.739c.034-.348.354-.6.705-.6h2.455c.259 0 .482-.187.525-.442 1.003-5.896 9.663-10.537 12.224-11.79a.534.534 0 0 0 .299-.48v-2.074a.536.536 0 0 0-.536-.536h-.8a.67.67 0 0 1-.666-.74c.035-.348.354-.6.704-.6h.762c.295 0 .535-.24.535-.537v-1.558a.536.536 0 0 0-.535-.536h-.8a.67.67 0 0 1-.666-.739c.035-.348.354-.6.704-.6h.762c.295 0 .535-.24.535-.536V.67a.67.67 0 0 1 .74-.666c.348.035.6.354.6.704v20.726c0 .296.24.536.536.536h.8a.67.67 0 0 1 .667.739c-.036.348-.355.6-.705.6h-.762a.536.536 0 0 0-.536.536v1.558c0 .297.24.537.536.537h.8a.67.67 0 0 1 .667.738c-.036.35-.355.602-.705.602h-.762a.536.536 0 0 0-.536.536v2.074c0 .204.115.39.299.48 2.56 1.253 11.221 5.894 12.225 11.79a.531.531 0 0 0 .525.442h2.493a.67.67 0 0 1 .666.739c-.035.348-.354.6-.704.6h-.772a.536.536 0 0 0-.536.536v2.34c0 .295.24.535.536.535h3.61a.67.67 0 0 1 .665.739c-.035.349-.354.6-.704.6h-1.377c-.44 0-.692.501-.431.855l1.722 2.338c.1.137.26.219.431.219h4.06a.67.67 0 0 1 .666.738c-.035.35-.354.601-.705.601h-3.993a.537.537 0 0 0-.443.234L66.624 64.49c-.002 0-.002.001-.002.002l-2.489 3.644a.536.536 0 0 0 .442.838h1.194a.67.67 0 0 1 .666.739c-.035.349-.355.6-.705.6H62.216a.536.536 0 0 0-.536.536v2.34c0 .296.24.535.536.535h1.14a.67.67 0 0 1 .666.74c-.034.348-.354.6-.705.6h-1.014a.535.535 0 0 0-.534.572l2.156 31.602c.02.282.253.5.535.5h12.535c.37 0 .67.3.67.67v8.4c0 .295.24.535.536.535h1.91c.296 0 .536-.24.536-.536v-3.559c0-6.97 1.926-13.498 5.27-19.084.15-.25.231-.534.231-.825V71.58h-2.03a.67.67 0 0 1-.665-.739c.035-.348.354-.6.704-.6H90.67c.296 0 .536-.24.536-.536V65.2a.536.536 0 0 0-.536-.536h-1.333a.67.67 0 0 1-.666-.739c.035-.35.354-.601.704-.601h3.206c.26 0 .482-.187.526-.443a6.669 6.669 0 0 1 5.447-5.447.531.531 0 0 0 .442-.525V43.272a.67.67 0 0 1 .74-.667c.348.035.6.354.6.705v13.599c0 .26.187.483.443.525a6.67 6.67 0 0 1 5.447 5.447.532.532 0 0 0 .525.443h3.245a.67.67 0 0 1 .665.739c-.035.348-.354.601-.705.601h-1.294a.536.536 0 0 0-.536.536v4.506c0 .296.24.536.536.536H115.211a.67.67 0 0 1 .667.739c-.035.348-.354.6-.705.6h-1.455a.536.536 0 0 0-.536.536v3.567c0 .32.279.566.598.53a37.51 37.51 0 0 1 4.136-.227c.367 0 .664.303.664.67v26.949h13.627c.296 0 .536-.24.536-.536v-.683a.67.67 0 0 1 .74-.666c.348.035.6.354.6.705v1.128c0 .285.112.557.314.758l6.032 6.033c.17.169.458.049.458-.19v-.71a.67.67 0 0 1 .74-.666c.348.035.6.355.6.705v30.951c0 .045.012.09.036.127l5.975 9.73v-24.07c0-16.319-5.24-31.768-15.152-44.678a.69.69 0 1 1 1.096-.84c10.098 13.152 15.436 28.893 15.436 45.518zM20.47 75.809a.69.69 0 0 1-.027-.975 75.125 75.125 0 0 1 16.26-13.003.691.691 0 0 1 .704 1.188 73.737 73.737 0 0 0-15.961 12.763.689.689 0 0 1-.976.027z"/><path d="M114.031 26.452a.67.67 0 0 1 0-1.34h4.115a.67.67 0 1 1 0 1.34h-4.115zm-45.864-4.607a.67.67 0 0 1 0-1.34h3.297a.67.67 0 0 1 0 1.34h-3.296zm8.443 0c-.35 0-.67-.252-.705-.602a.67.67 0 0 1 .666-.739h6.838a.54.54 0 0 0 .441-.234 8.98 8.98 0 0 1 7.366-3.848 8.937 8.937 0 0 1 8.045 4.982.67.67 0 0 1-.43.948c-.315.085-.638-.091-.786-.384a7.607 7.607 0 0 0-6.83-4.206c-4.385 0-7.92 3.712-7.627 8.16.258 3.906 3.523 7.032 7.437 7.126a7.599 7.599 0 0 0 6.737-3.692.671.671 0 0 1 .976-.189c.278.208.337.61.156.906-1.77 2.907-4.951 4.553-8.395 4.29-4.29-.327-7.785-3.746-8.22-8.027a8.99 8.99 0 0 1 .415-3.776.537.537 0 0 0-.503-.715H76.61zM94.7 25.782c0-.37.3-.67.67-.67h12.659a.67.67 0 0 1 0 1.34H95.372a.67.67 0 0 1-.67-.67z" id="sun"/></g></svg>
