<svg xmlns="http://www.w3.org/2000/svg" width="21" height="22" viewBox="0 0 21 22">
  <path fill="#FFF" fill-rule="evenodd" d="M546.430607,35.5703704 L546.427348,35.5703704 C549.26076,35.5703704 549.614937,35.5827557 550.727442,35.6333834 C551.837775,35.6842283 552.596104,35.8600129 553.261,36.1179316 C553.947624,36.3841072 554.527778,36.7404566 555.107932,37.3206108 C555.688087,37.9003304 556.044436,38.4822229 556.311698,39.1681955 C556.568096,39.831353 556.744098,40.5892473 556.796246,41.6995799 C556.846222,42.8120853 556.859259,43.1675656 556.859259,46.0001086 C556.859259,48.8326517 556.846222,49.1872628 556.796246,50.2997682 C556.744098,51.4096662 556.568096,52.1677778 556.311698,52.8311526 C556.044436,53.5169079 555.688087,54.0988004 555.107932,54.67852 C554.52843,55.2586742 553.947407,55.6158928 553.261651,55.8822857 C552.598059,56.1402044 551.839296,56.3159889 550.728963,56.3668339 C549.616458,56.4174616 549.262064,56.4298469 546.429304,56.4298469 C543.596978,56.4298469 543.241715,56.4174616 542.12921,56.3668339 C541.019094,56.3159889 540.260983,56.1402044 539.597391,55.8822857 C538.911853,55.6158928 538.32996,55.2586742 537.750458,54.67852 C537.170521,54.0988004 536.814171,53.5169079 536.547561,52.8309354 C536.28986,52.1677778 536.114075,51.4098835 536.063013,50.299551 C536.012603,49.1870455 536,48.8326517 536,46.0001086 C536,43.1675656 536.013037,42.811868 536.062796,41.6993626 C536.112772,40.5894646 536.288773,39.831353 536.547344,39.1679782 C536.814606,38.4822229 537.170955,37.9003304 537.75111,37.3206108 C538.330829,36.7406739 538.912722,36.3843245 539.598694,36.1179316 C540.261852,35.8600129 541.019746,35.6842283 542.130079,35.6333834 C543.242584,35.5827557 543.598064,35.5703704 546.430607,35.5703704 Z M545.494973,37.4498961 L545.494973,37.4472887 C543.551131,37.4494615 543.178267,37.4624987 542.216124,37.505956 C541.199225,37.5526725 540.6471,37.7221557 540.279452,37.8655646 C539.792731,38.0550382 539.445073,38.2810159 539.080032,38.6460567 C538.714991,39.0110976 538.488579,39.3587555 538.29954,39.8454766 C538.156783,40.2131249 537.986865,40.7650319 537.940366,41.7819314 C537.89039,42.8813996 537.880395,43.2099364 537.880395,45.9951111 C537.880395,48.7802858 537.89039,49.1105608 537.940366,50.210029 C537.986648,51.2269285 538.156783,51.7788355 538.29954,52.1460492 C538.489014,52.6329876 538.714991,52.9797764 539.080032,53.3448172 C539.445073,53.7098581 539.792731,53.9358358 540.279452,54.1248748 C540.647318,54.2676318 541.199225,54.4375496 542.216124,54.4844834 C543.315592,54.5344593 543.64565,54.5453236 546.430607,54.5453236 C549.215348,54.5453236 549.545623,54.5344593 550.645091,54.4844834 C551.66199,54.4379842 552.214332,54.2685009 552.581546,54.125092 C553.068484,53.936053 553.415055,53.7100754 553.780096,53.3450345 C554.145137,52.980211 554.371549,52.6336395 554.560588,52.1469184 C554.703345,51.7797046 554.873263,51.2277977 554.919763,50.2108982 C554.969738,49.1114299 554.980603,48.7811549 554.980603,45.9977185 C554.980603,43.2142821 554.969738,42.884007 554.919763,41.7845388 C554.873481,40.7676393 554.703345,40.2157323 554.560588,39.8485186 C554.371115,39.3617975 554.145137,39.0141396 553.780096,38.6490987 C553.415273,38.2840579 553.068267,38.0580802 552.581546,37.8690412 C552.213897,37.7262842 551.66199,37.5563664 550.645091,37.5098671 C549.545405,37.4598913 549.215348,37.4498961 546.430607,37.4498961 C546.082515,37.4498961 545.772665,37.4494615 545.494973,37.4498961 Z M551.997915,39.1816672 L551.997915,39.1812327 C552.688885,39.1812327 553.249483,39.7418311 553.249483,40.4328013 C553.249483,41.1237714 552.688885,41.6843699 551.997915,41.6843699 C551.306945,41.6843699 550.746346,41.1237714 550.746346,40.4328013 C550.746346,39.7416138 551.306945,39.1816672 551.997915,39.1816672 Z M546.430607,40.6440035 L546.43039,40.6440035 C549.388307,40.6440035 551.785843,43.0421914 551.785843,46.0001086 C551.785843,48.9580259 549.388525,51.3551274 546.430607,51.3551274 C543.47269,51.3551274 541.074502,48.9580259 541.074502,46.0001086 C541.074502,43.0421914 543.47269,40.6440035 546.430607,40.6440035 Z M546.430607,42.5235292 C544.510449,42.5235292 542.954028,44.0799504 542.954028,46.0001086 C542.954028,47.9200496 544.510449,49.4766881 546.430607,49.4766881 C548.350548,49.4766881 549.907187,47.9200496 549.907187,46.0001086 C549.907187,44.0799504 548.350548,42.5235292 546.430607,42.5235292 Z" transform="translate(-536 -35)"/>
</svg>
