<svg xmlns="http://www.w3.org/2000/svg" width="300" height="73" viewBox="0 0 300 73">
    <path fill="#FFF" fill-rule="evenodd" d="M296.327 50.552c-.929-.67-1.665-.766-2.273.51-10.433 22.511-28.004 11.272-26.243 12.262 3.904-1.788 14.146-9.962 12.61-21.297-.929-6.929-6.882-9.994-13.218-8.877-11.042 1.916-15.074 13.794-13.026 24.299.352 1.82.992 3.289 1.664 4.757-12.45 10.122-17.41-9.036-17.986-11.335-.032-.127 9.633-8.142 12.322-27.267C252.993 3.584 246.592-.088 240.03.04c-12.129.223-15.394 25.48-11.01 46.52-.351.097-2.08 1.055-4.832 1.15-1.984-6.226-10.465-11.686-12.674-9.579-5.536 5.269 1.345 15.55 6.21 16.348-2.913 17.913-21.155 13.475-17.763-8.972 5.92-10.984 10.465-27.363 9.633-37.23-.288-3.48-2.88-8.174-8.737-7.95-11.265.447-12.481 25.703-11.17 43.648-.063-.447-.703 2.17-5.312 3.48-1.088-6.035-10.85-12.133-13.154-9.196-4.288 5.46 3.169 15.199 6.689 15.87-2.912 17.912-21.154 13.473-17.762-8.973 5.953-10.984 10.465-27.332 9.665-37.198-.288-3.48-2.88-8.174-8.737-7.95-11.266.447-12.482 25.703-11.17 43.647-.064-.447-.704 2.267-5.505 3.544-.16-7.854-9.952-11.43-12.32-8.94-4.193 4.47.96 13.634 5.728 15.87-2.912 17.912-21.155 13.473-17.762-8.973 5.92-10.984 10.465-27.364 9.633-37.23-.256-3.448-2.848-8.142-8.706-7.918-11.265.447-12.16 26.98-10.849 44.924-3.712 15.87-16.162 35.666-14.53-4.023.16-2.778.32-3.831-1.056-4.885-1.056-.798-3.424-.415-4.705-.383-1.568.064-1.983.99-2.304 2.363-.8 3.576-.96 7.056-1.088 11.814-.063 2.235-.256 3.257-1.12 6.29-.864 3.033-5.729 8.557-8.417 7.63-3.713-1.276-2.496-11.717-1.793-18.901.577-5.684-1.28-8.206-6.016-9.132-2.784-.575-4.48-.48-7.361-1.405-2.752-.862-3.36-6.035-9.185-4.31-3.2.957-1.152 7.694-1.92 12.707-3.777 24.618-11.618 25.289-15.266 13.347C51.75 15.94 40.069.135 33.252.135c-7.105 0-15.234 4.886-11.81 36.177-1.663-.48-2.175-.735-4.032-.735C7.073 35.545 0 43.911 0 54.224c0 10.313 7.073 18.679 17.442 18.679 6.113 0 10.402-2.778 13.666-7.057 2.112 3.034 4.705 7.12 9.441 6.929 14.082-.543 18.179-29.375 18.659-31.004 1.504.224 2.944.671 4.32.895 2.305.35 2.497 1.277 2.433 3.576-.608 19.604 3.008 26.47 11.233 26.47 4.576 0 8.673-4.503 11.49-7.696 2.112 4.343 5.44 7.567 9.953 7.695 10.881.256 15.074-17.05 14.69-14.783-.288 1.788 3.52 14.655 14.754 14.72 13.89.063 16.482-15.167 16.77-17.722.064-.447.032-.51 0 0v.16c4.417-.83 6.689-3.161 6.689-3.161s3.552 20.978 16.642 20.754c13.602-.255 16.194-14.017 16.514-16.699.064-.575.032-.638 0 0v.064c5.249-1.916 6.625-3.8 6.625-3.8s2.816 20.563 16.642 20.754c12.322.16 16.898-12.452 16.93-17.72 2.08.032 5.921-1.246 5.825-1.31 0 0 4.513 17.977 17.122 18.903 5.921.447 10.37-3.32 12.898-5.045 5.952 4.821 25.763 10.952 38.277-10.218 1.792-3-2.016-6.609-2.688-7.056zM16.93 65.91c-6.049 0-9.921-5.587-9.921-11.59s3.552-11.59 9.601-11.59c2.72 0 4.225.287 6.369 2.139.384 1.5 1.472 4.98 2.016 6.577.704 2.107 1.568 3.927 2.4 5.875-1.248 5.045-5.216 8.59-10.465 8.59zm14.722-20.882c-.256-.415-.192-.16-.48-.543-1.088-3-3.232-9.706-3.488-17.337-.288-8.621 1.152-18.743 5.408-18.743 2.88 0 5.953 20.499-1.44 36.623zm85.163-8.972c-.672-5.109-.704-27.938 4.77-27.3 3.04 1.214-1.922 22.734-4.77 27.3zm40.101 0c-.672-5.109-.704-27.938 4.77-27.3 3.04 1.214-1.921 22.734-4.77 27.3zm39.782.32c-.673-5.11-.704-27.939 4.768-27.3 3.04 1.181-1.92 22.733-4.768 27.3zm43.91-28.993c5.024-.51 4.8 21.361-5.25 35.155-1.312-4.981-3.296-33.43 5.25-35.155zM261.73 54.48c-1.6-8.142 2.56-13.474 6.849-14.049 1.504-.223 3.68.735 4.096 2.555.705 3.416-.096 8.493-9.729 14.91.033.033-.864-1.628-1.216-3.416zM91.5 29.383c3.424 0 6.209-2.778 6.209-6.194 0-3.417-2.785-6.195-6.209-6.195-3.424 0-6.21 2.778-6.21 6.195 0 3.416 2.786 6.194 6.21 6.194z"/>
</svg>
