<svg xmlns="http://www.w3.org/2000/svg" width="16" height="16" viewBox="0 0 16 16">
  <g fill="none" fill-rule="evenodd" stroke="#FFF" stroke-linecap="round" stroke-linejoin="round" transform="translate(1 1)">
    <path d="M7.43633333 7C7.43633333 6.7585 7.63233333 6.5625 7.87383333 6.5625L13.1238333 6.5625C13.3653333 6.5625 13.5613333 6.7585 13.5613333 7L13.5613333 13.125C13.5613333 13.3665 13.3653333 13.5625 13.1238333 13.5625L7.87383333 13.5625C7.63233333 13.5625 7.43633333 13.3665 7.43633333 13.125L7.43633333 7zM10.4988333 8.3125L11.8113333 8.3125M9.18633333 10.0625L11.8113333 10.0625M9.18633333 11.8125L11.8113333 11.8125"/>
    <path d="M5.68831667,11.7959333 C2.78273333,11.5725167 0.5159,9.18843333 0.439483333,6.27468333 C0.363066667,3.36151667 2.50098333,0.86135 5.39081667,0.4851 C8.28123333,0.109433333 10.9879,1.97901667 11.6593167,4.8146"/>
    <path d="M3.93633333 11.3744167L3.93633333 8.74941667C3.93633333 8.74941667 4.52491667 8.48108333 4.67716667 8.13808333 4.77225 7.92458333 4.7635 7.67958333 4.65383333 7.47366667L3.91941667 6.09408333C3.7555 5.78783333 3.40375 5.6315 3.06658333 5.71608333L.441583333 6.37058333M3.06133333 1.33186667L3.06133333 3.6372C3.06075 3.98603333 3.29758333 4.28995 3.63591667 4.37453333L4.74425 4.7537C4.97116667 4.81028333 5.2115 4.75895 5.39525 4.61486667 5.57958333 4.47078333 5.68691667 4.25028333 5.68633333 4.01636667L5.68633333 3.21778333 8.11533333 2.8182C8.48108333 2.75695 8.74883333 2.44078333 8.74883333 2.07036667L8.74883333 1.07811667"/>
  </g>
</svg>
